<?xml version="1.0" standalone="no"?>
<svg xmlns="http://www.w3.org/2000/svg" version="1.1" width="220" height="220">
	<!-- Created with https://api.qrserver.com (QR Code API, see goQR.me/api for information) -->
	<title>QR Code</title>
	<desc>http://www.google.com/maps?f=l&amp;hl=en&amp;q=1280+N+950+W%2c+Provo+%2c+Uhttps://www.google.com/maps/place/Battle+Creek+Falls/@40.3620071,-111.7038256,16.01z/data=!4m2!3m1!1s0x0:0xe728432e5232ae29?hl=en-UST+84601</desc>
	<rect style="fill:rgb(255, 255, 255);fill-opacity:1" x="0" y="0" width="220" height="220" />
	<g id="elements">
		<path style="fill:rgb(0, 0, 0)" d="M 4,4 l 4,0 0,4 -4,0 z M 8,4 l 4,0 0,4 -4,0 z M 12,4 l 4,0 0,4 -4,0 z M 16,4 l 4,0 0,4 -4,0 z M 20,4 l 4,0 0,4 -4,0 z M 24,4 l 4,0 0,4 -4,0 z M 28,4 l 4,0 0,4 -4,0 z M 40,4 l 4,0 0,4 -4,0 z M 48,4 l 4,0 0,4 -4,0 z M 56,4 l 4,0 0,4 -4,0 z M 64,4 l 4,0 0,4 -4,0 z M 76,4 l 4,0 0,4 -4,0 z M 80,4 l 4,0 0,4 -4,0 z M 84,4 l 4,0 0,4 -4,0 z M 88,4 l 4,0 0,4 -4,0 z M 96,4 l 4,0 0,4 -4,0 z M 128,4 l 4,0 0,4 -4,0 z M 136,4 l 4,0 0,4 -4,0 z M 140,4 l 4,0 0,4 -4,0 z M 144,4 l 4,0 0,4 -4,0 z M 148,4 l 4,0 0,4 -4,0 z M 160,4 l 4,0 0,4 -4,0 z M 164,4 l 4,0 0,4 -4,0 z M 172,4 l 4,0 0,4 -4,0 z M 188,4 l 4,0 0,4 -4,0 z M 192,4 l 4,0 0,4 -4,0 z M 196,4 l 4,0 0,4 -4,0 z M 200,4 l 4,0 0,4 -4,0 z M 204,4 l 4,0 0,4 -4,0 z M 208,4 l 4,0 0,4 -4,0 z M 212,4 l 4,0 0,4 -4,0 z M 4,8 l 4,0 0,4 -4,0 z M 28,8 l 4,0 0,4 -4,0 z M 36,8 l 4,0 0,4 -4,0 z M 48,8 l 4,0 0,4 -4,0 z M 56,8 l 4,0 0,4 -4,0 z M 72,8 l 4,0 0,4 -4,0 z M 84,8 l 4,0 0,4 -4,0 z M 88,8 l 4,0 0,4 -4,0 z M 92,8 l 4,0 0,4 -4,0 z M 96,8 l 4,0 0,4 -4,0 z M 104,8 l 4,0 0,4 -4,0 z M 108,8 l 4,0 0,4 -4,0 z M 116,8 l 4,0 0,4 -4,0 z M 124,8 l 4,0 0,4 -4,0 z M 132,8 l 4,0 0,4 -4,0 z M 136,8 l 4,0 0,4 -4,0 z M 140,8 l 4,0 0,4 -4,0 z M 148,8 l 4,0 0,4 -4,0 z M 156,8 l 4,0 0,4 -4,0 z M 164,8 l 4,0 0,4 -4,0 z M 172,8 l 4,0 0,4 -4,0 z M 176,8 l 4,0 0,4 -4,0 z M 188,8 l 4,0 0,4 -4,0 z M 212,8 l 4,0 0,4 -4,0 z M 4,12 l 4,0 0,4 -4,0 z M 12,12 l 4,0 0,4 -4,0 z M 16,12 l 4,0 0,4 -4,0 z M 20,12 l 4,0 0,4 -4,0 z M 28,12 l 4,0 0,4 -4,0 z M 40,12 l 4,0 0,4 -4,0 z M 44,12 l 4,0 0,4 -4,0 z M 56,12 l 4,0 0,4 -4,0 z M 64,12 l 4,0 0,4 -4,0 z M 72,12 l 4,0 0,4 -4,0 z M 76,12 l 4,0 0,4 -4,0 z M 80,12 l 4,0 0,4 -4,0 z M 84,12 l 4,0 0,4 -4,0 z M 100,12 l 4,0 0,4 -4,0 z M 104,12 l 4,0 0,4 -4,0 z M 108,12 l 4,0 0,4 -4,0 z M 124,12 l 4,0 0,4 -4,0 z M 148,12 l 4,0 0,4 -4,0 z M 152,12 l 4,0 0,4 -4,0 z M 160,12 l 4,0 0,4 -4,0 z M 176,12 l 4,0 0,4 -4,0 z M 188,12 l 4,0 0,4 -4,0 z M 196,12 l 4,0 0,4 -4,0 z M 200,12 l 4,0 0,4 -4,0 z M 204,12 l 4,0 0,4 -4,0 z M 212,12 l 4,0 0,4 -4,0 z M 4,16 l 4,0 0,4 -4,0 z M 12,16 l 4,0 0,4 -4,0 z M 16,16 l 4,0 0,4 -4,0 z M 20,16 l 4,0 0,4 -4,0 z M 28,16 l 4,0 0,4 -4,0 z M 36,16 l 4,0 0,4 -4,0 z M 52,16 l 4,0 0,4 -4,0 z M 60,16 l 4,0 0,4 -4,0 z M 88,16 l 4,0 0,4 -4,0 z M 92,16 l 4,0 0,4 -4,0 z M 96,16 l 4,0 0,4 -4,0 z M 104,16 l 4,0 0,4 -4,0 z M 108,16 l 4,0 0,4 -4,0 z M 116,16 l 4,0 0,4 -4,0 z M 124,16 l 4,0 0,4 -4,0 z M 128,16 l 4,0 0,4 -4,0 z M 144,16 l 4,0 0,4 -4,0 z M 152,16 l 4,0 0,4 -4,0 z M 160,16 l 4,0 0,4 -4,0 z M 164,16 l 4,0 0,4 -4,0 z M 172,16 l 4,0 0,4 -4,0 z M 180,16 l 4,0 0,4 -4,0 z M 188,16 l 4,0 0,4 -4,0 z M 196,16 l 4,0 0,4 -4,0 z M 200,16 l 4,0 0,4 -4,0 z M 204,16 l 4,0 0,4 -4,0 z M 212,16 l 4,0 0,4 -4,0 z M 4,20 l 4,0 0,4 -4,0 z M 12,20 l 4,0 0,4 -4,0 z M 16,20 l 4,0 0,4 -4,0 z M 20,20 l 4,0 0,4 -4,0 z M 28,20 l 4,0 0,4 -4,0 z M 40,20 l 4,0 0,4 -4,0 z M 44,20 l 4,0 0,4 -4,0 z M 52,20 l 4,0 0,4 -4,0 z M 60,20 l 4,0 0,4 -4,0 z M 64,20 l 4,0 0,4 -4,0 z M 68,20 l 4,0 0,4 -4,0 z M 72,20 l 4,0 0,4 -4,0 z M 76,20 l 4,0 0,4 -4,0 z M 84,20 l 4,0 0,4 -4,0 z M 88,20 l 4,0 0,4 -4,0 z M 100,20 l 4,0 0,4 -4,0 z M 104,20 l 4,0 0,4 -4,0 z M 108,20 l 4,0 0,4 -4,0 z M 112,20 l 4,0 0,4 -4,0 z M 116,20 l 4,0 0,4 -4,0 z M 124,20 l 4,0 0,4 -4,0 z M 140,20 l 4,0 0,4 -4,0 z M 148,20 l 4,0 0,4 -4,0 z M 152,20 l 4,0 0,4 -4,0 z M 156,20 l 4,0 0,4 -4,0 z M 168,20 l 4,0 0,4 -4,0 z M 172,20 l 4,0 0,4 -4,0 z M 188,20 l 4,0 0,4 -4,0 z M 196,20 l 4,0 0,4 -4,0 z M 200,20 l 4,0 0,4 -4,0 z M 204,20 l 4,0 0,4 -4,0 z M 212,20 l 4,0 0,4 -4,0 z M 4,24 l 4,0 0,4 -4,0 z M 28,24 l 4,0 0,4 -4,0 z M 36,24 l 4,0 0,4 -4,0 z M 48,24 l 4,0 0,4 -4,0 z M 56,24 l 4,0 0,4 -4,0 z M 60,24 l 4,0 0,4 -4,0 z M 76,24 l 4,0 0,4 -4,0 z M 80,24 l 4,0 0,4 -4,0 z M 96,24 l 4,0 0,4 -4,0 z M 100,24 l 4,0 0,4 -4,0 z M 116,24 l 4,0 0,4 -4,0 z M 120,24 l 4,0 0,4 -4,0 z M 124,24 l 4,0 0,4 -4,0 z M 136,24 l 4,0 0,4 -4,0 z M 144,24 l 4,0 0,4 -4,0 z M 148,24 l 4,0 0,4 -4,0 z M 152,24 l 4,0 0,4 -4,0 z M 160,24 l 4,0 0,4 -4,0 z M 168,24 l 4,0 0,4 -4,0 z M 172,24 l 4,0 0,4 -4,0 z M 188,24 l 4,0 0,4 -4,0 z M 212,24 l 4,0 0,4 -4,0 z M 4,28 l 4,0 0,4 -4,0 z M 8,28 l 4,0 0,4 -4,0 z M 12,28 l 4,0 0,4 -4,0 z M 16,28 l 4,0 0,4 -4,0 z M 20,28 l 4,0 0,4 -4,0 z M 24,28 l 4,0 0,4 -4,0 z M 28,28 l 4,0 0,4 -4,0 z M 36,28 l 4,0 0,4 -4,0 z M 44,28 l 4,0 0,4 -4,0 z M 52,28 l 4,0 0,4 -4,0 z M 60,28 l 4,0 0,4 -4,0 z M 68,28 l 4,0 0,4 -4,0 z M 76,28 l 4,0 0,4 -4,0 z M 84,28 l 4,0 0,4 -4,0 z M 92,28 l 4,0 0,4 -4,0 z M 100,28 l 4,0 0,4 -4,0 z M 108,28 l 4,0 0,4 -4,0 z M 116,28 l 4,0 0,4 -4,0 z M 124,28 l 4,0 0,4 -4,0 z M 132,28 l 4,0 0,4 -4,0 z M 140,28 l 4,0 0,4 -4,0 z M 148,28 l 4,0 0,4 -4,0 z M 156,28 l 4,0 0,4 -4,0 z M 164,28 l 4,0 0,4 -4,0 z M 172,28 l 4,0 0,4 -4,0 z M 180,28 l 4,0 0,4 -4,0 z M 188,28 l 4,0 0,4 -4,0 z M 192,28 l 4,0 0,4 -4,0 z M 196,28 l 4,0 0,4 -4,0 z M 200,28 l 4,0 0,4 -4,0 z M 204,28 l 4,0 0,4 -4,0 z M 208,28 l 4,0 0,4 -4,0 z M 212,28 l 4,0 0,4 -4,0 z M 44,32 l 4,0 0,4 -4,0 z M 52,32 l 4,0 0,4 -4,0 z M 60,32 l 4,0 0,4 -4,0 z M 72,32 l 4,0 0,4 -4,0 z M 76,32 l 4,0 0,4 -4,0 z M 80,32 l 4,0 0,4 -4,0 z M 88,32 l 4,0 0,4 -4,0 z M 100,32 l 4,0 0,4 -4,0 z M 116,32 l 4,0 0,4 -4,0 z M 120,32 l 4,0 0,4 -4,0 z M 140,32 l 4,0 0,4 -4,0 z M 144,32 l 4,0 0,4 -4,0 z M 148,32 l 4,0 0,4 -4,0 z M 152,32 l 4,0 0,4 -4,0 z M 160,32 l 4,0 0,4 -4,0 z M 164,32 l 4,0 0,4 -4,0 z M 172,32 l 4,0 0,4 -4,0 z M 176,32 l 4,0 0,4 -4,0 z M 4,36 l 4,0 0,4 -4,0 z M 8,36 l 4,0 0,4 -4,0 z M 12,36 l 4,0 0,4 -4,0 z M 16,36 l 4,0 0,4 -4,0 z M 20,36 l 4,0 0,4 -4,0 z M 28,36 l 4,0 0,4 -4,0 z M 32,36 l 4,0 0,4 -4,0 z M 36,36 l 4,0 0,4 -4,0 z M 44,36 l 4,0 0,4 -4,0 z M 48,36 l 4,0 0,4 -4,0 z M 56,36 l 4,0 0,4 -4,0 z M 60,36 l 4,0 0,4 -4,0 z M 64,36 l 4,0 0,4 -4,0 z M 76,36 l 4,0 0,4 -4,0 z M 80,36 l 4,0 0,4 -4,0 z M 88,36 l 4,0 0,4 -4,0 z M 100,36 l 4,0 0,4 -4,0 z M 104,36 l 4,0 0,4 -4,0 z M 108,36 l 4,0 0,4 -4,0 z M 112,36 l 4,0 0,4 -4,0 z M 116,36 l 4,0 0,4 -4,0 z M 124,36 l 4,0 0,4 -4,0 z M 128,36 l 4,0 0,4 -4,0 z M 132,36 l 4,0 0,4 -4,0 z M 136,36 l 4,0 0,4 -4,0 z M 144,36 l 4,0 0,4 -4,0 z M 148,36 l 4,0 0,4 -4,0 z M 156,36 l 4,0 0,4 -4,0 z M 168,36 l 4,0 0,4 -4,0 z M 172,36 l 4,0 0,4 -4,0 z M 180,36 l 4,0 0,4 -4,0 z M 184,36 l 4,0 0,4 -4,0 z M 192,36 l 4,0 0,4 -4,0 z M 200,36 l 4,0 0,4 -4,0 z M 208,36 l 4,0 0,4 -4,0 z M 16,40 l 4,0 0,4 -4,0 z M 20,40 l 4,0 0,4 -4,0 z M 36,40 l 4,0 0,4 -4,0 z M 44,40 l 4,0 0,4 -4,0 z M 48,40 l 4,0 0,4 -4,0 z M 68,40 l 4,0 0,4 -4,0 z M 72,40 l 4,0 0,4 -4,0 z M 76,40 l 4,0 0,4 -4,0 z M 88,40 l 4,0 0,4 -4,0 z M 96,40 l 4,0 0,4 -4,0 z M 100,40 l 4,0 0,4 -4,0 z M 104,40 l 4,0 0,4 -4,0 z M 108,40 l 4,0 0,4 -4,0 z M 136,40 l 4,0 0,4 -4,0 z M 152,40 l 4,0 0,4 -4,0 z M 168,40 l 4,0 0,4 -4,0 z M 172,40 l 4,0 0,4 -4,0 z M 176,40 l 4,0 0,4 -4,0 z M 192,40 l 4,0 0,4 -4,0 z M 212,40 l 4,0 0,4 -4,0 z M 4,44 l 4,0 0,4 -4,0 z M 8,44 l 4,0 0,4 -4,0 z M 24,44 l 4,0 0,4 -4,0 z M 28,44 l 4,0 0,4 -4,0 z M 36,44 l 4,0 0,4 -4,0 z M 40,44 l 4,0 0,4 -4,0 z M 48,44 l 4,0 0,4 -4,0 z M 52,44 l 4,0 0,4 -4,0 z M 56,44 l 4,0 0,4 -4,0 z M 60,44 l 4,0 0,4 -4,0 z M 64,44 l 4,0 0,4 -4,0 z M 68,44 l 4,0 0,4 -4,0 z M 72,44 l 4,0 0,4 -4,0 z M 76,44 l 4,0 0,4 -4,0 z M 80,44 l 4,0 0,4 -4,0 z M 92,44 l 4,0 0,4 -4,0 z M 96,44 l 4,0 0,4 -4,0 z M 100,44 l 4,0 0,4 -4,0 z M 104,44 l 4,0 0,4 -4,0 z M 112,44 l 4,0 0,4 -4,0 z M 116,44 l 4,0 0,4 -4,0 z M 128,44 l 4,0 0,4 -4,0 z M 144,44 l 4,0 0,4 -4,0 z M 152,44 l 4,0 0,4 -4,0 z M 156,44 l 4,0 0,4 -4,0 z M 168,44 l 4,0 0,4 -4,0 z M 176,44 l 4,0 0,4 -4,0 z M 184,44 l 4,0 0,4 -4,0 z M 188,44 l 4,0 0,4 -4,0 z M 192,44 l 4,0 0,4 -4,0 z M 208,44 l 4,0 0,4 -4,0 z M 4,48 l 4,0 0,4 -4,0 z M 8,48 l 4,0 0,4 -4,0 z M 12,48 l 4,0 0,4 -4,0 z M 20,48 l 4,0 0,4 -4,0 z M 24,48 l 4,0 0,4 -4,0 z M 44,48 l 4,0 0,4 -4,0 z M 48,48 l 4,0 0,4 -4,0 z M 68,48 l 4,0 0,4 -4,0 z M 76,48 l 4,0 0,4 -4,0 z M 100,48 l 4,0 0,4 -4,0 z M 104,48 l 4,0 0,4 -4,0 z M 108,48 l 4,0 0,4 -4,0 z M 116,48 l 4,0 0,4 -4,0 z M 120,48 l 4,0 0,4 -4,0 z M 124,48 l 4,0 0,4 -4,0 z M 128,48 l 4,0 0,4 -4,0 z M 132,48 l 4,0 0,4 -4,0 z M 140,48 l 4,0 0,4 -4,0 z M 148,48 l 4,0 0,4 -4,0 z M 176,48 l 4,0 0,4 -4,0 z M 180,48 l 4,0 0,4 -4,0 z M 200,48 l 4,0 0,4 -4,0 z M 204,48 l 4,0 0,4 -4,0 z M 208,48 l 4,0 0,4 -4,0 z M 4,52 l 4,0 0,4 -4,0 z M 20,52 l 4,0 0,4 -4,0 z M 28,52 l 4,0 0,4 -4,0 z M 32,52 l 4,0 0,4 -4,0 z M 44,52 l 4,0 0,4 -4,0 z M 48,52 l 4,0 0,4 -4,0 z M 60,52 l 4,0 0,4 -4,0 z M 88,52 l 4,0 0,4 -4,0 z M 92,52 l 4,0 0,4 -4,0 z M 104,52 l 4,0 0,4 -4,0 z M 112,52 l 4,0 0,4 -4,0 z M 132,52 l 4,0 0,4 -4,0 z M 136,52 l 4,0 0,4 -4,0 z M 152,52 l 4,0 0,4 -4,0 z M 160,52 l 4,0 0,4 -4,0 z M 164,52 l 4,0 0,4 -4,0 z M 168,52 l 4,0 0,4 -4,0 z M 172,52 l 4,0 0,4 -4,0 z M 176,52 l 4,0 0,4 -4,0 z M 196,52 l 4,0 0,4 -4,0 z M 208,52 l 4,0 0,4 -4,0 z M 8,56 l 4,0 0,4 -4,0 z M 12,56 l 4,0 0,4 -4,0 z M 16,56 l 4,0 0,4 -4,0 z M 20,56 l 4,0 0,4 -4,0 z M 24,56 l 4,0 0,4 -4,0 z M 36,56 l 4,0 0,4 -4,0 z M 40,56 l 4,0 0,4 -4,0 z M 48,56 l 4,0 0,4 -4,0 z M 52,56 l 4,0 0,4 -4,0 z M 60,56 l 4,0 0,4 -4,0 z M 64,56 l 4,0 0,4 -4,0 z M 68,56 l 4,0 0,4 -4,0 z M 72,56 l 4,0 0,4 -4,0 z M 84,56 l 4,0 0,4 -4,0 z M 92,56 l 4,0 0,4 -4,0 z M 104,56 l 4,0 0,4 -4,0 z M 116,56 l 4,0 0,4 -4,0 z M 120,56 l 4,0 0,4 -4,0 z M 124,56 l 4,0 0,4 -4,0 z M 128,56 l 4,0 0,4 -4,0 z M 140,56 l 4,0 0,4 -4,0 z M 148,56 l 4,0 0,4 -4,0 z M 156,56 l 4,0 0,4 -4,0 z M 168,56 l 4,0 0,4 -4,0 z M 176,56 l 4,0 0,4 -4,0 z M 180,56 l 4,0 0,4 -4,0 z M 184,56 l 4,0 0,4 -4,0 z M 188,56 l 4,0 0,4 -4,0 z M 196,56 l 4,0 0,4 -4,0 z M 204,56 l 4,0 0,4 -4,0 z M 4,60 l 4,0 0,4 -4,0 z M 8,60 l 4,0 0,4 -4,0 z M 24,60 l 4,0 0,4 -4,0 z M 28,60 l 4,0 0,4 -4,0 z M 36,60 l 4,0 0,4 -4,0 z M 44,60 l 4,0 0,4 -4,0 z M 52,60 l 4,0 0,4 -4,0 z M 72,60 l 4,0 0,4 -4,0 z M 80,60 l 4,0 0,4 -4,0 z M 96,60 l 4,0 0,4 -4,0 z M 100,60 l 4,0 0,4 -4,0 z M 108,60 l 4,0 0,4 -4,0 z M 112,60 l 4,0 0,4 -4,0 z M 116,60 l 4,0 0,4 -4,0 z M 120,60 l 4,0 0,4 -4,0 z M 124,60 l 4,0 0,4 -4,0 z M 136,60 l 4,0 0,4 -4,0 z M 144,60 l 4,0 0,4 -4,0 z M 148,60 l 4,0 0,4 -4,0 z M 164,60 l 4,0 0,4 -4,0 z M 168,60 l 4,0 0,4 -4,0 z M 172,60 l 4,0 0,4 -4,0 z M 180,60 l 4,0 0,4 -4,0 z M 184,60 l 4,0 0,4 -4,0 z M 196,60 l 4,0 0,4 -4,0 z M 204,60 l 4,0 0,4 -4,0 z M 212,60 l 4,0 0,4 -4,0 z M 20,64 l 4,0 0,4 -4,0 z M 24,64 l 4,0 0,4 -4,0 z M 36,64 l 4,0 0,4 -4,0 z M 40,64 l 4,0 0,4 -4,0 z M 56,64 l 4,0 0,4 -4,0 z M 64,64 l 4,0 0,4 -4,0 z M 68,64 l 4,0 0,4 -4,0 z M 108,64 l 4,0 0,4 -4,0 z M 112,64 l 4,0 0,4 -4,0 z M 120,64 l 4,0 0,4 -4,0 z M 128,64 l 4,0 0,4 -4,0 z M 136,64 l 4,0 0,4 -4,0 z M 144,64 l 4,0 0,4 -4,0 z M 148,64 l 4,0 0,4 -4,0 z M 160,64 l 4,0 0,4 -4,0 z M 164,64 l 4,0 0,4 -4,0 z M 172,64 l 4,0 0,4 -4,0 z M 208,64 l 4,0 0,4 -4,0 z M 8,68 l 4,0 0,4 -4,0 z M 16,68 l 4,0 0,4 -4,0 z M 20,68 l 4,0 0,4 -4,0 z M 24,68 l 4,0 0,4 -4,0 z M 28,68 l 4,0 0,4 -4,0 z M 32,68 l 4,0 0,4 -4,0 z M 36,68 l 4,0 0,4 -4,0 z M 40,68 l 4,0 0,4 -4,0 z M 52,68 l 4,0 0,4 -4,0 z M 72,68 l 4,0 0,4 -4,0 z M 92,68 l 4,0 0,4 -4,0 z M 96,68 l 4,0 0,4 -4,0 z M 100,68 l 4,0 0,4 -4,0 z M 116,68 l 4,0 0,4 -4,0 z M 120,68 l 4,0 0,4 -4,0 z M 124,68 l 4,0 0,4 -4,0 z M 132,68 l 4,0 0,4 -4,0 z M 148,68 l 4,0 0,4 -4,0 z M 152,68 l 4,0 0,4 -4,0 z M 172,68 l 4,0 0,4 -4,0 z M 180,68 l 4,0 0,4 -4,0 z M 188,68 l 4,0 0,4 -4,0 z M 192,68 l 4,0 0,4 -4,0 z M 196,68 l 4,0 0,4 -4,0 z M 204,68 l 4,0 0,4 -4,0 z M 208,68 l 4,0 0,4 -4,0 z M 4,72 l 4,0 0,4 -4,0 z M 16,72 l 4,0 0,4 -4,0 z M 20,72 l 4,0 0,4 -4,0 z M 36,72 l 4,0 0,4 -4,0 z M 40,72 l 4,0 0,4 -4,0 z M 48,72 l 4,0 0,4 -4,0 z M 52,72 l 4,0 0,4 -4,0 z M 56,72 l 4,0 0,4 -4,0 z M 64,72 l 4,0 0,4 -4,0 z M 76,72 l 4,0 0,4 -4,0 z M 80,72 l 4,0 0,4 -4,0 z M 84,72 l 4,0 0,4 -4,0 z M 100,72 l 4,0 0,4 -4,0 z M 104,72 l 4,0 0,4 -4,0 z M 108,72 l 4,0 0,4 -4,0 z M 112,72 l 4,0 0,4 -4,0 z M 116,72 l 4,0 0,4 -4,0 z M 120,72 l 4,0 0,4 -4,0 z M 124,72 l 4,0 0,4 -4,0 z M 136,72 l 4,0 0,4 -4,0 z M 168,72 l 4,0 0,4 -4,0 z M 172,72 l 4,0 0,4 -4,0 z M 176,72 l 4,0 0,4 -4,0 z M 192,72 l 4,0 0,4 -4,0 z M 212,72 l 4,0 0,4 -4,0 z M 4,76 l 4,0 0,4 -4,0 z M 16,76 l 4,0 0,4 -4,0 z M 28,76 l 4,0 0,4 -4,0 z M 48,76 l 4,0 0,4 -4,0 z M 56,76 l 4,0 0,4 -4,0 z M 60,76 l 4,0 0,4 -4,0 z M 72,76 l 4,0 0,4 -4,0 z M 84,76 l 4,0 0,4 -4,0 z M 92,76 l 4,0 0,4 -4,0 z M 96,76 l 4,0 0,4 -4,0 z M 104,76 l 4,0 0,4 -4,0 z M 112,76 l 4,0 0,4 -4,0 z M 120,76 l 4,0 0,4 -4,0 z M 124,76 l 4,0 0,4 -4,0 z M 128,76 l 4,0 0,4 -4,0 z M 132,76 l 4,0 0,4 -4,0 z M 144,76 l 4,0 0,4 -4,0 z M 152,76 l 4,0 0,4 -4,0 z M 156,76 l 4,0 0,4 -4,0 z M 164,76 l 4,0 0,4 -4,0 z M 168,76 l 4,0 0,4 -4,0 z M 176,76 l 4,0 0,4 -4,0 z M 180,76 l 4,0 0,4 -4,0 z M 184,76 l 4,0 0,4 -4,0 z M 188,76 l 4,0 0,4 -4,0 z M 192,76 l 4,0 0,4 -4,0 z M 4,80 l 4,0 0,4 -4,0 z M 8,80 l 4,0 0,4 -4,0 z M 12,80 l 4,0 0,4 -4,0 z M 16,80 l 4,0 0,4 -4,0 z M 24,80 l 4,0 0,4 -4,0 z M 36,80 l 4,0 0,4 -4,0 z M 52,80 l 4,0 0,4 -4,0 z M 56,80 l 4,0 0,4 -4,0 z M 64,80 l 4,0 0,4 -4,0 z M 72,80 l 4,0 0,4 -4,0 z M 76,80 l 4,0 0,4 -4,0 z M 80,80 l 4,0 0,4 -4,0 z M 84,80 l 4,0 0,4 -4,0 z M 100,80 l 4,0 0,4 -4,0 z M 104,80 l 4,0 0,4 -4,0 z M 108,80 l 4,0 0,4 -4,0 z M 116,80 l 4,0 0,4 -4,0 z M 124,80 l 4,0 0,4 -4,0 z M 132,80 l 4,0 0,4 -4,0 z M 136,80 l 4,0 0,4 -4,0 z M 148,80 l 4,0 0,4 -4,0 z M 152,80 l 4,0 0,4 -4,0 z M 164,80 l 4,0 0,4 -4,0 z M 172,80 l 4,0 0,4 -4,0 z M 176,80 l 4,0 0,4 -4,0 z M 180,80 l 4,0 0,4 -4,0 z M 196,80 l 4,0 0,4 -4,0 z M 204,80 l 4,0 0,4 -4,0 z M 208,80 l 4,0 0,4 -4,0 z M 12,84 l 4,0 0,4 -4,0 z M 16,84 l 4,0 0,4 -4,0 z M 24,84 l 4,0 0,4 -4,0 z M 28,84 l 4,0 0,4 -4,0 z M 36,84 l 4,0 0,4 -4,0 z M 40,84 l 4,0 0,4 -4,0 z M 44,84 l 4,0 0,4 -4,0 z M 48,84 l 4,0 0,4 -4,0 z M 52,84 l 4,0 0,4 -4,0 z M 64,84 l 4,0 0,4 -4,0 z M 76,84 l 4,0 0,4 -4,0 z M 80,84 l 4,0 0,4 -4,0 z M 84,84 l 4,0 0,4 -4,0 z M 88,84 l 4,0 0,4 -4,0 z M 92,84 l 4,0 0,4 -4,0 z M 96,84 l 4,0 0,4 -4,0 z M 100,84 l 4,0 0,4 -4,0 z M 104,84 l 4,0 0,4 -4,0 z M 112,84 l 4,0 0,4 -4,0 z M 120,84 l 4,0 0,4 -4,0 z M 124,84 l 4,0 0,4 -4,0 z M 128,84 l 4,0 0,4 -4,0 z M 144,84 l 4,0 0,4 -4,0 z M 160,84 l 4,0 0,4 -4,0 z M 164,84 l 4,0 0,4 -4,0 z M 172,84 l 4,0 0,4 -4,0 z M 176,84 l 4,0 0,4 -4,0 z M 180,84 l 4,0 0,4 -4,0 z M 184,84 l 4,0 0,4 -4,0 z M 4,88 l 4,0 0,4 -4,0 z M 8,88 l 4,0 0,4 -4,0 z M 12,88 l 4,0 0,4 -4,0 z M 20,88 l 4,0 0,4 -4,0 z M 24,88 l 4,0 0,4 -4,0 z M 40,88 l 4,0 0,4 -4,0 z M 48,88 l 4,0 0,4 -4,0 z M 52,88 l 4,0 0,4 -4,0 z M 56,88 l 4,0 0,4 -4,0 z M 68,88 l 4,0 0,4 -4,0 z M 76,88 l 4,0 0,4 -4,0 z M 84,88 l 4,0 0,4 -4,0 z M 92,88 l 4,0 0,4 -4,0 z M 96,88 l 4,0 0,4 -4,0 z M 100,88 l 4,0 0,4 -4,0 z M 104,88 l 4,0 0,4 -4,0 z M 116,88 l 4,0 0,4 -4,0 z M 124,88 l 4,0 0,4 -4,0 z M 128,88 l 4,0 0,4 -4,0 z M 132,88 l 4,0 0,4 -4,0 z M 140,88 l 4,0 0,4 -4,0 z M 148,88 l 4,0 0,4 -4,0 z M 152,88 l 4,0 0,4 -4,0 z M 156,88 l 4,0 0,4 -4,0 z M 160,88 l 4,0 0,4 -4,0 z M 168,88 l 4,0 0,4 -4,0 z M 172,88 l 4,0 0,4 -4,0 z M 184,88 l 4,0 0,4 -4,0 z M 196,88 l 4,0 0,4 -4,0 z M 200,88 l 4,0 0,4 -4,0 z M 204,88 l 4,0 0,4 -4,0 z M 208,88 l 4,0 0,4 -4,0 z M 12,92 l 4,0 0,4 -4,0 z M 28,92 l 4,0 0,4 -4,0 z M 32,92 l 4,0 0,4 -4,0 z M 36,92 l 4,0 0,4 -4,0 z M 44,92 l 4,0 0,4 -4,0 z M 48,92 l 4,0 0,4 -4,0 z M 56,92 l 4,0 0,4 -4,0 z M 60,92 l 4,0 0,4 -4,0 z M 76,92 l 4,0 0,4 -4,0 z M 80,92 l 4,0 0,4 -4,0 z M 88,92 l 4,0 0,4 -4,0 z M 96,92 l 4,0 0,4 -4,0 z M 108,92 l 4,0 0,4 -4,0 z M 112,92 l 4,0 0,4 -4,0 z M 116,92 l 4,0 0,4 -4,0 z M 124,92 l 4,0 0,4 -4,0 z M 132,92 l 4,0 0,4 -4,0 z M 136,92 l 4,0 0,4 -4,0 z M 140,92 l 4,0 0,4 -4,0 z M 144,92 l 4,0 0,4 -4,0 z M 148,92 l 4,0 0,4 -4,0 z M 152,92 l 4,0 0,4 -4,0 z M 156,92 l 4,0 0,4 -4,0 z M 160,92 l 4,0 0,4 -4,0 z M 164,92 l 4,0 0,4 -4,0 z M 168,92 l 4,0 0,4 -4,0 z M 184,92 l 4,0 0,4 -4,0 z M 200,92 l 4,0 0,4 -4,0 z M 204,92 l 4,0 0,4 -4,0 z M 208,92 l 4,0 0,4 -4,0 z M 4,96 l 4,0 0,4 -4,0 z M 8,96 l 4,0 0,4 -4,0 z M 20,96 l 4,0 0,4 -4,0 z M 24,96 l 4,0 0,4 -4,0 z M 36,96 l 4,0 0,4 -4,0 z M 40,96 l 4,0 0,4 -4,0 z M 44,96 l 4,0 0,4 -4,0 z M 48,96 l 4,0 0,4 -4,0 z M 60,96 l 4,0 0,4 -4,0 z M 68,96 l 4,0 0,4 -4,0 z M 72,96 l 4,0 0,4 -4,0 z M 76,96 l 4,0 0,4 -4,0 z M 88,96 l 4,0 0,4 -4,0 z M 104,96 l 4,0 0,4 -4,0 z M 108,96 l 4,0 0,4 -4,0 z M 112,96 l 4,0 0,4 -4,0 z M 120,96 l 4,0 0,4 -4,0 z M 124,96 l 4,0 0,4 -4,0 z M 132,96 l 4,0 0,4 -4,0 z M 148,96 l 4,0 0,4 -4,0 z M 152,96 l 4,0 0,4 -4,0 z M 156,96 l 4,0 0,4 -4,0 z M 164,96 l 4,0 0,4 -4,0 z M 172,96 l 4,0 0,4 -4,0 z M 188,96 l 4,0 0,4 -4,0 z M 4,100 l 4,0 0,4 -4,0 z M 20,100 l 4,0 0,4 -4,0 z M 24,100 l 4,0 0,4 -4,0 z M 28,100 l 4,0 0,4 -4,0 z M 32,100 l 4,0 0,4 -4,0 z M 36,100 l 4,0 0,4 -4,0 z M 56,100 l 4,0 0,4 -4,0 z M 60,100 l 4,0 0,4 -4,0 z M 64,100 l 4,0 0,4 -4,0 z M 76,100 l 4,0 0,4 -4,0 z M 80,100 l 4,0 0,4 -4,0 z M 88,100 l 4,0 0,4 -4,0 z M 96,100 l 4,0 0,4 -4,0 z M 100,100 l 4,0 0,4 -4,0 z M 104,100 l 4,0 0,4 -4,0 z M 108,100 l 4,0 0,4 -4,0 z M 112,100 l 4,0 0,4 -4,0 z M 116,100 l 4,0 0,4 -4,0 z M 120,100 l 4,0 0,4 -4,0 z M 124,100 l 4,0 0,4 -4,0 z M 132,100 l 4,0 0,4 -4,0 z M 152,100 l 4,0 0,4 -4,0 z M 160,100 l 4,0 0,4 -4,0 z M 168,100 l 4,0 0,4 -4,0 z M 180,100 l 4,0 0,4 -4,0 z M 184,100 l 4,0 0,4 -4,0 z M 188,100 l 4,0 0,4 -4,0 z M 192,100 l 4,0 0,4 -4,0 z M 196,100 l 4,0 0,4 -4,0 z M 204,100 l 4,0 0,4 -4,0 z M 212,100 l 4,0 0,4 -4,0 z M 4,104 l 4,0 0,4 -4,0 z M 20,104 l 4,0 0,4 -4,0 z M 36,104 l 4,0 0,4 -4,0 z M 40,104 l 4,0 0,4 -4,0 z M 44,104 l 4,0 0,4 -4,0 z M 68,104 l 4,0 0,4 -4,0 z M 72,104 l 4,0 0,4 -4,0 z M 76,104 l 4,0 0,4 -4,0 z M 88,104 l 4,0 0,4 -4,0 z M 100,104 l 4,0 0,4 -4,0 z M 116,104 l 4,0 0,4 -4,0 z M 136,104 l 4,0 0,4 -4,0 z M 140,104 l 4,0 0,4 -4,0 z M 148,104 l 4,0 0,4 -4,0 z M 160,104 l 4,0 0,4 -4,0 z M 172,104 l 4,0 0,4 -4,0 z M 176,104 l 4,0 0,4 -4,0 z M 180,104 l 4,0 0,4 -4,0 z M 196,104 l 4,0 0,4 -4,0 z M 212,104 l 4,0 0,4 -4,0 z M 8,108 l 4,0 0,4 -4,0 z M 12,108 l 4,0 0,4 -4,0 z M 20,108 l 4,0 0,4 -4,0 z M 28,108 l 4,0 0,4 -4,0 z M 36,108 l 4,0 0,4 -4,0 z M 48,108 l 4,0 0,4 -4,0 z M 52,108 l 4,0 0,4 -4,0 z M 60,108 l 4,0 0,4 -4,0 z M 64,108 l 4,0 0,4 -4,0 z M 68,108 l 4,0 0,4 -4,0 z M 80,108 l 4,0 0,4 -4,0 z M 96,108 l 4,0 0,4 -4,0 z M 100,108 l 4,0 0,4 -4,0 z M 108,108 l 4,0 0,4 -4,0 z M 116,108 l 4,0 0,4 -4,0 z M 128,108 l 4,0 0,4 -4,0 z M 132,108 l 4,0 0,4 -4,0 z M 136,108 l 4,0 0,4 -4,0 z M 156,108 l 4,0 0,4 -4,0 z M 164,108 l 4,0 0,4 -4,0 z M 168,108 l 4,0 0,4 -4,0 z M 180,108 l 4,0 0,4 -4,0 z M 188,108 l 4,0 0,4 -4,0 z M 196,108 l 4,0 0,4 -4,0 z M 200,108 l 4,0 0,4 -4,0 z M 16,112 l 4,0 0,4 -4,0 z M 20,112 l 4,0 0,4 -4,0 z M 36,112 l 4,0 0,4 -4,0 z M 44,112 l 4,0 0,4 -4,0 z M 52,112 l 4,0 0,4 -4,0 z M 56,112 l 4,0 0,4 -4,0 z M 68,112 l 4,0 0,4 -4,0 z M 72,112 l 4,0 0,4 -4,0 z M 76,112 l 4,0 0,4 -4,0 z M 88,112 l 4,0 0,4 -4,0 z M 96,112 l 4,0 0,4 -4,0 z M 100,112 l 4,0 0,4 -4,0 z M 116,112 l 4,0 0,4 -4,0 z M 124,112 l 4,0 0,4 -4,0 z M 132,112 l 4,0 0,4 -4,0 z M 136,112 l 4,0 0,4 -4,0 z M 144,112 l 4,0 0,4 -4,0 z M 152,112 l 4,0 0,4 -4,0 z M 160,112 l 4,0 0,4 -4,0 z M 164,112 l 4,0 0,4 -4,0 z M 168,112 l 4,0 0,4 -4,0 z M 180,112 l 4,0 0,4 -4,0 z M 196,112 l 4,0 0,4 -4,0 z M 208,112 l 4,0 0,4 -4,0 z M 16,116 l 4,0 0,4 -4,0 z M 20,116 l 4,0 0,4 -4,0 z M 24,116 l 4,0 0,4 -4,0 z M 28,116 l 4,0 0,4 -4,0 z M 32,116 l 4,0 0,4 -4,0 z M 36,116 l 4,0 0,4 -4,0 z M 48,116 l 4,0 0,4 -4,0 z M 60,116 l 4,0 0,4 -4,0 z M 64,116 l 4,0 0,4 -4,0 z M 88,116 l 4,0 0,4 -4,0 z M 92,116 l 4,0 0,4 -4,0 z M 96,116 l 4,0 0,4 -4,0 z M 100,116 l 4,0 0,4 -4,0 z M 104,116 l 4,0 0,4 -4,0 z M 108,116 l 4,0 0,4 -4,0 z M 112,116 l 4,0 0,4 -4,0 z M 116,116 l 4,0 0,4 -4,0 z M 120,116 l 4,0 0,4 -4,0 z M 124,116 l 4,0 0,4 -4,0 z M 128,116 l 4,0 0,4 -4,0 z M 136,116 l 4,0 0,4 -4,0 z M 164,116 l 4,0 0,4 -4,0 z M 172,116 l 4,0 0,4 -4,0 z M 176,116 l 4,0 0,4 -4,0 z M 180,116 l 4,0 0,4 -4,0 z M 184,116 l 4,0 0,4 -4,0 z M 188,116 l 4,0 0,4 -4,0 z M 192,116 l 4,0 0,4 -4,0 z M 196,116 l 4,0 0,4 -4,0 z M 200,116 l 4,0 0,4 -4,0 z M 12,120 l 4,0 0,4 -4,0 z M 20,120 l 4,0 0,4 -4,0 z M 32,120 l 4,0 0,4 -4,0 z M 40,120 l 4,0 0,4 -4,0 z M 64,120 l 4,0 0,4 -4,0 z M 76,120 l 4,0 0,4 -4,0 z M 80,120 l 4,0 0,4 -4,0 z M 84,120 l 4,0 0,4 -4,0 z M 92,120 l 4,0 0,4 -4,0 z M 96,120 l 4,0 0,4 -4,0 z M 112,120 l 4,0 0,4 -4,0 z M 116,120 l 4,0 0,4 -4,0 z M 124,120 l 4,0 0,4 -4,0 z M 140,120 l 4,0 0,4 -4,0 z M 144,120 l 4,0 0,4 -4,0 z M 148,120 l 4,0 0,4 -4,0 z M 156,120 l 4,0 0,4 -4,0 z M 180,120 l 4,0 0,4 -4,0 z M 184,120 l 4,0 0,4 -4,0 z M 192,120 l 4,0 0,4 -4,0 z M 196,120 l 4,0 0,4 -4,0 z M 200,120 l 4,0 0,4 -4,0 z M 204,120 l 4,0 0,4 -4,0 z M 212,120 l 4,0 0,4 -4,0 z M 4,124 l 4,0 0,4 -4,0 z M 8,124 l 4,0 0,4 -4,0 z M 16,124 l 4,0 0,4 -4,0 z M 20,124 l 4,0 0,4 -4,0 z M 28,124 l 4,0 0,4 -4,0 z M 32,124 l 4,0 0,4 -4,0 z M 36,124 l 4,0 0,4 -4,0 z M 44,124 l 4,0 0,4 -4,0 z M 72,124 l 4,0 0,4 -4,0 z M 80,124 l 4,0 0,4 -4,0 z M 88,124 l 4,0 0,4 -4,0 z M 104,124 l 4,0 0,4 -4,0 z M 108,124 l 4,0 0,4 -4,0 z M 136,124 l 4,0 0,4 -4,0 z M 144,124 l 4,0 0,4 -4,0 z M 168,124 l 4,0 0,4 -4,0 z M 176,124 l 4,0 0,4 -4,0 z M 192,124 l 4,0 0,4 -4,0 z M 200,124 l 4,0 0,4 -4,0 z M 204,124 l 4,0 0,4 -4,0 z M 208,124 l 4,0 0,4 -4,0 z M 212,124 l 4,0 0,4 -4,0 z M 4,128 l 4,0 0,4 -4,0 z M 8,128 l 4,0 0,4 -4,0 z M 16,128 l 4,0 0,4 -4,0 z M 24,128 l 4,0 0,4 -4,0 z M 32,128 l 4,0 0,4 -4,0 z M 40,128 l 4,0 0,4 -4,0 z M 44,128 l 4,0 0,4 -4,0 z M 56,128 l 4,0 0,4 -4,0 z M 68,128 l 4,0 0,4 -4,0 z M 80,128 l 4,0 0,4 -4,0 z M 84,128 l 4,0 0,4 -4,0 z M 124,128 l 4,0 0,4 -4,0 z M 128,128 l 4,0 0,4 -4,0 z M 132,128 l 4,0 0,4 -4,0 z M 140,128 l 4,0 0,4 -4,0 z M 148,128 l 4,0 0,4 -4,0 z M 160,128 l 4,0 0,4 -4,0 z M 164,128 l 4,0 0,4 -4,0 z M 168,128 l 4,0 0,4 -4,0 z M 184,128 l 4,0 0,4 -4,0 z M 188,128 l 4,0 0,4 -4,0 z M 192,128 l 4,0 0,4 -4,0 z M 196,128 l 4,0 0,4 -4,0 z M 200,128 l 4,0 0,4 -4,0 z M 208,128 l 4,0 0,4 -4,0 z M 4,132 l 4,0 0,4 -4,0 z M 12,132 l 4,0 0,4 -4,0 z M 16,132 l 4,0 0,4 -4,0 z M 28,132 l 4,0 0,4 -4,0 z M 32,132 l 4,0 0,4 -4,0 z M 40,132 l 4,0 0,4 -4,0 z M 52,132 l 4,0 0,4 -4,0 z M 72,132 l 4,0 0,4 -4,0 z M 88,132 l 4,0 0,4 -4,0 z M 108,132 l 4,0 0,4 -4,0 z M 112,132 l 4,0 0,4 -4,0 z M 116,132 l 4,0 0,4 -4,0 z M 120,132 l 4,0 0,4 -4,0 z M 124,132 l 4,0 0,4 -4,0 z M 132,132 l 4,0 0,4 -4,0 z M 136,132 l 4,0 0,4 -4,0 z M 168,132 l 4,0 0,4 -4,0 z M 176,132 l 4,0 0,4 -4,0 z M 188,132 l 4,0 0,4 -4,0 z M 192,132 l 4,0 0,4 -4,0 z M 200,132 l 4,0 0,4 -4,0 z M 204,132 l 4,0 0,4 -4,0 z M 212,132 l 4,0 0,4 -4,0 z M 16,136 l 4,0 0,4 -4,0 z M 24,136 l 4,0 0,4 -4,0 z M 44,136 l 4,0 0,4 -4,0 z M 56,136 l 4,0 0,4 -4,0 z M 64,136 l 4,0 0,4 -4,0 z M 76,136 l 4,0 0,4 -4,0 z M 80,136 l 4,0 0,4 -4,0 z M 84,136 l 4,0 0,4 -4,0 z M 88,136 l 4,0 0,4 -4,0 z M 100,136 l 4,0 0,4 -4,0 z M 104,136 l 4,0 0,4 -4,0 z M 108,136 l 4,0 0,4 -4,0 z M 120,136 l 4,0 0,4 -4,0 z M 128,136 l 4,0 0,4 -4,0 z M 136,136 l 4,0 0,4 -4,0 z M 140,136 l 4,0 0,4 -4,0 z M 144,136 l 4,0 0,4 -4,0 z M 152,136 l 4,0 0,4 -4,0 z M 160,136 l 4,0 0,4 -4,0 z M 168,136 l 4,0 0,4 -4,0 z M 172,136 l 4,0 0,4 -4,0 z M 180,136 l 4,0 0,4 -4,0 z M 184,136 l 4,0 0,4 -4,0 z M 192,136 l 4,0 0,4 -4,0 z M 196,136 l 4,0 0,4 -4,0 z M 200,136 l 4,0 0,4 -4,0 z M 204,136 l 4,0 0,4 -4,0 z M 212,136 l 4,0 0,4 -4,0 z M 8,140 l 4,0 0,4 -4,0 z M 12,140 l 4,0 0,4 -4,0 z M 16,140 l 4,0 0,4 -4,0 z M 24,140 l 4,0 0,4 -4,0 z M 28,140 l 4,0 0,4 -4,0 z M 32,140 l 4,0 0,4 -4,0 z M 40,140 l 4,0 0,4 -4,0 z M 44,140 l 4,0 0,4 -4,0 z M 56,140 l 4,0 0,4 -4,0 z M 72,140 l 4,0 0,4 -4,0 z M 76,140 l 4,0 0,4 -4,0 z M 84,140 l 4,0 0,4 -4,0 z M 92,140 l 4,0 0,4 -4,0 z M 96,140 l 4,0 0,4 -4,0 z M 112,140 l 4,0 0,4 -4,0 z M 116,140 l 4,0 0,4 -4,0 z M 120,140 l 4,0 0,4 -4,0 z M 124,140 l 4,0 0,4 -4,0 z M 132,140 l 4,0 0,4 -4,0 z M 136,140 l 4,0 0,4 -4,0 z M 140,140 l 4,0 0,4 -4,0 z M 144,140 l 4,0 0,4 -4,0 z M 152,140 l 4,0 0,4 -4,0 z M 156,140 l 4,0 0,4 -4,0 z M 160,140 l 4,0 0,4 -4,0 z M 164,140 l 4,0 0,4 -4,0 z M 188,140 l 4,0 0,4 -4,0 z M 200,140 l 4,0 0,4 -4,0 z M 4,144 l 4,0 0,4 -4,0 z M 8,144 l 4,0 0,4 -4,0 z M 12,144 l 4,0 0,4 -4,0 z M 16,144 l 4,0 0,4 -4,0 z M 20,144 l 4,0 0,4 -4,0 z M 24,144 l 4,0 0,4 -4,0 z M 32,144 l 4,0 0,4 -4,0 z M 56,144 l 4,0 0,4 -4,0 z M 64,144 l 4,0 0,4 -4,0 z M 72,144 l 4,0 0,4 -4,0 z M 76,144 l 4,0 0,4 -4,0 z M 80,144 l 4,0 0,4 -4,0 z M 84,144 l 4,0 0,4 -4,0 z M 104,144 l 4,0 0,4 -4,0 z M 108,144 l 4,0 0,4 -4,0 z M 116,144 l 4,0 0,4 -4,0 z M 124,144 l 4,0 0,4 -4,0 z M 136,144 l 4,0 0,4 -4,0 z M 148,144 l 4,0 0,4 -4,0 z M 152,144 l 4,0 0,4 -4,0 z M 160,144 l 4,0 0,4 -4,0 z M 172,144 l 4,0 0,4 -4,0 z M 176,144 l 4,0 0,4 -4,0 z M 180,144 l 4,0 0,4 -4,0 z M 184,144 l 4,0 0,4 -4,0 z M 188,144 l 4,0 0,4 -4,0 z M 196,144 l 4,0 0,4 -4,0 z M 204,144 l 4,0 0,4 -4,0 z M 208,144 l 4,0 0,4 -4,0 z M 24,148 l 4,0 0,4 -4,0 z M 28,148 l 4,0 0,4 -4,0 z M 36,148 l 4,0 0,4 -4,0 z M 44,148 l 4,0 0,4 -4,0 z M 48,148 l 4,0 0,4 -4,0 z M 60,148 l 4,0 0,4 -4,0 z M 64,148 l 4,0 0,4 -4,0 z M 68,148 l 4,0 0,4 -4,0 z M 72,148 l 4,0 0,4 -4,0 z M 80,148 l 4,0 0,4 -4,0 z M 84,148 l 4,0 0,4 -4,0 z M 88,148 l 4,0 0,4 -4,0 z M 92,148 l 4,0 0,4 -4,0 z M 96,148 l 4,0 0,4 -4,0 z M 100,148 l 4,0 0,4 -4,0 z M 104,148 l 4,0 0,4 -4,0 z M 108,148 l 4,0 0,4 -4,0 z M 112,148 l 4,0 0,4 -4,0 z M 124,148 l 4,0 0,4 -4,0 z M 128,148 l 4,0 0,4 -4,0 z M 136,148 l 4,0 0,4 -4,0 z M 144,148 l 4,0 0,4 -4,0 z M 164,148 l 4,0 0,4 -4,0 z M 172,148 l 4,0 0,4 -4,0 z M 180,148 l 4,0 0,4 -4,0 z M 200,148 l 4,0 0,4 -4,0 z M 208,148 l 4,0 0,4 -4,0 z M 212,148 l 4,0 0,4 -4,0 z M 12,152 l 4,0 0,4 -4,0 z M 20,152 l 4,0 0,4 -4,0 z M 24,152 l 4,0 0,4 -4,0 z M 32,152 l 4,0 0,4 -4,0 z M 40,152 l 4,0 0,4 -4,0 z M 56,152 l 4,0 0,4 -4,0 z M 60,152 l 4,0 0,4 -4,0 z M 64,152 l 4,0 0,4 -4,0 z M 68,152 l 4,0 0,4 -4,0 z M 72,152 l 4,0 0,4 -4,0 z M 76,152 l 4,0 0,4 -4,0 z M 84,152 l 4,0 0,4 -4,0 z M 92,152 l 4,0 0,4 -4,0 z M 100,152 l 4,0 0,4 -4,0 z M 104,152 l 4,0 0,4 -4,0 z M 116,152 l 4,0 0,4 -4,0 z M 140,152 l 4,0 0,4 -4,0 z M 148,152 l 4,0 0,4 -4,0 z M 152,152 l 4,0 0,4 -4,0 z M 156,152 l 4,0 0,4 -4,0 z M 160,152 l 4,0 0,4 -4,0 z M 168,152 l 4,0 0,4 -4,0 z M 176,152 l 4,0 0,4 -4,0 z M 180,152 l 4,0 0,4 -4,0 z M 192,152 l 4,0 0,4 -4,0 z M 196,152 l 4,0 0,4 -4,0 z M 200,152 l 4,0 0,4 -4,0 z M 208,152 l 4,0 0,4 -4,0 z M 4,156 l 4,0 0,4 -4,0 z M 12,156 l 4,0 0,4 -4,0 z M 20,156 l 4,0 0,4 -4,0 z M 24,156 l 4,0 0,4 -4,0 z M 28,156 l 4,0 0,4 -4,0 z M 32,156 l 4,0 0,4 -4,0 z M 44,156 l 4,0 0,4 -4,0 z M 56,156 l 4,0 0,4 -4,0 z M 60,156 l 4,0 0,4 -4,0 z M 64,156 l 4,0 0,4 -4,0 z M 76,156 l 4,0 0,4 -4,0 z M 92,156 l 4,0 0,4 -4,0 z M 100,156 l 4,0 0,4 -4,0 z M 108,156 l 4,0 0,4 -4,0 z M 120,156 l 4,0 0,4 -4,0 z M 128,156 l 4,0 0,4 -4,0 z M 136,156 l 4,0 0,4 -4,0 z M 140,156 l 4,0 0,4 -4,0 z M 144,156 l 4,0 0,4 -4,0 z M 148,156 l 4,0 0,4 -4,0 z M 152,156 l 4,0 0,4 -4,0 z M 160,156 l 4,0 0,4 -4,0 z M 172,156 l 4,0 0,4 -4,0 z M 176,156 l 4,0 0,4 -4,0 z M 180,156 l 4,0 0,4 -4,0 z M 184,156 l 4,0 0,4 -4,0 z M 200,156 l 4,0 0,4 -4,0 z M 204,156 l 4,0 0,4 -4,0 z M 212,156 l 4,0 0,4 -4,0 z M 4,160 l 4,0 0,4 -4,0 z M 8,160 l 4,0 0,4 -4,0 z M 12,160 l 4,0 0,4 -4,0 z M 16,160 l 4,0 0,4 -4,0 z M 24,160 l 4,0 0,4 -4,0 z M 32,160 l 4,0 0,4 -4,0 z M 36,160 l 4,0 0,4 -4,0 z M 40,160 l 4,0 0,4 -4,0 z M 48,160 l 4,0 0,4 -4,0 z M 52,160 l 4,0 0,4 -4,0 z M 60,160 l 4,0 0,4 -4,0 z M 72,160 l 4,0 0,4 -4,0 z M 76,160 l 4,0 0,4 -4,0 z M 80,160 l 4,0 0,4 -4,0 z M 84,160 l 4,0 0,4 -4,0 z M 88,160 l 4,0 0,4 -4,0 z M 92,160 l 4,0 0,4 -4,0 z M 96,160 l 4,0 0,4 -4,0 z M 100,160 l 4,0 0,4 -4,0 z M 104,160 l 4,0 0,4 -4,0 z M 112,160 l 4,0 0,4 -4,0 z M 124,160 l 4,0 0,4 -4,0 z M 128,160 l 4,0 0,4 -4,0 z M 140,160 l 4,0 0,4 -4,0 z M 144,160 l 4,0 0,4 -4,0 z M 160,160 l 4,0 0,4 -4,0 z M 164,160 l 4,0 0,4 -4,0 z M 168,160 l 4,0 0,4 -4,0 z M 172,160 l 4,0 0,4 -4,0 z M 176,160 l 4,0 0,4 -4,0 z M 184,160 l 4,0 0,4 -4,0 z M 188,160 l 4,0 0,4 -4,0 z M 192,160 l 4,0 0,4 -4,0 z M 200,160 l 4,0 0,4 -4,0 z M 20,164 l 4,0 0,4 -4,0 z M 24,164 l 4,0 0,4 -4,0 z M 28,164 l 4,0 0,4 -4,0 z M 32,164 l 4,0 0,4 -4,0 z M 48,164 l 4,0 0,4 -4,0 z M 56,164 l 4,0 0,4 -4,0 z M 60,164 l 4,0 0,4 -4,0 z M 64,164 l 4,0 0,4 -4,0 z M 76,164 l 4,0 0,4 -4,0 z M 80,164 l 4,0 0,4 -4,0 z M 92,164 l 4,0 0,4 -4,0 z M 108,164 l 4,0 0,4 -4,0 z M 112,164 l 4,0 0,4 -4,0 z M 116,164 l 4,0 0,4 -4,0 z M 120,164 l 4,0 0,4 -4,0 z M 124,164 l 4,0 0,4 -4,0 z M 128,164 l 4,0 0,4 -4,0 z M 132,164 l 4,0 0,4 -4,0 z M 144,164 l 4,0 0,4 -4,0 z M 148,164 l 4,0 0,4 -4,0 z M 176,164 l 4,0 0,4 -4,0 z M 180,164 l 4,0 0,4 -4,0 z M 196,164 l 4,0 0,4 -4,0 z M 200,164 l 4,0 0,4 -4,0 z M 204,164 l 4,0 0,4 -4,0 z M 208,164 l 4,0 0,4 -4,0 z M 4,168 l 4,0 0,4 -4,0 z M 8,168 l 4,0 0,4 -4,0 z M 20,168 l 4,0 0,4 -4,0 z M 32,168 l 4,0 0,4 -4,0 z M 44,168 l 4,0 0,4 -4,0 z M 48,168 l 4,0 0,4 -4,0 z M 68,168 l 4,0 0,4 -4,0 z M 72,168 l 4,0 0,4 -4,0 z M 76,168 l 4,0 0,4 -4,0 z M 88,168 l 4,0 0,4 -4,0 z M 96,168 l 4,0 0,4 -4,0 z M 100,168 l 4,0 0,4 -4,0 z M 104,168 l 4,0 0,4 -4,0 z M 120,168 l 4,0 0,4 -4,0 z M 128,168 l 4,0 0,4 -4,0 z M 148,168 l 4,0 0,4 -4,0 z M 160,168 l 4,0 0,4 -4,0 z M 164,168 l 4,0 0,4 -4,0 z M 172,168 l 4,0 0,4 -4,0 z M 176,168 l 4,0 0,4 -4,0 z M 184,168 l 4,0 0,4 -4,0 z M 188,168 l 4,0 0,4 -4,0 z M 196,168 l 4,0 0,4 -4,0 z M 200,168 l 4,0 0,4 -4,0 z M 208,168 l 4,0 0,4 -4,0 z M 212,168 l 4,0 0,4 -4,0 z M 4,172 l 4,0 0,4 -4,0 z M 8,172 l 4,0 0,4 -4,0 z M 16,172 l 4,0 0,4 -4,0 z M 20,172 l 4,0 0,4 -4,0 z M 24,172 l 4,0 0,4 -4,0 z M 28,172 l 4,0 0,4 -4,0 z M 36,172 l 4,0 0,4 -4,0 z M 40,172 l 4,0 0,4 -4,0 z M 52,172 l 4,0 0,4 -4,0 z M 60,172 l 4,0 0,4 -4,0 z M 64,172 l 4,0 0,4 -4,0 z M 68,172 l 4,0 0,4 -4,0 z M 76,172 l 4,0 0,4 -4,0 z M 80,172 l 4,0 0,4 -4,0 z M 96,172 l 4,0 0,4 -4,0 z M 104,172 l 4,0 0,4 -4,0 z M 112,172 l 4,0 0,4 -4,0 z M 120,172 l 4,0 0,4 -4,0 z M 124,172 l 4,0 0,4 -4,0 z M 128,172 l 4,0 0,4 -4,0 z M 132,172 l 4,0 0,4 -4,0 z M 136,172 l 4,0 0,4 -4,0 z M 144,172 l 4,0 0,4 -4,0 z M 156,172 l 4,0 0,4 -4,0 z M 168,172 l 4,0 0,4 -4,0 z M 176,172 l 4,0 0,4 -4,0 z M 188,172 l 4,0 0,4 -4,0 z M 196,172 l 4,0 0,4 -4,0 z M 8,176 l 4,0 0,4 -4,0 z M 12,176 l 4,0 0,4 -4,0 z M 40,176 l 4,0 0,4 -4,0 z M 44,176 l 4,0 0,4 -4,0 z M 48,176 l 4,0 0,4 -4,0 z M 52,176 l 4,0 0,4 -4,0 z M 60,176 l 4,0 0,4 -4,0 z M 68,176 l 4,0 0,4 -4,0 z M 72,176 l 4,0 0,4 -4,0 z M 76,176 l 4,0 0,4 -4,0 z M 108,176 l 4,0 0,4 -4,0 z M 116,176 l 4,0 0,4 -4,0 z M 124,176 l 4,0 0,4 -4,0 z M 128,176 l 4,0 0,4 -4,0 z M 136,176 l 4,0 0,4 -4,0 z M 140,176 l 4,0 0,4 -4,0 z M 148,176 l 4,0 0,4 -4,0 z M 160,176 l 4,0 0,4 -4,0 z M 168,176 l 4,0 0,4 -4,0 z M 172,176 l 4,0 0,4 -4,0 z M 176,176 l 4,0 0,4 -4,0 z M 180,176 l 4,0 0,4 -4,0 z M 184,176 l 4,0 0,4 -4,0 z M 196,176 l 4,0 0,4 -4,0 z M 204,176 l 4,0 0,4 -4,0 z M 212,176 l 4,0 0,4 -4,0 z M 16,180 l 4,0 0,4 -4,0 z M 28,180 l 4,0 0,4 -4,0 z M 32,180 l 4,0 0,4 -4,0 z M 36,180 l 4,0 0,4 -4,0 z M 52,180 l 4,0 0,4 -4,0 z M 72,180 l 4,0 0,4 -4,0 z M 88,180 l 4,0 0,4 -4,0 z M 92,180 l 4,0 0,4 -4,0 z M 96,180 l 4,0 0,4 -4,0 z M 100,180 l 4,0 0,4 -4,0 z M 104,180 l 4,0 0,4 -4,0 z M 108,180 l 4,0 0,4 -4,0 z M 112,180 l 4,0 0,4 -4,0 z M 116,180 l 4,0 0,4 -4,0 z M 132,180 l 4,0 0,4 -4,0 z M 136,180 l 4,0 0,4 -4,0 z M 152,180 l 4,0 0,4 -4,0 z M 164,180 l 4,0 0,4 -4,0 z M 172,180 l 4,0 0,4 -4,0 z M 180,180 l 4,0 0,4 -4,0 z M 184,180 l 4,0 0,4 -4,0 z M 188,180 l 4,0 0,4 -4,0 z M 192,180 l 4,0 0,4 -4,0 z M 196,180 l 4,0 0,4 -4,0 z M 36,184 l 4,0 0,4 -4,0 z M 48,184 l 4,0 0,4 -4,0 z M 60,184 l 4,0 0,4 -4,0 z M 64,184 l 4,0 0,4 -4,0 z M 68,184 l 4,0 0,4 -4,0 z M 72,184 l 4,0 0,4 -4,0 z M 76,184 l 4,0 0,4 -4,0 z M 80,184 l 4,0 0,4 -4,0 z M 84,184 l 4,0 0,4 -4,0 z M 88,184 l 4,0 0,4 -4,0 z M 100,184 l 4,0 0,4 -4,0 z M 116,184 l 4,0 0,4 -4,0 z M 120,184 l 4,0 0,4 -4,0 z M 124,184 l 4,0 0,4 -4,0 z M 128,184 l 4,0 0,4 -4,0 z M 140,184 l 4,0 0,4 -4,0 z M 148,184 l 4,0 0,4 -4,0 z M 156,184 l 4,0 0,4 -4,0 z M 160,184 l 4,0 0,4 -4,0 z M 168,184 l 4,0 0,4 -4,0 z M 176,184 l 4,0 0,4 -4,0 z M 180,184 l 4,0 0,4 -4,0 z M 196,184 l 4,0 0,4 -4,0 z M 200,184 l 4,0 0,4 -4,0 z M 212,184 l 4,0 0,4 -4,0 z M 4,188 l 4,0 0,4 -4,0 z M 8,188 l 4,0 0,4 -4,0 z M 12,188 l 4,0 0,4 -4,0 z M 16,188 l 4,0 0,4 -4,0 z M 20,188 l 4,0 0,4 -4,0 z M 24,188 l 4,0 0,4 -4,0 z M 28,188 l 4,0 0,4 -4,0 z M 36,188 l 4,0 0,4 -4,0 z M 48,188 l 4,0 0,4 -4,0 z M 72,188 l 4,0 0,4 -4,0 z M 80,188 l 4,0 0,4 -4,0 z M 88,188 l 4,0 0,4 -4,0 z M 96,188 l 4,0 0,4 -4,0 z M 100,188 l 4,0 0,4 -4,0 z M 108,188 l 4,0 0,4 -4,0 z M 116,188 l 4,0 0,4 -4,0 z M 124,188 l 4,0 0,4 -4,0 z M 136,188 l 4,0 0,4 -4,0 z M 152,188 l 4,0 0,4 -4,0 z M 156,188 l 4,0 0,4 -4,0 z M 160,188 l 4,0 0,4 -4,0 z M 164,188 l 4,0 0,4 -4,0 z M 168,188 l 4,0 0,4 -4,0 z M 172,188 l 4,0 0,4 -4,0 z M 176,188 l 4,0 0,4 -4,0 z M 180,188 l 4,0 0,4 -4,0 z M 188,188 l 4,0 0,4 -4,0 z M 196,188 l 4,0 0,4 -4,0 z M 200,188 l 4,0 0,4 -4,0 z M 204,188 l 4,0 0,4 -4,0 z M 208,188 l 4,0 0,4 -4,0 z M 212,188 l 4,0 0,4 -4,0 z M 4,192 l 4,0 0,4 -4,0 z M 28,192 l 4,0 0,4 -4,0 z M 40,192 l 4,0 0,4 -4,0 z M 52,192 l 4,0 0,4 -4,0 z M 56,192 l 4,0 0,4 -4,0 z M 64,192 l 4,0 0,4 -4,0 z M 96,192 l 4,0 0,4 -4,0 z M 100,192 l 4,0 0,4 -4,0 z M 116,192 l 4,0 0,4 -4,0 z M 124,192 l 4,0 0,4 -4,0 z M 128,192 l 4,0 0,4 -4,0 z M 132,192 l 4,0 0,4 -4,0 z M 136,192 l 4,0 0,4 -4,0 z M 144,192 l 4,0 0,4 -4,0 z M 148,192 l 4,0 0,4 -4,0 z M 152,192 l 4,0 0,4 -4,0 z M 156,192 l 4,0 0,4 -4,0 z M 160,192 l 4,0 0,4 -4,0 z M 164,192 l 4,0 0,4 -4,0 z M 168,192 l 4,0 0,4 -4,0 z M 180,192 l 4,0 0,4 -4,0 z M 196,192 l 4,0 0,4 -4,0 z M 200,192 l 4,0 0,4 -4,0 z M 4,196 l 4,0 0,4 -4,0 z M 12,196 l 4,0 0,4 -4,0 z M 16,196 l 4,0 0,4 -4,0 z M 20,196 l 4,0 0,4 -4,0 z M 28,196 l 4,0 0,4 -4,0 z M 36,196 l 4,0 0,4 -4,0 z M 40,196 l 4,0 0,4 -4,0 z M 48,196 l 4,0 0,4 -4,0 z M 60,196 l 4,0 0,4 -4,0 z M 72,196 l 4,0 0,4 -4,0 z M 88,196 l 4,0 0,4 -4,0 z M 96,196 l 4,0 0,4 -4,0 z M 100,196 l 4,0 0,4 -4,0 z M 104,196 l 4,0 0,4 -4,0 z M 108,196 l 4,0 0,4 -4,0 z M 112,196 l 4,0 0,4 -4,0 z M 116,196 l 4,0 0,4 -4,0 z M 120,196 l 4,0 0,4 -4,0 z M 124,196 l 4,0 0,4 -4,0 z M 132,196 l 4,0 0,4 -4,0 z M 148,196 l 4,0 0,4 -4,0 z M 152,196 l 4,0 0,4 -4,0 z M 156,196 l 4,0 0,4 -4,0 z M 160,196 l 4,0 0,4 -4,0 z M 168,196 l 4,0 0,4 -4,0 z M 172,196 l 4,0 0,4 -4,0 z M 180,196 l 4,0 0,4 -4,0 z M 184,196 l 4,0 0,4 -4,0 z M 188,196 l 4,0 0,4 -4,0 z M 192,196 l 4,0 0,4 -4,0 z M 196,196 l 4,0 0,4 -4,0 z M 200,196 l 4,0 0,4 -4,0 z M 204,196 l 4,0 0,4 -4,0 z M 208,196 l 4,0 0,4 -4,0 z M 4,200 l 4,0 0,4 -4,0 z M 12,200 l 4,0 0,4 -4,0 z M 16,200 l 4,0 0,4 -4,0 z M 20,200 l 4,0 0,4 -4,0 z M 28,200 l 4,0 0,4 -4,0 z M 36,200 l 4,0 0,4 -4,0 z M 60,200 l 4,0 0,4 -4,0 z M 64,200 l 4,0 0,4 -4,0 z M 76,200 l 4,0 0,4 -4,0 z M 80,200 l 4,0 0,4 -4,0 z M 84,200 l 4,0 0,4 -4,0 z M 104,200 l 4,0 0,4 -4,0 z M 120,200 l 4,0 0,4 -4,0 z M 128,200 l 4,0 0,4 -4,0 z M 140,200 l 4,0 0,4 -4,0 z M 144,200 l 4,0 0,4 -4,0 z M 148,200 l 4,0 0,4 -4,0 z M 160,200 l 4,0 0,4 -4,0 z M 168,200 l 4,0 0,4 -4,0 z M 172,200 l 4,0 0,4 -4,0 z M 176,200 l 4,0 0,4 -4,0 z M 180,200 l 4,0 0,4 -4,0 z M 188,200 l 4,0 0,4 -4,0 z M 204,200 l 4,0 0,4 -4,0 z M 208,200 l 4,0 0,4 -4,0 z M 212,200 l 4,0 0,4 -4,0 z M 4,204 l 4,0 0,4 -4,0 z M 12,204 l 4,0 0,4 -4,0 z M 16,204 l 4,0 0,4 -4,0 z M 20,204 l 4,0 0,4 -4,0 z M 28,204 l 4,0 0,4 -4,0 z M 36,204 l 4,0 0,4 -4,0 z M 44,204 l 4,0 0,4 -4,0 z M 48,204 l 4,0 0,4 -4,0 z M 76,204 l 4,0 0,4 -4,0 z M 84,204 l 4,0 0,4 -4,0 z M 96,204 l 4,0 0,4 -4,0 z M 100,204 l 4,0 0,4 -4,0 z M 104,204 l 4,0 0,4 -4,0 z M 112,204 l 4,0 0,4 -4,0 z M 124,204 l 4,0 0,4 -4,0 z M 132,204 l 4,0 0,4 -4,0 z M 136,204 l 4,0 0,4 -4,0 z M 144,204 l 4,0 0,4 -4,0 z M 156,204 l 4,0 0,4 -4,0 z M 164,204 l 4,0 0,4 -4,0 z M 180,204 l 4,0 0,4 -4,0 z M 184,204 l 4,0 0,4 -4,0 z M 188,204 l 4,0 0,4 -4,0 z M 196,204 l 4,0 0,4 -4,0 z M 208,204 l 4,0 0,4 -4,0 z M 4,208 l 4,0 0,4 -4,0 z M 28,208 l 4,0 0,4 -4,0 z M 36,208 l 4,0 0,4 -4,0 z M 44,208 l 4,0 0,4 -4,0 z M 52,208 l 4,0 0,4 -4,0 z M 56,208 l 4,0 0,4 -4,0 z M 64,208 l 4,0 0,4 -4,0 z M 72,208 l 4,0 0,4 -4,0 z M 76,208 l 4,0 0,4 -4,0 z M 80,208 l 4,0 0,4 -4,0 z M 84,208 l 4,0 0,4 -4,0 z M 96,208 l 4,0 0,4 -4,0 z M 104,208 l 4,0 0,4 -4,0 z M 108,208 l 4,0 0,4 -4,0 z M 112,208 l 4,0 0,4 -4,0 z M 116,208 l 4,0 0,4 -4,0 z M 124,208 l 4,0 0,4 -4,0 z M 132,208 l 4,0 0,4 -4,0 z M 136,208 l 4,0 0,4 -4,0 z M 148,208 l 4,0 0,4 -4,0 z M 152,208 l 4,0 0,4 -4,0 z M 164,208 l 4,0 0,4 -4,0 z M 192,208 l 4,0 0,4 -4,0 z M 208,208 l 4,0 0,4 -4,0 z M 4,212 l 4,0 0,4 -4,0 z M 8,212 l 4,0 0,4 -4,0 z M 12,212 l 4,0 0,4 -4,0 z M 16,212 l 4,0 0,4 -4,0 z M 20,212 l 4,0 0,4 -4,0 z M 24,212 l 4,0 0,4 -4,0 z M 28,212 l 4,0 0,4 -4,0 z M 36,212 l 4,0 0,4 -4,0 z M 48,212 l 4,0 0,4 -4,0 z M 52,212 l 4,0 0,4 -4,0 z M 68,212 l 4,0 0,4 -4,0 z M 92,212 l 4,0 0,4 -4,0 z M 104,212 l 4,0 0,4 -4,0 z M 112,212 l 4,0 0,4 -4,0 z M 116,212 l 4,0 0,4 -4,0 z M 124,212 l 4,0 0,4 -4,0 z M 128,212 l 4,0 0,4 -4,0 z M 132,212 l 4,0 0,4 -4,0 z M 144,212 l 4,0 0,4 -4,0 z M 160,212 l 4,0 0,4 -4,0 z M 164,212 l 4,0 0,4 -4,0 z M 172,212 l 4,0 0,4 -4,0 z M 184,212 l 4,0 0,4 -4,0 z M 188,212 l 4,0 0,4 -4,0 z M 192,212 l 4,0 0,4 -4,0 z M 196,212 l 4,0 0,4 -4,0 z " />
	</g>
</svg>
