<svg xmlns="http://www.w3.org/2000/svg" width="512" height="512" viewBox="0 0 512 512"><path d="M416 48c-44.188 0-80 35.813-80 80 0 11.938 2.625 23.28 7.312 33.438L416 304l72.688-142.563C493.375 151.28 496 139.937 496 128c0-44.187-35.812-80-80-80zm0 128c-26.5 0-48-21.5-48-48s21.5-48 48-48 48 21.5 48 48-21.5 48-48 48zm23.938 151.47l29.125 58.218-73.844 36.906-24.75-123.812 4.154-4.156.438-.438-15.25-30L352 272l-96-64-96 64-64-64L0 400l128 64 128-64 128 64 128-64-54-107.97-18.062 35.44zM116.75 422.593l-73.813-36.906L104.75 262l32.625 32.625 4.156 4.156-24.78 123.815zM240 372.22l-89.5 44.75 23.125-115.595 4.125-2.75 62.25-41.5V372.22zm32 0V257.124l62.25 41.5 4.094 2.75L361.47 416.97 272 372.22z"/></svg>