<?xml version="1.0" standalone="no"?>
<svg xmlns="http://www.w3.org/2000/svg" version="1.1" width="255" height="255">
	<!-- Created with https://api.qrserver.com (QR Code API, see goQR.me/api for information) -->
	<title>QR Code</title>
	<desc>https://www.google.com.ec/maps/place/158+N+Meadowbrook+Dr,+Alpine,+UT+84004,+USA/@40.455005,-111.7622007,17z/data=!3m1!4b1!4m2!3m1!1s0x875278aca2ad2ca9:0x2cdee552bb4f73f6</desc>
	<rect style="fill:rgb(255, 255, 255);fill-opacity:1" x="0" y="0" width="255" height="255" />
	<g id="elements">
		<path style="fill:rgb(0, 0, 0)" d="M 5,5 l 5,0 0,5 -5,0 z M 10,5 l 5,0 0,5 -5,0 z M 15,5 l 5,0 0,5 -5,0 z M 20,5 l 5,0 0,5 -5,0 z M 25,5 l 5,0 0,5 -5,0 z M 30,5 l 5,0 0,5 -5,0 z M 35,5 l 5,0 0,5 -5,0 z M 50,5 l 5,0 0,5 -5,0 z M 55,5 l 5,0 0,5 -5,0 z M 75,5 l 5,0 0,5 -5,0 z M 80,5 l 5,0 0,5 -5,0 z M 85,5 l 5,0 0,5 -5,0 z M 110,5 l 5,0 0,5 -5,0 z M 120,5 l 5,0 0,5 -5,0 z M 145,5 l 5,0 0,5 -5,0 z M 150,5 l 5,0 0,5 -5,0 z M 160,5 l 5,0 0,5 -5,0 z M 170,5 l 5,0 0,5 -5,0 z M 175,5 l 5,0 0,5 -5,0 z M 180,5 l 5,0 0,5 -5,0 z M 185,5 l 5,0 0,5 -5,0 z M 190,5 l 5,0 0,5 -5,0 z M 205,5 l 5,0 0,5 -5,0 z M 215,5 l 5,0 0,5 -5,0 z M 220,5 l 5,0 0,5 -5,0 z M 225,5 l 5,0 0,5 -5,0 z M 230,5 l 5,0 0,5 -5,0 z M 235,5 l 5,0 0,5 -5,0 z M 240,5 l 5,0 0,5 -5,0 z M 245,5 l 5,0 0,5 -5,0 z M 5,10 l 5,0 0,5 -5,0 z M 35,10 l 5,0 0,5 -5,0 z M 45,10 l 5,0 0,5 -5,0 z M 65,10 l 5,0 0,5 -5,0 z M 80,10 l 5,0 0,5 -5,0 z M 85,10 l 5,0 0,5 -5,0 z M 95,10 l 5,0 0,5 -5,0 z M 105,10 l 5,0 0,5 -5,0 z M 110,10 l 5,0 0,5 -5,0 z M 115,10 l 5,0 0,5 -5,0 z M 125,10 l 5,0 0,5 -5,0 z M 140,10 l 5,0 0,5 -5,0 z M 150,10 l 5,0 0,5 -5,0 z M 155,10 l 5,0 0,5 -5,0 z M 175,10 l 5,0 0,5 -5,0 z M 180,10 l 5,0 0,5 -5,0 z M 190,10 l 5,0 0,5 -5,0 z M 195,10 l 5,0 0,5 -5,0 z M 200,10 l 5,0 0,5 -5,0 z M 205,10 l 5,0 0,5 -5,0 z M 215,10 l 5,0 0,5 -5,0 z M 245,10 l 5,0 0,5 -5,0 z M 5,15 l 5,0 0,5 -5,0 z M 15,15 l 5,0 0,5 -5,0 z M 20,15 l 5,0 0,5 -5,0 z M 25,15 l 5,0 0,5 -5,0 z M 35,15 l 5,0 0,5 -5,0 z M 50,15 l 5,0 0,5 -5,0 z M 70,15 l 5,0 0,5 -5,0 z M 90,15 l 5,0 0,5 -5,0 z M 95,15 l 5,0 0,5 -5,0 z M 110,15 l 5,0 0,5 -5,0 z M 120,15 l 5,0 0,5 -5,0 z M 125,15 l 5,0 0,5 -5,0 z M 140,15 l 5,0 0,5 -5,0 z M 145,15 l 5,0 0,5 -5,0 z M 155,15 l 5,0 0,5 -5,0 z M 160,15 l 5,0 0,5 -5,0 z M 165,15 l 5,0 0,5 -5,0 z M 175,15 l 5,0 0,5 -5,0 z M 200,15 l 5,0 0,5 -5,0 z M 205,15 l 5,0 0,5 -5,0 z M 215,15 l 5,0 0,5 -5,0 z M 225,15 l 5,0 0,5 -5,0 z M 230,15 l 5,0 0,5 -5,0 z M 235,15 l 5,0 0,5 -5,0 z M 245,15 l 5,0 0,5 -5,0 z M 5,20 l 5,0 0,5 -5,0 z M 15,20 l 5,0 0,5 -5,0 z M 20,20 l 5,0 0,5 -5,0 z M 25,20 l 5,0 0,5 -5,0 z M 35,20 l 5,0 0,5 -5,0 z M 45,20 l 5,0 0,5 -5,0 z M 80,20 l 5,0 0,5 -5,0 z M 95,20 l 5,0 0,5 -5,0 z M 115,20 l 5,0 0,5 -5,0 z M 120,20 l 5,0 0,5 -5,0 z M 125,20 l 5,0 0,5 -5,0 z M 130,20 l 5,0 0,5 -5,0 z M 135,20 l 5,0 0,5 -5,0 z M 140,20 l 5,0 0,5 -5,0 z M 150,20 l 5,0 0,5 -5,0 z M 165,20 l 5,0 0,5 -5,0 z M 170,20 l 5,0 0,5 -5,0 z M 180,20 l 5,0 0,5 -5,0 z M 185,20 l 5,0 0,5 -5,0 z M 190,20 l 5,0 0,5 -5,0 z M 200,20 l 5,0 0,5 -5,0 z M 215,20 l 5,0 0,5 -5,0 z M 225,20 l 5,0 0,5 -5,0 z M 230,20 l 5,0 0,5 -5,0 z M 235,20 l 5,0 0,5 -5,0 z M 245,20 l 5,0 0,5 -5,0 z M 5,25 l 5,0 0,5 -5,0 z M 15,25 l 5,0 0,5 -5,0 z M 20,25 l 5,0 0,5 -5,0 z M 25,25 l 5,0 0,5 -5,0 z M 35,25 l 5,0 0,5 -5,0 z M 50,25 l 5,0 0,5 -5,0 z M 55,25 l 5,0 0,5 -5,0 z M 60,25 l 5,0 0,5 -5,0 z M 70,25 l 5,0 0,5 -5,0 z M 85,25 l 5,0 0,5 -5,0 z M 90,25 l 5,0 0,5 -5,0 z M 95,25 l 5,0 0,5 -5,0 z M 100,25 l 5,0 0,5 -5,0 z M 105,25 l 5,0 0,5 -5,0 z M 110,25 l 5,0 0,5 -5,0 z M 115,25 l 5,0 0,5 -5,0 z M 120,25 l 5,0 0,5 -5,0 z M 125,25 l 5,0 0,5 -5,0 z M 130,25 l 5,0 0,5 -5,0 z M 135,25 l 5,0 0,5 -5,0 z M 140,25 l 5,0 0,5 -5,0 z M 145,25 l 5,0 0,5 -5,0 z M 155,25 l 5,0 0,5 -5,0 z M 185,25 l 5,0 0,5 -5,0 z M 190,25 l 5,0 0,5 -5,0 z M 215,25 l 5,0 0,5 -5,0 z M 225,25 l 5,0 0,5 -5,0 z M 230,25 l 5,0 0,5 -5,0 z M 235,25 l 5,0 0,5 -5,0 z M 245,25 l 5,0 0,5 -5,0 z M 5,30 l 5,0 0,5 -5,0 z M 35,30 l 5,0 0,5 -5,0 z M 45,30 l 5,0 0,5 -5,0 z M 50,30 l 5,0 0,5 -5,0 z M 55,30 l 5,0 0,5 -5,0 z M 60,30 l 5,0 0,5 -5,0 z M 70,30 l 5,0 0,5 -5,0 z M 80,30 l 5,0 0,5 -5,0 z M 85,30 l 5,0 0,5 -5,0 z M 90,30 l 5,0 0,5 -5,0 z M 95,30 l 5,0 0,5 -5,0 z M 105,30 l 5,0 0,5 -5,0 z M 110,30 l 5,0 0,5 -5,0 z M 115,30 l 5,0 0,5 -5,0 z M 135,30 l 5,0 0,5 -5,0 z M 140,30 l 5,0 0,5 -5,0 z M 145,30 l 5,0 0,5 -5,0 z M 170,30 l 5,0 0,5 -5,0 z M 175,30 l 5,0 0,5 -5,0 z M 185,30 l 5,0 0,5 -5,0 z M 195,30 l 5,0 0,5 -5,0 z M 215,30 l 5,0 0,5 -5,0 z M 245,30 l 5,0 0,5 -5,0 z M 5,35 l 5,0 0,5 -5,0 z M 10,35 l 5,0 0,5 -5,0 z M 15,35 l 5,0 0,5 -5,0 z M 20,35 l 5,0 0,5 -5,0 z M 25,35 l 5,0 0,5 -5,0 z M 30,35 l 5,0 0,5 -5,0 z M 35,35 l 5,0 0,5 -5,0 z M 45,35 l 5,0 0,5 -5,0 z M 55,35 l 5,0 0,5 -5,0 z M 65,35 l 5,0 0,5 -5,0 z M 75,35 l 5,0 0,5 -5,0 z M 85,35 l 5,0 0,5 -5,0 z M 95,35 l 5,0 0,5 -5,0 z M 105,35 l 5,0 0,5 -5,0 z M 115,35 l 5,0 0,5 -5,0 z M 125,35 l 5,0 0,5 -5,0 z M 135,35 l 5,0 0,5 -5,0 z M 145,35 l 5,0 0,5 -5,0 z M 155,35 l 5,0 0,5 -5,0 z M 165,35 l 5,0 0,5 -5,0 z M 175,35 l 5,0 0,5 -5,0 z M 185,35 l 5,0 0,5 -5,0 z M 195,35 l 5,0 0,5 -5,0 z M 205,35 l 5,0 0,5 -5,0 z M 215,35 l 5,0 0,5 -5,0 z M 220,35 l 5,0 0,5 -5,0 z M 225,35 l 5,0 0,5 -5,0 z M 230,35 l 5,0 0,5 -5,0 z M 235,35 l 5,0 0,5 -5,0 z M 240,35 l 5,0 0,5 -5,0 z M 245,35 l 5,0 0,5 -5,0 z M 50,40 l 5,0 0,5 -5,0 z M 55,40 l 5,0 0,5 -5,0 z M 65,40 l 5,0 0,5 -5,0 z M 75,40 l 5,0 0,5 -5,0 z M 85,40 l 5,0 0,5 -5,0 z M 90,40 l 5,0 0,5 -5,0 z M 95,40 l 5,0 0,5 -5,0 z M 100,40 l 5,0 0,5 -5,0 z M 105,40 l 5,0 0,5 -5,0 z M 115,40 l 5,0 0,5 -5,0 z M 135,40 l 5,0 0,5 -5,0 z M 140,40 l 5,0 0,5 -5,0 z M 145,40 l 5,0 0,5 -5,0 z M 150,40 l 5,0 0,5 -5,0 z M 155,40 l 5,0 0,5 -5,0 z M 185,40 l 5,0 0,5 -5,0 z M 190,40 l 5,0 0,5 -5,0 z M 205,40 l 5,0 0,5 -5,0 z M 5,45 l 5,0 0,5 -5,0 z M 10,45 l 5,0 0,5 -5,0 z M 15,45 l 5,0 0,5 -5,0 z M 20,45 l 5,0 0,5 -5,0 z M 25,45 l 5,0 0,5 -5,0 z M 35,45 l 5,0 0,5 -5,0 z M 40,45 l 5,0 0,5 -5,0 z M 45,45 l 5,0 0,5 -5,0 z M 50,45 l 5,0 0,5 -5,0 z M 60,45 l 5,0 0,5 -5,0 z M 75,45 l 5,0 0,5 -5,0 z M 80,45 l 5,0 0,5 -5,0 z M 110,45 l 5,0 0,5 -5,0 z M 115,45 l 5,0 0,5 -5,0 z M 120,45 l 5,0 0,5 -5,0 z M 125,45 l 5,0 0,5 -5,0 z M 130,45 l 5,0 0,5 -5,0 z M 135,45 l 5,0 0,5 -5,0 z M 140,45 l 5,0 0,5 -5,0 z M 145,45 l 5,0 0,5 -5,0 z M 160,45 l 5,0 0,5 -5,0 z M 170,45 l 5,0 0,5 -5,0 z M 180,45 l 5,0 0,5 -5,0 z M 205,45 l 5,0 0,5 -5,0 z M 210,45 l 5,0 0,5 -5,0 z M 220,45 l 5,0 0,5 -5,0 z M 230,45 l 5,0 0,5 -5,0 z M 240,45 l 5,0 0,5 -5,0 z M 5,50 l 5,0 0,5 -5,0 z M 10,50 l 5,0 0,5 -5,0 z M 15,50 l 5,0 0,5 -5,0 z M 20,50 l 5,0 0,5 -5,0 z M 25,50 l 5,0 0,5 -5,0 z M 40,50 l 5,0 0,5 -5,0 z M 50,50 l 5,0 0,5 -5,0 z M 55,50 l 5,0 0,5 -5,0 z M 65,50 l 5,0 0,5 -5,0 z M 75,50 l 5,0 0,5 -5,0 z M 80,50 l 5,0 0,5 -5,0 z M 85,50 l 5,0 0,5 -5,0 z M 95,50 l 5,0 0,5 -5,0 z M 105,50 l 5,0 0,5 -5,0 z M 110,50 l 5,0 0,5 -5,0 z M 115,50 l 5,0 0,5 -5,0 z M 120,50 l 5,0 0,5 -5,0 z M 135,50 l 5,0 0,5 -5,0 z M 145,50 l 5,0 0,5 -5,0 z M 155,50 l 5,0 0,5 -5,0 z M 165,50 l 5,0 0,5 -5,0 z M 175,50 l 5,0 0,5 -5,0 z M 185,50 l 5,0 0,5 -5,0 z M 190,50 l 5,0 0,5 -5,0 z M 195,50 l 5,0 0,5 -5,0 z M 200,50 l 5,0 0,5 -5,0 z M 205,50 l 5,0 0,5 -5,0 z M 230,50 l 5,0 0,5 -5,0 z M 245,50 l 5,0 0,5 -5,0 z M 10,55 l 5,0 0,5 -5,0 z M 20,55 l 5,0 0,5 -5,0 z M 35,55 l 5,0 0,5 -5,0 z M 45,55 l 5,0 0,5 -5,0 z M 60,55 l 5,0 0,5 -5,0 z M 70,55 l 5,0 0,5 -5,0 z M 75,55 l 5,0 0,5 -5,0 z M 80,55 l 5,0 0,5 -5,0 z M 85,55 l 5,0 0,5 -5,0 z M 90,55 l 5,0 0,5 -5,0 z M 125,55 l 5,0 0,5 -5,0 z M 130,55 l 5,0 0,5 -5,0 z M 140,55 l 5,0 0,5 -5,0 z M 150,55 l 5,0 0,5 -5,0 z M 155,55 l 5,0 0,5 -5,0 z M 160,55 l 5,0 0,5 -5,0 z M 170,55 l 5,0 0,5 -5,0 z M 180,55 l 5,0 0,5 -5,0 z M 185,55 l 5,0 0,5 -5,0 z M 210,55 l 5,0 0,5 -5,0 z M 225,55 l 5,0 0,5 -5,0 z M 230,55 l 5,0 0,5 -5,0 z M 245,55 l 5,0 0,5 -5,0 z M 5,60 l 5,0 0,5 -5,0 z M 75,60 l 5,0 0,5 -5,0 z M 105,60 l 5,0 0,5 -5,0 z M 120,60 l 5,0 0,5 -5,0 z M 130,60 l 5,0 0,5 -5,0 z M 165,60 l 5,0 0,5 -5,0 z M 170,60 l 5,0 0,5 -5,0 z M 180,60 l 5,0 0,5 -5,0 z M 190,60 l 5,0 0,5 -5,0 z M 195,60 l 5,0 0,5 -5,0 z M 205,60 l 5,0 0,5 -5,0 z M 210,60 l 5,0 0,5 -5,0 z M 215,60 l 5,0 0,5 -5,0 z M 225,60 l 5,0 0,5 -5,0 z M 240,60 l 5,0 0,5 -5,0 z M 245,60 l 5,0 0,5 -5,0 z M 20,65 l 5,0 0,5 -5,0 z M 25,65 l 5,0 0,5 -5,0 z M 35,65 l 5,0 0,5 -5,0 z M 45,65 l 5,0 0,5 -5,0 z M 50,65 l 5,0 0,5 -5,0 z M 55,65 l 5,0 0,5 -5,0 z M 65,65 l 5,0 0,5 -5,0 z M 70,65 l 5,0 0,5 -5,0 z M 75,65 l 5,0 0,5 -5,0 z M 90,65 l 5,0 0,5 -5,0 z M 110,65 l 5,0 0,5 -5,0 z M 115,65 l 5,0 0,5 -5,0 z M 120,65 l 5,0 0,5 -5,0 z M 125,65 l 5,0 0,5 -5,0 z M 130,65 l 5,0 0,5 -5,0 z M 135,65 l 5,0 0,5 -5,0 z M 150,65 l 5,0 0,5 -5,0 z M 180,65 l 5,0 0,5 -5,0 z M 185,65 l 5,0 0,5 -5,0 z M 190,65 l 5,0 0,5 -5,0 z M 200,65 l 5,0 0,5 -5,0 z M 205,65 l 5,0 0,5 -5,0 z M 210,65 l 5,0 0,5 -5,0 z M 220,65 l 5,0 0,5 -5,0 z M 235,65 l 5,0 0,5 -5,0 z M 245,65 l 5,0 0,5 -5,0 z M 5,70 l 5,0 0,5 -5,0 z M 10,70 l 5,0 0,5 -5,0 z M 25,70 l 5,0 0,5 -5,0 z M 30,70 l 5,0 0,5 -5,0 z M 40,70 l 5,0 0,5 -5,0 z M 50,70 l 5,0 0,5 -5,0 z M 55,70 l 5,0 0,5 -5,0 z M 60,70 l 5,0 0,5 -5,0 z M 65,70 l 5,0 0,5 -5,0 z M 80,70 l 5,0 0,5 -5,0 z M 95,70 l 5,0 0,5 -5,0 z M 120,70 l 5,0 0,5 -5,0 z M 135,70 l 5,0 0,5 -5,0 z M 155,70 l 5,0 0,5 -5,0 z M 160,70 l 5,0 0,5 -5,0 z M 165,70 l 5,0 0,5 -5,0 z M 180,70 l 5,0 0,5 -5,0 z M 210,70 l 5,0 0,5 -5,0 z M 215,70 l 5,0 0,5 -5,0 z M 225,70 l 5,0 0,5 -5,0 z M 230,70 l 5,0 0,5 -5,0 z M 240,70 l 5,0 0,5 -5,0 z M 20,75 l 5,0 0,5 -5,0 z M 35,75 l 5,0 0,5 -5,0 z M 45,75 l 5,0 0,5 -5,0 z M 55,75 l 5,0 0,5 -5,0 z M 65,75 l 5,0 0,5 -5,0 z M 70,75 l 5,0 0,5 -5,0 z M 90,75 l 5,0 0,5 -5,0 z M 95,75 l 5,0 0,5 -5,0 z M 110,75 l 5,0 0,5 -5,0 z M 115,75 l 5,0 0,5 -5,0 z M 140,75 l 5,0 0,5 -5,0 z M 145,75 l 5,0 0,5 -5,0 z M 155,75 l 5,0 0,5 -5,0 z M 160,75 l 5,0 0,5 -5,0 z M 165,75 l 5,0 0,5 -5,0 z M 170,75 l 5,0 0,5 -5,0 z M 175,75 l 5,0 0,5 -5,0 z M 180,75 l 5,0 0,5 -5,0 z M 195,75 l 5,0 0,5 -5,0 z M 205,75 l 5,0 0,5 -5,0 z M 220,75 l 5,0 0,5 -5,0 z M 225,75 l 5,0 0,5 -5,0 z M 230,75 l 5,0 0,5 -5,0 z M 240,75 l 5,0 0,5 -5,0 z M 245,75 l 5,0 0,5 -5,0 z M 25,80 l 5,0 0,5 -5,0 z M 30,80 l 5,0 0,5 -5,0 z M 45,80 l 5,0 0,5 -5,0 z M 60,80 l 5,0 0,5 -5,0 z M 65,80 l 5,0 0,5 -5,0 z M 75,80 l 5,0 0,5 -5,0 z M 80,80 l 5,0 0,5 -5,0 z M 90,80 l 5,0 0,5 -5,0 z M 95,80 l 5,0 0,5 -5,0 z M 110,80 l 5,0 0,5 -5,0 z M 120,80 l 5,0 0,5 -5,0 z M 125,80 l 5,0 0,5 -5,0 z M 150,80 l 5,0 0,5 -5,0 z M 155,80 l 5,0 0,5 -5,0 z M 160,80 l 5,0 0,5 -5,0 z M 185,80 l 5,0 0,5 -5,0 z M 190,80 l 5,0 0,5 -5,0 z M 200,80 l 5,0 0,5 -5,0 z M 210,80 l 5,0 0,5 -5,0 z M 225,80 l 5,0 0,5 -5,0 z M 230,80 l 5,0 0,5 -5,0 z M 235,80 l 5,0 0,5 -5,0 z M 245,80 l 5,0 0,5 -5,0 z M 5,85 l 5,0 0,5 -5,0 z M 10,85 l 5,0 0,5 -5,0 z M 15,85 l 5,0 0,5 -5,0 z M 20,85 l 5,0 0,5 -5,0 z M 25,85 l 5,0 0,5 -5,0 z M 30,85 l 5,0 0,5 -5,0 z M 35,85 l 5,0 0,5 -5,0 z M 40,85 l 5,0 0,5 -5,0 z M 45,85 l 5,0 0,5 -5,0 z M 60,85 l 5,0 0,5 -5,0 z M 65,85 l 5,0 0,5 -5,0 z M 80,85 l 5,0 0,5 -5,0 z M 90,85 l 5,0 0,5 -5,0 z M 95,85 l 5,0 0,5 -5,0 z M 110,85 l 5,0 0,5 -5,0 z M 115,85 l 5,0 0,5 -5,0 z M 120,85 l 5,0 0,5 -5,0 z M 125,85 l 5,0 0,5 -5,0 z M 130,85 l 5,0 0,5 -5,0 z M 140,85 l 5,0 0,5 -5,0 z M 145,85 l 5,0 0,5 -5,0 z M 170,85 l 5,0 0,5 -5,0 z M 200,85 l 5,0 0,5 -5,0 z M 210,85 l 5,0 0,5 -5,0 z M 215,85 l 5,0 0,5 -5,0 z M 220,85 l 5,0 0,5 -5,0 z M 225,85 l 5,0 0,5 -5,0 z M 235,85 l 5,0 0,5 -5,0 z M 240,85 l 5,0 0,5 -5,0 z M 245,85 l 5,0 0,5 -5,0 z M 5,90 l 5,0 0,5 -5,0 z M 15,90 l 5,0 0,5 -5,0 z M 20,90 l 5,0 0,5 -5,0 z M 25,90 l 5,0 0,5 -5,0 z M 30,90 l 5,0 0,5 -5,0 z M 45,90 l 5,0 0,5 -5,0 z M 60,90 l 5,0 0,5 -5,0 z M 85,90 l 5,0 0,5 -5,0 z M 110,90 l 5,0 0,5 -5,0 z M 120,90 l 5,0 0,5 -5,0 z M 130,90 l 5,0 0,5 -5,0 z M 145,90 l 5,0 0,5 -5,0 z M 155,90 l 5,0 0,5 -5,0 z M 160,90 l 5,0 0,5 -5,0 z M 170,90 l 5,0 0,5 -5,0 z M 175,90 l 5,0 0,5 -5,0 z M 185,90 l 5,0 0,5 -5,0 z M 195,90 l 5,0 0,5 -5,0 z M 205,90 l 5,0 0,5 -5,0 z M 220,90 l 5,0 0,5 -5,0 z M 230,90 l 5,0 0,5 -5,0 z M 240,90 l 5,0 0,5 -5,0 z M 245,90 l 5,0 0,5 -5,0 z M 5,95 l 5,0 0,5 -5,0 z M 10,95 l 5,0 0,5 -5,0 z M 15,95 l 5,0 0,5 -5,0 z M 35,95 l 5,0 0,5 -5,0 z M 40,95 l 5,0 0,5 -5,0 z M 95,95 l 5,0 0,5 -5,0 z M 125,95 l 5,0 0,5 -5,0 z M 135,95 l 5,0 0,5 -5,0 z M 140,95 l 5,0 0,5 -5,0 z M 150,95 l 5,0 0,5 -5,0 z M 160,95 l 5,0 0,5 -5,0 z M 165,95 l 5,0 0,5 -5,0 z M 170,95 l 5,0 0,5 -5,0 z M 200,95 l 5,0 0,5 -5,0 z M 210,95 l 5,0 0,5 -5,0 z M 215,95 l 5,0 0,5 -5,0 z M 220,95 l 5,0 0,5 -5,0 z M 225,95 l 5,0 0,5 -5,0 z M 235,95 l 5,0 0,5 -5,0 z M 5,100 l 5,0 0,5 -5,0 z M 10,100 l 5,0 0,5 -5,0 z M 15,100 l 5,0 0,5 -5,0 z M 55,100 l 5,0 0,5 -5,0 z M 70,100 l 5,0 0,5 -5,0 z M 90,100 l 5,0 0,5 -5,0 z M 95,100 l 5,0 0,5 -5,0 z M 105,100 l 5,0 0,5 -5,0 z M 110,100 l 5,0 0,5 -5,0 z M 125,100 l 5,0 0,5 -5,0 z M 170,100 l 5,0 0,5 -5,0 z M 190,100 l 5,0 0,5 -5,0 z M 195,100 l 5,0 0,5 -5,0 z M 210,100 l 5,0 0,5 -5,0 z M 225,100 l 5,0 0,5 -5,0 z M 230,100 l 5,0 0,5 -5,0 z M 245,100 l 5,0 0,5 -5,0 z M 5,105 l 5,0 0,5 -5,0 z M 10,105 l 5,0 0,5 -5,0 z M 15,105 l 5,0 0,5 -5,0 z M 20,105 l 5,0 0,5 -5,0 z M 30,105 l 5,0 0,5 -5,0 z M 35,105 l 5,0 0,5 -5,0 z M 40,105 l 5,0 0,5 -5,0 z M 80,105 l 5,0 0,5 -5,0 z M 95,105 l 5,0 0,5 -5,0 z M 105,105 l 5,0 0,5 -5,0 z M 110,105 l 5,0 0,5 -5,0 z M 120,105 l 5,0 0,5 -5,0 z M 125,105 l 5,0 0,5 -5,0 z M 130,105 l 5,0 0,5 -5,0 z M 135,105 l 5,0 0,5 -5,0 z M 150,105 l 5,0 0,5 -5,0 z M 165,105 l 5,0 0,5 -5,0 z M 175,105 l 5,0 0,5 -5,0 z M 185,105 l 5,0 0,5 -5,0 z M 195,105 l 5,0 0,5 -5,0 z M 200,105 l 5,0 0,5 -5,0 z M 205,105 l 5,0 0,5 -5,0 z M 210,105 l 5,0 0,5 -5,0 z M 235,105 l 5,0 0,5 -5,0 z M 240,105 l 5,0 0,5 -5,0 z M 245,105 l 5,0 0,5 -5,0 z M 10,110 l 5,0 0,5 -5,0 z M 15,110 l 5,0 0,5 -5,0 z M 20,110 l 5,0 0,5 -5,0 z M 30,110 l 5,0 0,5 -5,0 z M 50,110 l 5,0 0,5 -5,0 z M 55,110 l 5,0 0,5 -5,0 z M 65,110 l 5,0 0,5 -5,0 z M 70,110 l 5,0 0,5 -5,0 z M 85,110 l 5,0 0,5 -5,0 z M 90,110 l 5,0 0,5 -5,0 z M 95,110 l 5,0 0,5 -5,0 z M 100,110 l 5,0 0,5 -5,0 z M 120,110 l 5,0 0,5 -5,0 z M 145,110 l 5,0 0,5 -5,0 z M 155,110 l 5,0 0,5 -5,0 z M 160,110 l 5,0 0,5 -5,0 z M 165,110 l 5,0 0,5 -5,0 z M 180,110 l 5,0 0,5 -5,0 z M 190,110 l 5,0 0,5 -5,0 z M 210,110 l 5,0 0,5 -5,0 z M 215,110 l 5,0 0,5 -5,0 z M 220,110 l 5,0 0,5 -5,0 z M 225,110 l 5,0 0,5 -5,0 z M 240,110 l 5,0 0,5 -5,0 z M 10,115 l 5,0 0,5 -5,0 z M 25,115 l 5,0 0,5 -5,0 z M 30,115 l 5,0 0,5 -5,0 z M 35,115 l 5,0 0,5 -5,0 z M 40,115 l 5,0 0,5 -5,0 z M 45,115 l 5,0 0,5 -5,0 z M 55,115 l 5,0 0,5 -5,0 z M 70,115 l 5,0 0,5 -5,0 z M 80,115 l 5,0 0,5 -5,0 z M 85,115 l 5,0 0,5 -5,0 z M 100,115 l 5,0 0,5 -5,0 z M 105,115 l 5,0 0,5 -5,0 z M 115,115 l 5,0 0,5 -5,0 z M 120,115 l 5,0 0,5 -5,0 z M 125,115 l 5,0 0,5 -5,0 z M 130,115 l 5,0 0,5 -5,0 z M 135,115 l 5,0 0,5 -5,0 z M 140,115 l 5,0 0,5 -5,0 z M 145,115 l 5,0 0,5 -5,0 z M 160,115 l 5,0 0,5 -5,0 z M 165,115 l 5,0 0,5 -5,0 z M 170,115 l 5,0 0,5 -5,0 z M 175,115 l 5,0 0,5 -5,0 z M 185,115 l 5,0 0,5 -5,0 z M 195,115 l 5,0 0,5 -5,0 z M 200,115 l 5,0 0,5 -5,0 z M 205,115 l 5,0 0,5 -5,0 z M 210,115 l 5,0 0,5 -5,0 z M 215,115 l 5,0 0,5 -5,0 z M 220,115 l 5,0 0,5 -5,0 z M 225,115 l 5,0 0,5 -5,0 z M 230,115 l 5,0 0,5 -5,0 z M 240,115 l 5,0 0,5 -5,0 z M 245,115 l 5,0 0,5 -5,0 z M 5,120 l 5,0 0,5 -5,0 z M 10,120 l 5,0 0,5 -5,0 z M 15,120 l 5,0 0,5 -5,0 z M 25,120 l 5,0 0,5 -5,0 z M 45,120 l 5,0 0,5 -5,0 z M 75,120 l 5,0 0,5 -5,0 z M 85,120 l 5,0 0,5 -5,0 z M 110,120 l 5,0 0,5 -5,0 z M 115,120 l 5,0 0,5 -5,0 z M 135,120 l 5,0 0,5 -5,0 z M 150,120 l 5,0 0,5 -5,0 z M 155,120 l 5,0 0,5 -5,0 z M 165,120 l 5,0 0,5 -5,0 z M 185,120 l 5,0 0,5 -5,0 z M 190,120 l 5,0 0,5 -5,0 z M 205,120 l 5,0 0,5 -5,0 z M 225,120 l 5,0 0,5 -5,0 z M 230,120 l 5,0 0,5 -5,0 z M 245,120 l 5,0 0,5 -5,0 z M 5,125 l 5,0 0,5 -5,0 z M 10,125 l 5,0 0,5 -5,0 z M 15,125 l 5,0 0,5 -5,0 z M 20,125 l 5,0 0,5 -5,0 z M 25,125 l 5,0 0,5 -5,0 z M 35,125 l 5,0 0,5 -5,0 z M 45,125 l 5,0 0,5 -5,0 z M 55,125 l 5,0 0,5 -5,0 z M 80,125 l 5,0 0,5 -5,0 z M 110,125 l 5,0 0,5 -5,0 z M 115,125 l 5,0 0,5 -5,0 z M 125,125 l 5,0 0,5 -5,0 z M 135,125 l 5,0 0,5 -5,0 z M 140,125 l 5,0 0,5 -5,0 z M 165,125 l 5,0 0,5 -5,0 z M 170,125 l 5,0 0,5 -5,0 z M 180,125 l 5,0 0,5 -5,0 z M 205,125 l 5,0 0,5 -5,0 z M 215,125 l 5,0 0,5 -5,0 z M 225,125 l 5,0 0,5 -5,0 z M 230,125 l 5,0 0,5 -5,0 z M 240,125 l 5,0 0,5 -5,0 z M 245,125 l 5,0 0,5 -5,0 z M 10,130 l 5,0 0,5 -5,0 z M 25,130 l 5,0 0,5 -5,0 z M 45,130 l 5,0 0,5 -5,0 z M 60,130 l 5,0 0,5 -5,0 z M 65,130 l 5,0 0,5 -5,0 z M 80,130 l 5,0 0,5 -5,0 z M 100,130 l 5,0 0,5 -5,0 z M 110,130 l 5,0 0,5 -5,0 z M 115,130 l 5,0 0,5 -5,0 z M 135,130 l 5,0 0,5 -5,0 z M 140,130 l 5,0 0,5 -5,0 z M 145,130 l 5,0 0,5 -5,0 z M 155,130 l 5,0 0,5 -5,0 z M 160,130 l 5,0 0,5 -5,0 z M 175,130 l 5,0 0,5 -5,0 z M 185,130 l 5,0 0,5 -5,0 z M 190,130 l 5,0 0,5 -5,0 z M 195,130 l 5,0 0,5 -5,0 z M 205,130 l 5,0 0,5 -5,0 z M 225,130 l 5,0 0,5 -5,0 z M 230,130 l 5,0 0,5 -5,0 z M 235,130 l 5,0 0,5 -5,0 z M 240,130 l 5,0 0,5 -5,0 z M 15,135 l 5,0 0,5 -5,0 z M 25,135 l 5,0 0,5 -5,0 z M 30,135 l 5,0 0,5 -5,0 z M 35,135 l 5,0 0,5 -5,0 z M 40,135 l 5,0 0,5 -5,0 z M 45,135 l 5,0 0,5 -5,0 z M 50,135 l 5,0 0,5 -5,0 z M 55,135 l 5,0 0,5 -5,0 z M 70,135 l 5,0 0,5 -5,0 z M 75,135 l 5,0 0,5 -5,0 z M 80,135 l 5,0 0,5 -5,0 z M 85,135 l 5,0 0,5 -5,0 z M 90,135 l 5,0 0,5 -5,0 z M 100,135 l 5,0 0,5 -5,0 z M 105,135 l 5,0 0,5 -5,0 z M 115,135 l 5,0 0,5 -5,0 z M 120,135 l 5,0 0,5 -5,0 z M 125,135 l 5,0 0,5 -5,0 z M 130,135 l 5,0 0,5 -5,0 z M 135,135 l 5,0 0,5 -5,0 z M 150,135 l 5,0 0,5 -5,0 z M 155,135 l 5,0 0,5 -5,0 z M 160,135 l 5,0 0,5 -5,0 z M 165,135 l 5,0 0,5 -5,0 z M 170,135 l 5,0 0,5 -5,0 z M 180,135 l 5,0 0,5 -5,0 z M 185,135 l 5,0 0,5 -5,0 z M 190,135 l 5,0 0,5 -5,0 z M 200,135 l 5,0 0,5 -5,0 z M 205,135 l 5,0 0,5 -5,0 z M 210,135 l 5,0 0,5 -5,0 z M 215,135 l 5,0 0,5 -5,0 z M 220,135 l 5,0 0,5 -5,0 z M 225,135 l 5,0 0,5 -5,0 z M 230,135 l 5,0 0,5 -5,0 z M 235,135 l 5,0 0,5 -5,0 z M 15,140 l 5,0 0,5 -5,0 z M 25,140 l 5,0 0,5 -5,0 z M 30,140 l 5,0 0,5 -5,0 z M 50,140 l 5,0 0,5 -5,0 z M 55,140 l 5,0 0,5 -5,0 z M 65,140 l 5,0 0,5 -5,0 z M 75,140 l 5,0 0,5 -5,0 z M 100,140 l 5,0 0,5 -5,0 z M 110,140 l 5,0 0,5 -5,0 z M 125,140 l 5,0 0,5 -5,0 z M 135,140 l 5,0 0,5 -5,0 z M 145,140 l 5,0 0,5 -5,0 z M 155,140 l 5,0 0,5 -5,0 z M 160,140 l 5,0 0,5 -5,0 z M 165,140 l 5,0 0,5 -5,0 z M 180,140 l 5,0 0,5 -5,0 z M 190,140 l 5,0 0,5 -5,0 z M 200,140 l 5,0 0,5 -5,0 z M 220,140 l 5,0 0,5 -5,0 z M 230,140 l 5,0 0,5 -5,0 z M 240,140 l 5,0 0,5 -5,0 z M 5,145 l 5,0 0,5 -5,0 z M 25,145 l 5,0 0,5 -5,0 z M 30,145 l 5,0 0,5 -5,0 z M 35,145 l 5,0 0,5 -5,0 z M 40,145 l 5,0 0,5 -5,0 z M 50,145 l 5,0 0,5 -5,0 z M 55,145 l 5,0 0,5 -5,0 z M 70,145 l 5,0 0,5 -5,0 z M 75,145 l 5,0 0,5 -5,0 z M 90,145 l 5,0 0,5 -5,0 z M 105,145 l 5,0 0,5 -5,0 z M 110,145 l 5,0 0,5 -5,0 z M 120,145 l 5,0 0,5 -5,0 z M 125,145 l 5,0 0,5 -5,0 z M 150,145 l 5,0 0,5 -5,0 z M 160,145 l 5,0 0,5 -5,0 z M 180,145 l 5,0 0,5 -5,0 z M 185,145 l 5,0 0,5 -5,0 z M 190,145 l 5,0 0,5 -5,0 z M 215,145 l 5,0 0,5 -5,0 z M 220,145 l 5,0 0,5 -5,0 z M 230,145 l 5,0 0,5 -5,0 z M 235,145 l 5,0 0,5 -5,0 z M 5,150 l 5,0 0,5 -5,0 z M 15,150 l 5,0 0,5 -5,0 z M 25,150 l 5,0 0,5 -5,0 z M 30,150 l 5,0 0,5 -5,0 z M 40,150 l 5,0 0,5 -5,0 z M 50,150 l 5,0 0,5 -5,0 z M 80,150 l 5,0 0,5 -5,0 z M 95,150 l 5,0 0,5 -5,0 z M 100,150 l 5,0 0,5 -5,0 z M 110,150 l 5,0 0,5 -5,0 z M 115,150 l 5,0 0,5 -5,0 z M 120,150 l 5,0 0,5 -5,0 z M 125,150 l 5,0 0,5 -5,0 z M 130,150 l 5,0 0,5 -5,0 z M 145,150 l 5,0 0,5 -5,0 z M 150,150 l 5,0 0,5 -5,0 z M 155,150 l 5,0 0,5 -5,0 z M 170,150 l 5,0 0,5 -5,0 z M 185,150 l 5,0 0,5 -5,0 z M 190,150 l 5,0 0,5 -5,0 z M 200,150 l 5,0 0,5 -5,0 z M 205,150 l 5,0 0,5 -5,0 z M 210,150 l 5,0 0,5 -5,0 z M 215,150 l 5,0 0,5 -5,0 z M 220,150 l 5,0 0,5 -5,0 z M 225,150 l 5,0 0,5 -5,0 z M 230,150 l 5,0 0,5 -5,0 z M 240,150 l 5,0 0,5 -5,0 z M 5,155 l 5,0 0,5 -5,0 z M 20,155 l 5,0 0,5 -5,0 z M 25,155 l 5,0 0,5 -5,0 z M 35,155 l 5,0 0,5 -5,0 z M 40,155 l 5,0 0,5 -5,0 z M 50,155 l 5,0 0,5 -5,0 z M 60,155 l 5,0 0,5 -5,0 z M 70,155 l 5,0 0,5 -5,0 z M 105,155 l 5,0 0,5 -5,0 z M 130,155 l 5,0 0,5 -5,0 z M 140,155 l 5,0 0,5 -5,0 z M 145,155 l 5,0 0,5 -5,0 z M 150,155 l 5,0 0,5 -5,0 z M 160,155 l 5,0 0,5 -5,0 z M 165,155 l 5,0 0,5 -5,0 z M 170,155 l 5,0 0,5 -5,0 z M 175,155 l 5,0 0,5 -5,0 z M 185,155 l 5,0 0,5 -5,0 z M 195,155 l 5,0 0,5 -5,0 z M 200,155 l 5,0 0,5 -5,0 z M 240,155 l 5,0 0,5 -5,0 z M 245,155 l 5,0 0,5 -5,0 z M 5,160 l 5,0 0,5 -5,0 z M 15,160 l 5,0 0,5 -5,0 z M 20,160 l 5,0 0,5 -5,0 z M 60,160 l 5,0 0,5 -5,0 z M 65,160 l 5,0 0,5 -5,0 z M 75,160 l 5,0 0,5 -5,0 z M 80,160 l 5,0 0,5 -5,0 z M 100,160 l 5,0 0,5 -5,0 z M 110,160 l 5,0 0,5 -5,0 z M 115,160 l 5,0 0,5 -5,0 z M 120,160 l 5,0 0,5 -5,0 z M 125,160 l 5,0 0,5 -5,0 z M 130,160 l 5,0 0,5 -5,0 z M 145,160 l 5,0 0,5 -5,0 z M 155,160 l 5,0 0,5 -5,0 z M 165,160 l 5,0 0,5 -5,0 z M 180,160 l 5,0 0,5 -5,0 z M 215,160 l 5,0 0,5 -5,0 z M 220,160 l 5,0 0,5 -5,0 z M 235,160 l 5,0 0,5 -5,0 z M 245,160 l 5,0 0,5 -5,0 z M 20,165 l 5,0 0,5 -5,0 z M 30,165 l 5,0 0,5 -5,0 z M 35,165 l 5,0 0,5 -5,0 z M 45,165 l 5,0 0,5 -5,0 z M 50,165 l 5,0 0,5 -5,0 z M 55,165 l 5,0 0,5 -5,0 z M 75,165 l 5,0 0,5 -5,0 z M 80,165 l 5,0 0,5 -5,0 z M 90,165 l 5,0 0,5 -5,0 z M 95,165 l 5,0 0,5 -5,0 z M 100,165 l 5,0 0,5 -5,0 z M 125,165 l 5,0 0,5 -5,0 z M 130,165 l 5,0 0,5 -5,0 z M 140,165 l 5,0 0,5 -5,0 z M 150,165 l 5,0 0,5 -5,0 z M 160,165 l 5,0 0,5 -5,0 z M 190,165 l 5,0 0,5 -5,0 z M 200,165 l 5,0 0,5 -5,0 z M 205,165 l 5,0 0,5 -5,0 z M 210,165 l 5,0 0,5 -5,0 z M 220,165 l 5,0 0,5 -5,0 z M 225,165 l 5,0 0,5 -5,0 z M 5,170 l 5,0 0,5 -5,0 z M 10,170 l 5,0 0,5 -5,0 z M 15,170 l 5,0 0,5 -5,0 z M 30,170 l 5,0 0,5 -5,0 z M 45,170 l 5,0 0,5 -5,0 z M 50,170 l 5,0 0,5 -5,0 z M 60,170 l 5,0 0,5 -5,0 z M 75,170 l 5,0 0,5 -5,0 z M 80,170 l 5,0 0,5 -5,0 z M 85,170 l 5,0 0,5 -5,0 z M 110,170 l 5,0 0,5 -5,0 z M 115,170 l 5,0 0,5 -5,0 z M 135,170 l 5,0 0,5 -5,0 z M 140,170 l 5,0 0,5 -5,0 z M 145,170 l 5,0 0,5 -5,0 z M 155,170 l 5,0 0,5 -5,0 z M 175,170 l 5,0 0,5 -5,0 z M 180,170 l 5,0 0,5 -5,0 z M 185,170 l 5,0 0,5 -5,0 z M 195,170 l 5,0 0,5 -5,0 z M 200,170 l 5,0 0,5 -5,0 z M 205,170 l 5,0 0,5 -5,0 z M 210,170 l 5,0 0,5 -5,0 z M 220,170 l 5,0 0,5 -5,0 z M 235,170 l 5,0 0,5 -5,0 z M 240,170 l 5,0 0,5 -5,0 z M 5,175 l 5,0 0,5 -5,0 z M 10,175 l 5,0 0,5 -5,0 z M 15,175 l 5,0 0,5 -5,0 z M 25,175 l 5,0 0,5 -5,0 z M 35,175 l 5,0 0,5 -5,0 z M 55,175 l 5,0 0,5 -5,0 z M 80,175 l 5,0 0,5 -5,0 z M 85,175 l 5,0 0,5 -5,0 z M 95,175 l 5,0 0,5 -5,0 z M 110,175 l 5,0 0,5 -5,0 z M 115,175 l 5,0 0,5 -5,0 z M 120,175 l 5,0 0,5 -5,0 z M 170,175 l 5,0 0,5 -5,0 z M 185,175 l 5,0 0,5 -5,0 z M 200,175 l 5,0 0,5 -5,0 z M 205,175 l 5,0 0,5 -5,0 z M 210,175 l 5,0 0,5 -5,0 z M 215,175 l 5,0 0,5 -5,0 z M 220,175 l 5,0 0,5 -5,0 z M 225,175 l 5,0 0,5 -5,0 z M 235,175 l 5,0 0,5 -5,0 z M 15,180 l 5,0 0,5 -5,0 z M 40,180 l 5,0 0,5 -5,0 z M 55,180 l 5,0 0,5 -5,0 z M 70,180 l 5,0 0,5 -5,0 z M 90,180 l 5,0 0,5 -5,0 z M 95,180 l 5,0 0,5 -5,0 z M 125,180 l 5,0 0,5 -5,0 z M 130,180 l 5,0 0,5 -5,0 z M 135,180 l 5,0 0,5 -5,0 z M 145,180 l 5,0 0,5 -5,0 z M 160,180 l 5,0 0,5 -5,0 z M 165,180 l 5,0 0,5 -5,0 z M 170,180 l 5,0 0,5 -5,0 z M 180,180 l 5,0 0,5 -5,0 z M 205,180 l 5,0 0,5 -5,0 z M 220,180 l 5,0 0,5 -5,0 z M 230,180 l 5,0 0,5 -5,0 z M 245,180 l 5,0 0,5 -5,0 z M 5,185 l 5,0 0,5 -5,0 z M 35,185 l 5,0 0,5 -5,0 z M 55,185 l 5,0 0,5 -5,0 z M 65,185 l 5,0 0,5 -5,0 z M 80,185 l 5,0 0,5 -5,0 z M 95,185 l 5,0 0,5 -5,0 z M 100,185 l 5,0 0,5 -5,0 z M 105,185 l 5,0 0,5 -5,0 z M 110,185 l 5,0 0,5 -5,0 z M 120,185 l 5,0 0,5 -5,0 z M 125,185 l 5,0 0,5 -5,0 z M 135,185 l 5,0 0,5 -5,0 z M 150,185 l 5,0 0,5 -5,0 z M 170,185 l 5,0 0,5 -5,0 z M 180,185 l 5,0 0,5 -5,0 z M 185,185 l 5,0 0,5 -5,0 z M 190,185 l 5,0 0,5 -5,0 z M 195,185 l 5,0 0,5 -5,0 z M 210,185 l 5,0 0,5 -5,0 z M 215,185 l 5,0 0,5 -5,0 z M 230,185 l 5,0 0,5 -5,0 z M 235,185 l 5,0 0,5 -5,0 z M 245,185 l 5,0 0,5 -5,0 z M 5,190 l 5,0 0,5 -5,0 z M 10,190 l 5,0 0,5 -5,0 z M 20,190 l 5,0 0,5 -5,0 z M 60,190 l 5,0 0,5 -5,0 z M 70,190 l 5,0 0,5 -5,0 z M 85,190 l 5,0 0,5 -5,0 z M 90,190 l 5,0 0,5 -5,0 z M 95,190 l 5,0 0,5 -5,0 z M 110,190 l 5,0 0,5 -5,0 z M 115,190 l 5,0 0,5 -5,0 z M 120,190 l 5,0 0,5 -5,0 z M 125,190 l 5,0 0,5 -5,0 z M 135,190 l 5,0 0,5 -5,0 z M 145,190 l 5,0 0,5 -5,0 z M 160,190 l 5,0 0,5 -5,0 z M 180,190 l 5,0 0,5 -5,0 z M 185,190 l 5,0 0,5 -5,0 z M 200,190 l 5,0 0,5 -5,0 z M 205,190 l 5,0 0,5 -5,0 z M 210,190 l 5,0 0,5 -5,0 z M 215,190 l 5,0 0,5 -5,0 z M 220,190 l 5,0 0,5 -5,0 z M 225,190 l 5,0 0,5 -5,0 z M 230,190 l 5,0 0,5 -5,0 z M 10,195 l 5,0 0,5 -5,0 z M 30,195 l 5,0 0,5 -5,0 z M 35,195 l 5,0 0,5 -5,0 z M 70,195 l 5,0 0,5 -5,0 z M 80,195 l 5,0 0,5 -5,0 z M 85,195 l 5,0 0,5 -5,0 z M 100,195 l 5,0 0,5 -5,0 z M 105,195 l 5,0 0,5 -5,0 z M 140,195 l 5,0 0,5 -5,0 z M 150,195 l 5,0 0,5 -5,0 z M 160,195 l 5,0 0,5 -5,0 z M 165,195 l 5,0 0,5 -5,0 z M 170,195 l 5,0 0,5 -5,0 z M 185,195 l 5,0 0,5 -5,0 z M 195,195 l 5,0 0,5 -5,0 z M 200,195 l 5,0 0,5 -5,0 z M 210,195 l 5,0 0,5 -5,0 z M 230,195 l 5,0 0,5 -5,0 z M 240,195 l 5,0 0,5 -5,0 z M 245,195 l 5,0 0,5 -5,0 z M 10,200 l 5,0 0,5 -5,0 z M 15,200 l 5,0 0,5 -5,0 z M 20,200 l 5,0 0,5 -5,0 z M 50,200 l 5,0 0,5 -5,0 z M 55,200 l 5,0 0,5 -5,0 z M 60,200 l 5,0 0,5 -5,0 z M 70,200 l 5,0 0,5 -5,0 z M 85,200 l 5,0 0,5 -5,0 z M 95,200 l 5,0 0,5 -5,0 z M 110,200 l 5,0 0,5 -5,0 z M 115,200 l 5,0 0,5 -5,0 z M 120,200 l 5,0 0,5 -5,0 z M 125,200 l 5,0 0,5 -5,0 z M 140,200 l 5,0 0,5 -5,0 z M 145,200 l 5,0 0,5 -5,0 z M 150,200 l 5,0 0,5 -5,0 z M 155,200 l 5,0 0,5 -5,0 z M 175,200 l 5,0 0,5 -5,0 z M 180,200 l 5,0 0,5 -5,0 z M 185,200 l 5,0 0,5 -5,0 z M 195,200 l 5,0 0,5 -5,0 z M 205,200 l 5,0 0,5 -5,0 z M 210,200 l 5,0 0,5 -5,0 z M 215,200 l 5,0 0,5 -5,0 z M 245,200 l 5,0 0,5 -5,0 z M 5,205 l 5,0 0,5 -5,0 z M 10,205 l 5,0 0,5 -5,0 z M 15,205 l 5,0 0,5 -5,0 z M 35,205 l 5,0 0,5 -5,0 z M 45,205 l 5,0 0,5 -5,0 z M 50,205 l 5,0 0,5 -5,0 z M 75,205 l 5,0 0,5 -5,0 z M 80,205 l 5,0 0,5 -5,0 z M 95,205 l 5,0 0,5 -5,0 z M 100,205 l 5,0 0,5 -5,0 z M 115,205 l 5,0 0,5 -5,0 z M 120,205 l 5,0 0,5 -5,0 z M 125,205 l 5,0 0,5 -5,0 z M 130,205 l 5,0 0,5 -5,0 z M 135,205 l 5,0 0,5 -5,0 z M 140,205 l 5,0 0,5 -5,0 z M 160,205 l 5,0 0,5 -5,0 z M 170,205 l 5,0 0,5 -5,0 z M 180,205 l 5,0 0,5 -5,0 z M 200,205 l 5,0 0,5 -5,0 z M 205,205 l 5,0 0,5 -5,0 z M 210,205 l 5,0 0,5 -5,0 z M 215,205 l 5,0 0,5 -5,0 z M 220,205 l 5,0 0,5 -5,0 z M 225,205 l 5,0 0,5 -5,0 z M 235,205 l 5,0 0,5 -5,0 z M 240,205 l 5,0 0,5 -5,0 z M 245,205 l 5,0 0,5 -5,0 z M 45,210 l 5,0 0,5 -5,0 z M 55,210 l 5,0 0,5 -5,0 z M 60,210 l 5,0 0,5 -5,0 z M 80,210 l 5,0 0,5 -5,0 z M 115,210 l 5,0 0,5 -5,0 z M 135,210 l 5,0 0,5 -5,0 z M 145,210 l 5,0 0,5 -5,0 z M 155,210 l 5,0 0,5 -5,0 z M 175,210 l 5,0 0,5 -5,0 z M 185,210 l 5,0 0,5 -5,0 z M 190,210 l 5,0 0,5 -5,0 z M 195,210 l 5,0 0,5 -5,0 z M 200,210 l 5,0 0,5 -5,0 z M 205,210 l 5,0 0,5 -5,0 z M 225,210 l 5,0 0,5 -5,0 z M 235,210 l 5,0 0,5 -5,0 z M 245,210 l 5,0 0,5 -5,0 z M 5,215 l 5,0 0,5 -5,0 z M 10,215 l 5,0 0,5 -5,0 z M 15,215 l 5,0 0,5 -5,0 z M 20,215 l 5,0 0,5 -5,0 z M 25,215 l 5,0 0,5 -5,0 z M 30,215 l 5,0 0,5 -5,0 z M 35,215 l 5,0 0,5 -5,0 z M 45,215 l 5,0 0,5 -5,0 z M 50,215 l 5,0 0,5 -5,0 z M 65,215 l 5,0 0,5 -5,0 z M 70,215 l 5,0 0,5 -5,0 z M 75,215 l 5,0 0,5 -5,0 z M 80,215 l 5,0 0,5 -5,0 z M 90,215 l 5,0 0,5 -5,0 z M 100,215 l 5,0 0,5 -5,0 z M 110,215 l 5,0 0,5 -5,0 z M 115,215 l 5,0 0,5 -5,0 z M 125,215 l 5,0 0,5 -5,0 z M 135,215 l 5,0 0,5 -5,0 z M 140,215 l 5,0 0,5 -5,0 z M 150,215 l 5,0 0,5 -5,0 z M 155,215 l 5,0 0,5 -5,0 z M 170,215 l 5,0 0,5 -5,0 z M 180,215 l 5,0 0,5 -5,0 z M 185,215 l 5,0 0,5 -5,0 z M 200,215 l 5,0 0,5 -5,0 z M 205,215 l 5,0 0,5 -5,0 z M 215,215 l 5,0 0,5 -5,0 z M 225,215 l 5,0 0,5 -5,0 z M 235,215 l 5,0 0,5 -5,0 z M 240,215 l 5,0 0,5 -5,0 z M 5,220 l 5,0 0,5 -5,0 z M 35,220 l 5,0 0,5 -5,0 z M 50,220 l 5,0 0,5 -5,0 z M 60,220 l 5,0 0,5 -5,0 z M 75,220 l 5,0 0,5 -5,0 z M 80,220 l 5,0 0,5 -5,0 z M 85,220 l 5,0 0,5 -5,0 z M 110,220 l 5,0 0,5 -5,0 z M 115,220 l 5,0 0,5 -5,0 z M 135,220 l 5,0 0,5 -5,0 z M 160,220 l 5,0 0,5 -5,0 z M 190,220 l 5,0 0,5 -5,0 z M 195,220 l 5,0 0,5 -5,0 z M 205,220 l 5,0 0,5 -5,0 z M 225,220 l 5,0 0,5 -5,0 z M 5,225 l 5,0 0,5 -5,0 z M 15,225 l 5,0 0,5 -5,0 z M 20,225 l 5,0 0,5 -5,0 z M 25,225 l 5,0 0,5 -5,0 z M 35,225 l 5,0 0,5 -5,0 z M 45,225 l 5,0 0,5 -5,0 z M 55,225 l 5,0 0,5 -5,0 z M 60,225 l 5,0 0,5 -5,0 z M 65,225 l 5,0 0,5 -5,0 z M 70,225 l 5,0 0,5 -5,0 z M 75,225 l 5,0 0,5 -5,0 z M 90,225 l 5,0 0,5 -5,0 z M 100,225 l 5,0 0,5 -5,0 z M 105,225 l 5,0 0,5 -5,0 z M 115,225 l 5,0 0,5 -5,0 z M 120,225 l 5,0 0,5 -5,0 z M 125,225 l 5,0 0,5 -5,0 z M 130,225 l 5,0 0,5 -5,0 z M 135,225 l 5,0 0,5 -5,0 z M 140,225 l 5,0 0,5 -5,0 z M 145,225 l 5,0 0,5 -5,0 z M 150,225 l 5,0 0,5 -5,0 z M 175,225 l 5,0 0,5 -5,0 z M 180,225 l 5,0 0,5 -5,0 z M 185,225 l 5,0 0,5 -5,0 z M 190,225 l 5,0 0,5 -5,0 z M 195,225 l 5,0 0,5 -5,0 z M 205,225 l 5,0 0,5 -5,0 z M 210,225 l 5,0 0,5 -5,0 z M 215,225 l 5,0 0,5 -5,0 z M 220,225 l 5,0 0,5 -5,0 z M 225,225 l 5,0 0,5 -5,0 z M 235,225 l 5,0 0,5 -5,0 z M 240,225 l 5,0 0,5 -5,0 z M 245,225 l 5,0 0,5 -5,0 z M 5,230 l 5,0 0,5 -5,0 z M 15,230 l 5,0 0,5 -5,0 z M 20,230 l 5,0 0,5 -5,0 z M 25,230 l 5,0 0,5 -5,0 z M 35,230 l 5,0 0,5 -5,0 z M 45,230 l 5,0 0,5 -5,0 z M 55,230 l 5,0 0,5 -5,0 z M 65,230 l 5,0 0,5 -5,0 z M 80,230 l 5,0 0,5 -5,0 z M 95,230 l 5,0 0,5 -5,0 z M 100,230 l 5,0 0,5 -5,0 z M 110,230 l 5,0 0,5 -5,0 z M 115,230 l 5,0 0,5 -5,0 z M 130,230 l 5,0 0,5 -5,0 z M 145,230 l 5,0 0,5 -5,0 z M 155,230 l 5,0 0,5 -5,0 z M 170,230 l 5,0 0,5 -5,0 z M 175,230 l 5,0 0,5 -5,0 z M 180,230 l 5,0 0,5 -5,0 z M 185,230 l 5,0 0,5 -5,0 z M 190,230 l 5,0 0,5 -5,0 z M 200,230 l 5,0 0,5 -5,0 z M 210,230 l 5,0 0,5 -5,0 z M 215,230 l 5,0 0,5 -5,0 z M 220,230 l 5,0 0,5 -5,0 z M 225,230 l 5,0 0,5 -5,0 z M 235,230 l 5,0 0,5 -5,0 z M 5,235 l 5,0 0,5 -5,0 z M 15,235 l 5,0 0,5 -5,0 z M 20,235 l 5,0 0,5 -5,0 z M 25,235 l 5,0 0,5 -5,0 z M 35,235 l 5,0 0,5 -5,0 z M 45,235 l 5,0 0,5 -5,0 z M 60,235 l 5,0 0,5 -5,0 z M 65,235 l 5,0 0,5 -5,0 z M 70,235 l 5,0 0,5 -5,0 z M 90,235 l 5,0 0,5 -5,0 z M 95,235 l 5,0 0,5 -5,0 z M 100,235 l 5,0 0,5 -5,0 z M 105,235 l 5,0 0,5 -5,0 z M 120,235 l 5,0 0,5 -5,0 z M 125,235 l 5,0 0,5 -5,0 z M 135,235 l 5,0 0,5 -5,0 z M 140,235 l 5,0 0,5 -5,0 z M 150,235 l 5,0 0,5 -5,0 z M 155,235 l 5,0 0,5 -5,0 z M 180,235 l 5,0 0,5 -5,0 z M 195,235 l 5,0 0,5 -5,0 z M 200,235 l 5,0 0,5 -5,0 z M 205,235 l 5,0 0,5 -5,0 z M 210,235 l 5,0 0,5 -5,0 z M 220,235 l 5,0 0,5 -5,0 z M 230,235 l 5,0 0,5 -5,0 z M 245,235 l 5,0 0,5 -5,0 z M 5,240 l 5,0 0,5 -5,0 z M 35,240 l 5,0 0,5 -5,0 z M 45,240 l 5,0 0,5 -5,0 z M 65,240 l 5,0 0,5 -5,0 z M 80,240 l 5,0 0,5 -5,0 z M 90,240 l 5,0 0,5 -5,0 z M 95,240 l 5,0 0,5 -5,0 z M 120,240 l 5,0 0,5 -5,0 z M 130,240 l 5,0 0,5 -5,0 z M 140,240 l 5,0 0,5 -5,0 z M 150,240 l 5,0 0,5 -5,0 z M 155,240 l 5,0 0,5 -5,0 z M 165,240 l 5,0 0,5 -5,0 z M 170,240 l 5,0 0,5 -5,0 z M 185,240 l 5,0 0,5 -5,0 z M 190,240 l 5,0 0,5 -5,0 z M 210,240 l 5,0 0,5 -5,0 z M 215,240 l 5,0 0,5 -5,0 z M 220,240 l 5,0 0,5 -5,0 z M 225,240 l 5,0 0,5 -5,0 z M 230,240 l 5,0 0,5 -5,0 z M 235,240 l 5,0 0,5 -5,0 z M 245,240 l 5,0 0,5 -5,0 z M 5,245 l 5,0 0,5 -5,0 z M 10,245 l 5,0 0,5 -5,0 z M 15,245 l 5,0 0,5 -5,0 z M 20,245 l 5,0 0,5 -5,0 z M 25,245 l 5,0 0,5 -5,0 z M 30,245 l 5,0 0,5 -5,0 z M 35,245 l 5,0 0,5 -5,0 z M 45,245 l 5,0 0,5 -5,0 z M 50,245 l 5,0 0,5 -5,0 z M 65,245 l 5,0 0,5 -5,0 z M 80,245 l 5,0 0,5 -5,0 z M 85,245 l 5,0 0,5 -5,0 z M 90,245 l 5,0 0,5 -5,0 z M 160,245 l 5,0 0,5 -5,0 z M 165,245 l 5,0 0,5 -5,0 z M 200,245 l 5,0 0,5 -5,0 z M 220,245 l 5,0 0,5 -5,0 z M 235,245 l 5,0 0,5 -5,0 z M 240,245 l 5,0 0,5 -5,0 z M 245,245 l 5,0 0,5 -5,0 z " />
	</g>
</svg>
