<?xml version="1.0" standalone="no"?>
<svg xmlns="http://www.w3.org/2000/svg" version="1.1" width="220" height="220">
	<!-- Created with https://api.qrserver.com (QR Code API, see goQR.me/api for information) -->
	<title>QR Code</title>
	<desc>https://www.google.com.ec/maps/place/1823+N+1950+W+St,+Provo,+UT+84604,+USA/@40.258477,-111.694333,17z/data=!3m1!4b1!4m5!3m4!1s0x874d9a5d32abe835:0xf15eeee12c16dd7e!8m2!3d40.258477!4d-111.692139?hl=en</desc>
	<rect style="fill:rgb(255, 255, 255);fill-opacity:1" x="0" y="0" width="220" height="220" />
	<g id="elements">
		<path style="fill:rgb(0, 0, 0)" d="M 4,4 l 4,0 0,4 -4,0 z M 8,4 l 4,0 0,4 -4,0 z M 12,4 l 4,0 0,4 -4,0 z M 16,4 l 4,0 0,4 -4,0 z M 20,4 l 4,0 0,4 -4,0 z M 24,4 l 4,0 0,4 -4,0 z M 28,4 l 4,0 0,4 -4,0 z M 40,4 l 4,0 0,4 -4,0 z M 56,4 l 4,0 0,4 -4,0 z M 64,4 l 4,0 0,4 -4,0 z M 76,4 l 4,0 0,4 -4,0 z M 80,4 l 4,0 0,4 -4,0 z M 84,4 l 4,0 0,4 -4,0 z M 88,4 l 4,0 0,4 -4,0 z M 100,4 l 4,0 0,4 -4,0 z M 104,4 l 4,0 0,4 -4,0 z M 108,4 l 4,0 0,4 -4,0 z M 112,4 l 4,0 0,4 -4,0 z M 120,4 l 4,0 0,4 -4,0 z M 124,4 l 4,0 0,4 -4,0 z M 128,4 l 4,0 0,4 -4,0 z M 132,4 l 4,0 0,4 -4,0 z M 136,4 l 4,0 0,4 -4,0 z M 168,4 l 4,0 0,4 -4,0 z M 172,4 l 4,0 0,4 -4,0 z M 188,4 l 4,0 0,4 -4,0 z M 192,4 l 4,0 0,4 -4,0 z M 196,4 l 4,0 0,4 -4,0 z M 200,4 l 4,0 0,4 -4,0 z M 204,4 l 4,0 0,4 -4,0 z M 208,4 l 4,0 0,4 -4,0 z M 212,4 l 4,0 0,4 -4,0 z M 4,8 l 4,0 0,4 -4,0 z M 28,8 l 4,0 0,4 -4,0 z M 36,8 l 4,0 0,4 -4,0 z M 40,8 l 4,0 0,4 -4,0 z M 44,8 l 4,0 0,4 -4,0 z M 48,8 l 4,0 0,4 -4,0 z M 52,8 l 4,0 0,4 -4,0 z M 60,8 l 4,0 0,4 -4,0 z M 84,8 l 4,0 0,4 -4,0 z M 92,8 l 4,0 0,4 -4,0 z M 100,8 l 4,0 0,4 -4,0 z M 112,8 l 4,0 0,4 -4,0 z M 116,8 l 4,0 0,4 -4,0 z M 120,8 l 4,0 0,4 -4,0 z M 124,8 l 4,0 0,4 -4,0 z M 136,8 l 4,0 0,4 -4,0 z M 148,8 l 4,0 0,4 -4,0 z M 156,8 l 4,0 0,4 -4,0 z M 168,8 l 4,0 0,4 -4,0 z M 172,8 l 4,0 0,4 -4,0 z M 176,8 l 4,0 0,4 -4,0 z M 188,8 l 4,0 0,4 -4,0 z M 212,8 l 4,0 0,4 -4,0 z M 4,12 l 4,0 0,4 -4,0 z M 12,12 l 4,0 0,4 -4,0 z M 16,12 l 4,0 0,4 -4,0 z M 20,12 l 4,0 0,4 -4,0 z M 28,12 l 4,0 0,4 -4,0 z M 40,12 l 4,0 0,4 -4,0 z M 44,12 l 4,0 0,4 -4,0 z M 56,12 l 4,0 0,4 -4,0 z M 64,12 l 4,0 0,4 -4,0 z M 72,12 l 4,0 0,4 -4,0 z M 76,12 l 4,0 0,4 -4,0 z M 80,12 l 4,0 0,4 -4,0 z M 84,12 l 4,0 0,4 -4,0 z M 88,12 l 4,0 0,4 -4,0 z M 92,12 l 4,0 0,4 -4,0 z M 100,12 l 4,0 0,4 -4,0 z M 112,12 l 4,0 0,4 -4,0 z M 116,12 l 4,0 0,4 -4,0 z M 128,12 l 4,0 0,4 -4,0 z M 132,12 l 4,0 0,4 -4,0 z M 136,12 l 4,0 0,4 -4,0 z M 148,12 l 4,0 0,4 -4,0 z M 156,12 l 4,0 0,4 -4,0 z M 160,12 l 4,0 0,4 -4,0 z M 164,12 l 4,0 0,4 -4,0 z M 176,12 l 4,0 0,4 -4,0 z M 188,12 l 4,0 0,4 -4,0 z M 196,12 l 4,0 0,4 -4,0 z M 200,12 l 4,0 0,4 -4,0 z M 204,12 l 4,0 0,4 -4,0 z M 212,12 l 4,0 0,4 -4,0 z M 4,16 l 4,0 0,4 -4,0 z M 12,16 l 4,0 0,4 -4,0 z M 16,16 l 4,0 0,4 -4,0 z M 20,16 l 4,0 0,4 -4,0 z M 28,16 l 4,0 0,4 -4,0 z M 36,16 l 4,0 0,4 -4,0 z M 40,16 l 4,0 0,4 -4,0 z M 44,16 l 4,0 0,4 -4,0 z M 60,16 l 4,0 0,4 -4,0 z M 64,16 l 4,0 0,4 -4,0 z M 68,16 l 4,0 0,4 -4,0 z M 72,16 l 4,0 0,4 -4,0 z M 76,16 l 4,0 0,4 -4,0 z M 84,16 l 4,0 0,4 -4,0 z M 104,16 l 4,0 0,4 -4,0 z M 120,16 l 4,0 0,4 -4,0 z M 124,16 l 4,0 0,4 -4,0 z M 132,16 l 4,0 0,4 -4,0 z M 140,16 l 4,0 0,4 -4,0 z M 144,16 l 4,0 0,4 -4,0 z M 152,16 l 4,0 0,4 -4,0 z M 156,16 l 4,0 0,4 -4,0 z M 160,16 l 4,0 0,4 -4,0 z M 172,16 l 4,0 0,4 -4,0 z M 180,16 l 4,0 0,4 -4,0 z M 188,16 l 4,0 0,4 -4,0 z M 196,16 l 4,0 0,4 -4,0 z M 200,16 l 4,0 0,4 -4,0 z M 204,16 l 4,0 0,4 -4,0 z M 212,16 l 4,0 0,4 -4,0 z M 4,20 l 4,0 0,4 -4,0 z M 12,20 l 4,0 0,4 -4,0 z M 16,20 l 4,0 0,4 -4,0 z M 20,20 l 4,0 0,4 -4,0 z M 28,20 l 4,0 0,4 -4,0 z M 44,20 l 4,0 0,4 -4,0 z M 48,20 l 4,0 0,4 -4,0 z M 52,20 l 4,0 0,4 -4,0 z M 84,20 l 4,0 0,4 -4,0 z M 88,20 l 4,0 0,4 -4,0 z M 92,20 l 4,0 0,4 -4,0 z M 96,20 l 4,0 0,4 -4,0 z M 100,20 l 4,0 0,4 -4,0 z M 104,20 l 4,0 0,4 -4,0 z M 108,20 l 4,0 0,4 -4,0 z M 112,20 l 4,0 0,4 -4,0 z M 116,20 l 4,0 0,4 -4,0 z M 128,20 l 4,0 0,4 -4,0 z M 144,20 l 4,0 0,4 -4,0 z M 148,20 l 4,0 0,4 -4,0 z M 164,20 l 4,0 0,4 -4,0 z M 172,20 l 4,0 0,4 -4,0 z M 188,20 l 4,0 0,4 -4,0 z M 196,20 l 4,0 0,4 -4,0 z M 200,20 l 4,0 0,4 -4,0 z M 204,20 l 4,0 0,4 -4,0 z M 212,20 l 4,0 0,4 -4,0 z M 4,24 l 4,0 0,4 -4,0 z M 28,24 l 4,0 0,4 -4,0 z M 36,24 l 4,0 0,4 -4,0 z M 40,24 l 4,0 0,4 -4,0 z M 48,24 l 4,0 0,4 -4,0 z M 52,24 l 4,0 0,4 -4,0 z M 56,24 l 4,0 0,4 -4,0 z M 60,24 l 4,0 0,4 -4,0 z M 68,24 l 4,0 0,4 -4,0 z M 76,24 l 4,0 0,4 -4,0 z M 84,24 l 4,0 0,4 -4,0 z M 92,24 l 4,0 0,4 -4,0 z M 100,24 l 4,0 0,4 -4,0 z M 116,24 l 4,0 0,4 -4,0 z M 120,24 l 4,0 0,4 -4,0 z M 136,24 l 4,0 0,4 -4,0 z M 140,24 l 4,0 0,4 -4,0 z M 156,24 l 4,0 0,4 -4,0 z M 160,24 l 4,0 0,4 -4,0 z M 164,24 l 4,0 0,4 -4,0 z M 168,24 l 4,0 0,4 -4,0 z M 172,24 l 4,0 0,4 -4,0 z M 188,24 l 4,0 0,4 -4,0 z M 212,24 l 4,0 0,4 -4,0 z M 4,28 l 4,0 0,4 -4,0 z M 8,28 l 4,0 0,4 -4,0 z M 12,28 l 4,0 0,4 -4,0 z M 16,28 l 4,0 0,4 -4,0 z M 20,28 l 4,0 0,4 -4,0 z M 24,28 l 4,0 0,4 -4,0 z M 28,28 l 4,0 0,4 -4,0 z M 36,28 l 4,0 0,4 -4,0 z M 44,28 l 4,0 0,4 -4,0 z M 52,28 l 4,0 0,4 -4,0 z M 60,28 l 4,0 0,4 -4,0 z M 68,28 l 4,0 0,4 -4,0 z M 76,28 l 4,0 0,4 -4,0 z M 84,28 l 4,0 0,4 -4,0 z M 92,28 l 4,0 0,4 -4,0 z M 100,28 l 4,0 0,4 -4,0 z M 108,28 l 4,0 0,4 -4,0 z M 116,28 l 4,0 0,4 -4,0 z M 124,28 l 4,0 0,4 -4,0 z M 132,28 l 4,0 0,4 -4,0 z M 140,28 l 4,0 0,4 -4,0 z M 148,28 l 4,0 0,4 -4,0 z M 156,28 l 4,0 0,4 -4,0 z M 164,28 l 4,0 0,4 -4,0 z M 172,28 l 4,0 0,4 -4,0 z M 180,28 l 4,0 0,4 -4,0 z M 188,28 l 4,0 0,4 -4,0 z M 192,28 l 4,0 0,4 -4,0 z M 196,28 l 4,0 0,4 -4,0 z M 200,28 l 4,0 0,4 -4,0 z M 204,28 l 4,0 0,4 -4,0 z M 208,28 l 4,0 0,4 -4,0 z M 212,28 l 4,0 0,4 -4,0 z M 48,32 l 4,0 0,4 -4,0 z M 52,32 l 4,0 0,4 -4,0 z M 60,32 l 4,0 0,4 -4,0 z M 64,32 l 4,0 0,4 -4,0 z M 68,32 l 4,0 0,4 -4,0 z M 72,32 l 4,0 0,4 -4,0 z M 76,32 l 4,0 0,4 -4,0 z M 88,32 l 4,0 0,4 -4,0 z M 92,32 l 4,0 0,4 -4,0 z M 100,32 l 4,0 0,4 -4,0 z M 116,32 l 4,0 0,4 -4,0 z M 120,32 l 4,0 0,4 -4,0 z M 124,32 l 4,0 0,4 -4,0 z M 128,32 l 4,0 0,4 -4,0 z M 160,32 l 4,0 0,4 -4,0 z M 164,32 l 4,0 0,4 -4,0 z M 168,32 l 4,0 0,4 -4,0 z M 172,32 l 4,0 0,4 -4,0 z M 180,32 l 4,0 0,4 -4,0 z M 4,36 l 4,0 0,4 -4,0 z M 8,36 l 4,0 0,4 -4,0 z M 12,36 l 4,0 0,4 -4,0 z M 16,36 l 4,0 0,4 -4,0 z M 20,36 l 4,0 0,4 -4,0 z M 28,36 l 4,0 0,4 -4,0 z M 32,36 l 4,0 0,4 -4,0 z M 36,36 l 4,0 0,4 -4,0 z M 40,36 l 4,0 0,4 -4,0 z M 44,36 l 4,0 0,4 -4,0 z M 48,36 l 4,0 0,4 -4,0 z M 52,36 l 4,0 0,4 -4,0 z M 56,36 l 4,0 0,4 -4,0 z M 60,36 l 4,0 0,4 -4,0 z M 64,36 l 4,0 0,4 -4,0 z M 76,36 l 4,0 0,4 -4,0 z M 80,36 l 4,0 0,4 -4,0 z M 92,36 l 4,0 0,4 -4,0 z M 100,36 l 4,0 0,4 -4,0 z M 104,36 l 4,0 0,4 -4,0 z M 108,36 l 4,0 0,4 -4,0 z M 112,36 l 4,0 0,4 -4,0 z M 116,36 l 4,0 0,4 -4,0 z M 124,36 l 4,0 0,4 -4,0 z M 132,36 l 4,0 0,4 -4,0 z M 136,36 l 4,0 0,4 -4,0 z M 148,36 l 4,0 0,4 -4,0 z M 168,36 l 4,0 0,4 -4,0 z M 172,36 l 4,0 0,4 -4,0 z M 180,36 l 4,0 0,4 -4,0 z M 184,36 l 4,0 0,4 -4,0 z M 192,36 l 4,0 0,4 -4,0 z M 200,36 l 4,0 0,4 -4,0 z M 208,36 l 4,0 0,4 -4,0 z M 8,40 l 4,0 0,4 -4,0 z M 12,40 l 4,0 0,4 -4,0 z M 32,40 l 4,0 0,4 -4,0 z M 36,40 l 4,0 0,4 -4,0 z M 40,40 l 4,0 0,4 -4,0 z M 44,40 l 4,0 0,4 -4,0 z M 48,40 l 4,0 0,4 -4,0 z M 68,40 l 4,0 0,4 -4,0 z M 72,40 l 4,0 0,4 -4,0 z M 76,40 l 4,0 0,4 -4,0 z M 88,40 l 4,0 0,4 -4,0 z M 124,40 l 4,0 0,4 -4,0 z M 128,40 l 4,0 0,4 -4,0 z M 132,40 l 4,0 0,4 -4,0 z M 136,40 l 4,0 0,4 -4,0 z M 140,40 l 4,0 0,4 -4,0 z M 144,40 l 4,0 0,4 -4,0 z M 148,40 l 4,0 0,4 -4,0 z M 156,40 l 4,0 0,4 -4,0 z M 164,40 l 4,0 0,4 -4,0 z M 168,40 l 4,0 0,4 -4,0 z M 172,40 l 4,0 0,4 -4,0 z M 176,40 l 4,0 0,4 -4,0 z M 192,40 l 4,0 0,4 -4,0 z M 204,40 l 4,0 0,4 -4,0 z M 212,40 l 4,0 0,4 -4,0 z M 12,44 l 4,0 0,4 -4,0 z M 16,44 l 4,0 0,4 -4,0 z M 20,44 l 4,0 0,4 -4,0 z M 24,44 l 4,0 0,4 -4,0 z M 28,44 l 4,0 0,4 -4,0 z M 32,44 l 4,0 0,4 -4,0 z M 40,44 l 4,0 0,4 -4,0 z M 44,44 l 4,0 0,4 -4,0 z M 48,44 l 4,0 0,4 -4,0 z M 60,44 l 4,0 0,4 -4,0 z M 64,44 l 4,0 0,4 -4,0 z M 68,44 l 4,0 0,4 -4,0 z M 76,44 l 4,0 0,4 -4,0 z M 80,44 l 4,0 0,4 -4,0 z M 92,44 l 4,0 0,4 -4,0 z M 100,44 l 4,0 0,4 -4,0 z M 108,44 l 4,0 0,4 -4,0 z M 120,44 l 4,0 0,4 -4,0 z M 124,44 l 4,0 0,4 -4,0 z M 140,44 l 4,0 0,4 -4,0 z M 160,44 l 4,0 0,4 -4,0 z M 180,44 l 4,0 0,4 -4,0 z M 184,44 l 4,0 0,4 -4,0 z M 188,44 l 4,0 0,4 -4,0 z M 192,44 l 4,0 0,4 -4,0 z M 200,44 l 4,0 0,4 -4,0 z M 12,48 l 4,0 0,4 -4,0 z M 32,48 l 4,0 0,4 -4,0 z M 36,48 l 4,0 0,4 -4,0 z M 44,48 l 4,0 0,4 -4,0 z M 56,48 l 4,0 0,4 -4,0 z M 68,48 l 4,0 0,4 -4,0 z M 72,48 l 4,0 0,4 -4,0 z M 76,48 l 4,0 0,4 -4,0 z M 88,48 l 4,0 0,4 -4,0 z M 92,48 l 4,0 0,4 -4,0 z M 96,48 l 4,0 0,4 -4,0 z M 104,48 l 4,0 0,4 -4,0 z M 112,48 l 4,0 0,4 -4,0 z M 116,48 l 4,0 0,4 -4,0 z M 132,48 l 4,0 0,4 -4,0 z M 136,48 l 4,0 0,4 -4,0 z M 140,48 l 4,0 0,4 -4,0 z M 148,48 l 4,0 0,4 -4,0 z M 156,48 l 4,0 0,4 -4,0 z M 160,48 l 4,0 0,4 -4,0 z M 164,48 l 4,0 0,4 -4,0 z M 172,48 l 4,0 0,4 -4,0 z M 176,48 l 4,0 0,4 -4,0 z M 180,48 l 4,0 0,4 -4,0 z M 184,48 l 4,0 0,4 -4,0 z M 188,48 l 4,0 0,4 -4,0 z M 192,48 l 4,0 0,4 -4,0 z M 204,48 l 4,0 0,4 -4,0 z M 208,48 l 4,0 0,4 -4,0 z M 8,52 l 4,0 0,4 -4,0 z M 12,52 l 4,0 0,4 -4,0 z M 16,52 l 4,0 0,4 -4,0 z M 24,52 l 4,0 0,4 -4,0 z M 28,52 l 4,0 0,4 -4,0 z M 40,52 l 4,0 0,4 -4,0 z M 48,52 l 4,0 0,4 -4,0 z M 52,52 l 4,0 0,4 -4,0 z M 84,52 l 4,0 0,4 -4,0 z M 96,52 l 4,0 0,4 -4,0 z M 100,52 l 4,0 0,4 -4,0 z M 104,52 l 4,0 0,4 -4,0 z M 120,52 l 4,0 0,4 -4,0 z M 124,52 l 4,0 0,4 -4,0 z M 132,52 l 4,0 0,4 -4,0 z M 148,52 l 4,0 0,4 -4,0 z M 152,52 l 4,0 0,4 -4,0 z M 156,52 l 4,0 0,4 -4,0 z M 160,52 l 4,0 0,4 -4,0 z M 168,52 l 4,0 0,4 -4,0 z M 200,52 l 4,0 0,4 -4,0 z M 208,52 l 4,0 0,4 -4,0 z M 4,56 l 4,0 0,4 -4,0 z M 16,56 l 4,0 0,4 -4,0 z M 20,56 l 4,0 0,4 -4,0 z M 48,56 l 4,0 0,4 -4,0 z M 64,56 l 4,0 0,4 -4,0 z M 68,56 l 4,0 0,4 -4,0 z M 76,56 l 4,0 0,4 -4,0 z M 84,56 l 4,0 0,4 -4,0 z M 96,56 l 4,0 0,4 -4,0 z M 108,56 l 4,0 0,4 -4,0 z M 112,56 l 4,0 0,4 -4,0 z M 116,56 l 4,0 0,4 -4,0 z M 124,56 l 4,0 0,4 -4,0 z M 128,56 l 4,0 0,4 -4,0 z M 136,56 l 4,0 0,4 -4,0 z M 140,56 l 4,0 0,4 -4,0 z M 144,56 l 4,0 0,4 -4,0 z M 148,56 l 4,0 0,4 -4,0 z M 164,56 l 4,0 0,4 -4,0 z M 172,56 l 4,0 0,4 -4,0 z M 184,56 l 4,0 0,4 -4,0 z M 188,56 l 4,0 0,4 -4,0 z M 192,56 l 4,0 0,4 -4,0 z M 196,56 l 4,0 0,4 -4,0 z M 208,56 l 4,0 0,4 -4,0 z M 12,60 l 4,0 0,4 -4,0 z M 20,60 l 4,0 0,4 -4,0 z M 28,60 l 4,0 0,4 -4,0 z M 32,60 l 4,0 0,4 -4,0 z M 52,60 l 4,0 0,4 -4,0 z M 72,60 l 4,0 0,4 -4,0 z M 80,60 l 4,0 0,4 -4,0 z M 88,60 l 4,0 0,4 -4,0 z M 112,60 l 4,0 0,4 -4,0 z M 116,60 l 4,0 0,4 -4,0 z M 124,60 l 4,0 0,4 -4,0 z M 156,60 l 4,0 0,4 -4,0 z M 160,60 l 4,0 0,4 -4,0 z M 164,60 l 4,0 0,4 -4,0 z M 176,60 l 4,0 0,4 -4,0 z M 180,60 l 4,0 0,4 -4,0 z M 184,60 l 4,0 0,4 -4,0 z M 188,60 l 4,0 0,4 -4,0 z M 196,60 l 4,0 0,4 -4,0 z M 200,60 l 4,0 0,4 -4,0 z M 204,60 l 4,0 0,4 -4,0 z M 208,60 l 4,0 0,4 -4,0 z M 8,64 l 4,0 0,4 -4,0 z M 12,64 l 4,0 0,4 -4,0 z M 20,64 l 4,0 0,4 -4,0 z M 24,64 l 4,0 0,4 -4,0 z M 32,64 l 4,0 0,4 -4,0 z M 40,64 l 4,0 0,4 -4,0 z M 44,64 l 4,0 0,4 -4,0 z M 48,64 l 4,0 0,4 -4,0 z M 56,64 l 4,0 0,4 -4,0 z M 64,64 l 4,0 0,4 -4,0 z M 68,64 l 4,0 0,4 -4,0 z M 96,64 l 4,0 0,4 -4,0 z M 100,64 l 4,0 0,4 -4,0 z M 112,64 l 4,0 0,4 -4,0 z M 116,64 l 4,0 0,4 -4,0 z M 124,64 l 4,0 0,4 -4,0 z M 128,64 l 4,0 0,4 -4,0 z M 136,64 l 4,0 0,4 -4,0 z M 140,64 l 4,0 0,4 -4,0 z M 144,64 l 4,0 0,4 -4,0 z M 152,64 l 4,0 0,4 -4,0 z M 160,64 l 4,0 0,4 -4,0 z M 164,64 l 4,0 0,4 -4,0 z M 172,64 l 4,0 0,4 -4,0 z M 188,64 l 4,0 0,4 -4,0 z M 4,68 l 4,0 0,4 -4,0 z M 8,68 l 4,0 0,4 -4,0 z M 28,68 l 4,0 0,4 -4,0 z M 32,68 l 4,0 0,4 -4,0 z M 36,68 l 4,0 0,4 -4,0 z M 40,68 l 4,0 0,4 -4,0 z M 48,68 l 4,0 0,4 -4,0 z M 52,68 l 4,0 0,4 -4,0 z M 72,68 l 4,0 0,4 -4,0 z M 88,68 l 4,0 0,4 -4,0 z M 100,68 l 4,0 0,4 -4,0 z M 104,68 l 4,0 0,4 -4,0 z M 112,68 l 4,0 0,4 -4,0 z M 116,68 l 4,0 0,4 -4,0 z M 120,68 l 4,0 0,4 -4,0 z M 124,68 l 4,0 0,4 -4,0 z M 136,68 l 4,0 0,4 -4,0 z M 140,68 l 4,0 0,4 -4,0 z M 148,68 l 4,0 0,4 -4,0 z M 152,68 l 4,0 0,4 -4,0 z M 156,68 l 4,0 0,4 -4,0 z M 168,68 l 4,0 0,4 -4,0 z M 180,68 l 4,0 0,4 -4,0 z M 188,68 l 4,0 0,4 -4,0 z M 192,68 l 4,0 0,4 -4,0 z M 196,68 l 4,0 0,4 -4,0 z M 200,68 l 4,0 0,4 -4,0 z M 204,68 l 4,0 0,4 -4,0 z M 208,68 l 4,0 0,4 -4,0 z M 212,68 l 4,0 0,4 -4,0 z M 4,72 l 4,0 0,4 -4,0 z M 12,72 l 4,0 0,4 -4,0 z M 16,72 l 4,0 0,4 -4,0 z M 32,72 l 4,0 0,4 -4,0 z M 36,72 l 4,0 0,4 -4,0 z M 44,72 l 4,0 0,4 -4,0 z M 48,72 l 4,0 0,4 -4,0 z M 52,72 l 4,0 0,4 -4,0 z M 56,72 l 4,0 0,4 -4,0 z M 64,72 l 4,0 0,4 -4,0 z M 76,72 l 4,0 0,4 -4,0 z M 80,72 l 4,0 0,4 -4,0 z M 84,72 l 4,0 0,4 -4,0 z M 100,72 l 4,0 0,4 -4,0 z M 104,72 l 4,0 0,4 -4,0 z M 108,72 l 4,0 0,4 -4,0 z M 112,72 l 4,0 0,4 -4,0 z M 124,72 l 4,0 0,4 -4,0 z M 136,72 l 4,0 0,4 -4,0 z M 156,72 l 4,0 0,4 -4,0 z M 172,72 l 4,0 0,4 -4,0 z M 192,72 l 4,0 0,4 -4,0 z M 204,72 l 4,0 0,4 -4,0 z M 212,72 l 4,0 0,4 -4,0 z M 20,76 l 4,0 0,4 -4,0 z M 28,76 l 4,0 0,4 -4,0 z M 32,76 l 4,0 0,4 -4,0 z M 40,76 l 4,0 0,4 -4,0 z M 44,76 l 4,0 0,4 -4,0 z M 48,76 l 4,0 0,4 -4,0 z M 60,76 l 4,0 0,4 -4,0 z M 84,76 l 4,0 0,4 -4,0 z M 88,76 l 4,0 0,4 -4,0 z M 92,76 l 4,0 0,4 -4,0 z M 108,76 l 4,0 0,4 -4,0 z M 112,76 l 4,0 0,4 -4,0 z M 124,76 l 4,0 0,4 -4,0 z M 152,76 l 4,0 0,4 -4,0 z M 160,76 l 4,0 0,4 -4,0 z M 176,76 l 4,0 0,4 -4,0 z M 184,76 l 4,0 0,4 -4,0 z M 188,76 l 4,0 0,4 -4,0 z M 192,76 l 4,0 0,4 -4,0 z M 196,76 l 4,0 0,4 -4,0 z M 200,76 l 4,0 0,4 -4,0 z M 204,76 l 4,0 0,4 -4,0 z M 8,80 l 4,0 0,4 -4,0 z M 12,80 l 4,0 0,4 -4,0 z M 20,80 l 4,0 0,4 -4,0 z M 24,80 l 4,0 0,4 -4,0 z M 44,80 l 4,0 0,4 -4,0 z M 52,80 l 4,0 0,4 -4,0 z M 56,80 l 4,0 0,4 -4,0 z M 64,80 l 4,0 0,4 -4,0 z M 72,80 l 4,0 0,4 -4,0 z M 76,80 l 4,0 0,4 -4,0 z M 80,80 l 4,0 0,4 -4,0 z M 84,80 l 4,0 0,4 -4,0 z M 88,80 l 4,0 0,4 -4,0 z M 108,80 l 4,0 0,4 -4,0 z M 136,80 l 4,0 0,4 -4,0 z M 156,80 l 4,0 0,4 -4,0 z M 160,80 l 4,0 0,4 -4,0 z M 164,80 l 4,0 0,4 -4,0 z M 176,80 l 4,0 0,4 -4,0 z M 180,80 l 4,0 0,4 -4,0 z M 184,80 l 4,0 0,4 -4,0 z M 196,80 l 4,0 0,4 -4,0 z M 200,80 l 4,0 0,4 -4,0 z M 208,80 l 4,0 0,4 -4,0 z M 12,84 l 4,0 0,4 -4,0 z M 16,84 l 4,0 0,4 -4,0 z M 24,84 l 4,0 0,4 -4,0 z M 28,84 l 4,0 0,4 -4,0 z M 44,84 l 4,0 0,4 -4,0 z M 60,84 l 4,0 0,4 -4,0 z M 64,84 l 4,0 0,4 -4,0 z M 100,84 l 4,0 0,4 -4,0 z M 116,84 l 4,0 0,4 -4,0 z M 120,84 l 4,0 0,4 -4,0 z M 124,84 l 4,0 0,4 -4,0 z M 128,84 l 4,0 0,4 -4,0 z M 132,84 l 4,0 0,4 -4,0 z M 148,84 l 4,0 0,4 -4,0 z M 152,84 l 4,0 0,4 -4,0 z M 160,84 l 4,0 0,4 -4,0 z M 164,84 l 4,0 0,4 -4,0 z M 168,84 l 4,0 0,4 -4,0 z M 172,84 l 4,0 0,4 -4,0 z M 176,84 l 4,0 0,4 -4,0 z M 188,84 l 4,0 0,4 -4,0 z M 192,84 l 4,0 0,4 -4,0 z M 204,84 l 4,0 0,4 -4,0 z M 8,88 l 4,0 0,4 -4,0 z M 32,88 l 4,0 0,4 -4,0 z M 52,88 l 4,0 0,4 -4,0 z M 60,88 l 4,0 0,4 -4,0 z M 64,88 l 4,0 0,4 -4,0 z M 72,88 l 4,0 0,4 -4,0 z M 80,88 l 4,0 0,4 -4,0 z M 88,88 l 4,0 0,4 -4,0 z M 96,88 l 4,0 0,4 -4,0 z M 112,88 l 4,0 0,4 -4,0 z M 116,88 l 4,0 0,4 -4,0 z M 128,88 l 4,0 0,4 -4,0 z M 136,88 l 4,0 0,4 -4,0 z M 144,88 l 4,0 0,4 -4,0 z M 156,88 l 4,0 0,4 -4,0 z M 168,88 l 4,0 0,4 -4,0 z M 180,88 l 4,0 0,4 -4,0 z M 184,88 l 4,0 0,4 -4,0 z M 192,88 l 4,0 0,4 -4,0 z M 196,88 l 4,0 0,4 -4,0 z M 204,88 l 4,0 0,4 -4,0 z M 208,88 l 4,0 0,4 -4,0 z M 212,88 l 4,0 0,4 -4,0 z M 4,92 l 4,0 0,4 -4,0 z M 16,92 l 4,0 0,4 -4,0 z M 24,92 l 4,0 0,4 -4,0 z M 28,92 l 4,0 0,4 -4,0 z M 36,92 l 4,0 0,4 -4,0 z M 40,92 l 4,0 0,4 -4,0 z M 44,92 l 4,0 0,4 -4,0 z M 48,92 l 4,0 0,4 -4,0 z M 52,92 l 4,0 0,4 -4,0 z M 56,92 l 4,0 0,4 -4,0 z M 60,92 l 4,0 0,4 -4,0 z M 76,92 l 4,0 0,4 -4,0 z M 80,92 l 4,0 0,4 -4,0 z M 92,92 l 4,0 0,4 -4,0 z M 96,92 l 4,0 0,4 -4,0 z M 108,92 l 4,0 0,4 -4,0 z M 112,92 l 4,0 0,4 -4,0 z M 116,92 l 4,0 0,4 -4,0 z M 132,92 l 4,0 0,4 -4,0 z M 136,92 l 4,0 0,4 -4,0 z M 160,92 l 4,0 0,4 -4,0 z M 164,92 l 4,0 0,4 -4,0 z M 172,92 l 4,0 0,4 -4,0 z M 176,92 l 4,0 0,4 -4,0 z M 184,92 l 4,0 0,4 -4,0 z M 188,92 l 4,0 0,4 -4,0 z M 196,92 l 4,0 0,4 -4,0 z M 204,92 l 4,0 0,4 -4,0 z M 208,92 l 4,0 0,4 -4,0 z M 212,92 l 4,0 0,4 -4,0 z M 4,96 l 4,0 0,4 -4,0 z M 12,96 l 4,0 0,4 -4,0 z M 16,96 l 4,0 0,4 -4,0 z M 36,96 l 4,0 0,4 -4,0 z M 60,96 l 4,0 0,4 -4,0 z M 64,96 l 4,0 0,4 -4,0 z M 68,96 l 4,0 0,4 -4,0 z M 72,96 l 4,0 0,4 -4,0 z M 76,96 l 4,0 0,4 -4,0 z M 88,96 l 4,0 0,4 -4,0 z M 92,96 l 4,0 0,4 -4,0 z M 96,96 l 4,0 0,4 -4,0 z M 100,96 l 4,0 0,4 -4,0 z M 108,96 l 4,0 0,4 -4,0 z M 112,96 l 4,0 0,4 -4,0 z M 116,96 l 4,0 0,4 -4,0 z M 124,96 l 4,0 0,4 -4,0 z M 128,96 l 4,0 0,4 -4,0 z M 148,96 l 4,0 0,4 -4,0 z M 160,96 l 4,0 0,4 -4,0 z M 164,96 l 4,0 0,4 -4,0 z M 168,96 l 4,0 0,4 -4,0 z M 180,96 l 4,0 0,4 -4,0 z M 12,100 l 4,0 0,4 -4,0 z M 20,100 l 4,0 0,4 -4,0 z M 24,100 l 4,0 0,4 -4,0 z M 28,100 l 4,0 0,4 -4,0 z M 32,100 l 4,0 0,4 -4,0 z M 36,100 l 4,0 0,4 -4,0 z M 40,100 l 4,0 0,4 -4,0 z M 48,100 l 4,0 0,4 -4,0 z M 52,100 l 4,0 0,4 -4,0 z M 56,100 l 4,0 0,4 -4,0 z M 60,100 l 4,0 0,4 -4,0 z M 64,100 l 4,0 0,4 -4,0 z M 76,100 l 4,0 0,4 -4,0 z M 80,100 l 4,0 0,4 -4,0 z M 92,100 l 4,0 0,4 -4,0 z M 100,100 l 4,0 0,4 -4,0 z M 104,100 l 4,0 0,4 -4,0 z M 108,100 l 4,0 0,4 -4,0 z M 112,100 l 4,0 0,4 -4,0 z M 116,100 l 4,0 0,4 -4,0 z M 120,100 l 4,0 0,4 -4,0 z M 124,100 l 4,0 0,4 -4,0 z M 136,100 l 4,0 0,4 -4,0 z M 140,100 l 4,0 0,4 -4,0 z M 144,100 l 4,0 0,4 -4,0 z M 168,100 l 4,0 0,4 -4,0 z M 180,100 l 4,0 0,4 -4,0 z M 184,100 l 4,0 0,4 -4,0 z M 188,100 l 4,0 0,4 -4,0 z M 192,100 l 4,0 0,4 -4,0 z M 196,100 l 4,0 0,4 -4,0 z M 204,100 l 4,0 0,4 -4,0 z M 208,100 l 4,0 0,4 -4,0 z M 212,100 l 4,0 0,4 -4,0 z M 4,104 l 4,0 0,4 -4,0 z M 8,104 l 4,0 0,4 -4,0 z M 16,104 l 4,0 0,4 -4,0 z M 20,104 l 4,0 0,4 -4,0 z M 36,104 l 4,0 0,4 -4,0 z M 40,104 l 4,0 0,4 -4,0 z M 48,104 l 4,0 0,4 -4,0 z M 68,104 l 4,0 0,4 -4,0 z M 72,104 l 4,0 0,4 -4,0 z M 76,104 l 4,0 0,4 -4,0 z M 88,104 l 4,0 0,4 -4,0 z M 96,104 l 4,0 0,4 -4,0 z M 100,104 l 4,0 0,4 -4,0 z M 116,104 l 4,0 0,4 -4,0 z M 120,104 l 4,0 0,4 -4,0 z M 124,104 l 4,0 0,4 -4,0 z M 132,104 l 4,0 0,4 -4,0 z M 136,104 l 4,0 0,4 -4,0 z M 144,104 l 4,0 0,4 -4,0 z M 160,104 l 4,0 0,4 -4,0 z M 168,104 l 4,0 0,4 -4,0 z M 172,104 l 4,0 0,4 -4,0 z M 176,104 l 4,0 0,4 -4,0 z M 180,104 l 4,0 0,4 -4,0 z M 196,104 l 4,0 0,4 -4,0 z M 204,104 l 4,0 0,4 -4,0 z M 212,104 l 4,0 0,4 -4,0 z M 4,108 l 4,0 0,4 -4,0 z M 12,108 l 4,0 0,4 -4,0 z M 20,108 l 4,0 0,4 -4,0 z M 28,108 l 4,0 0,4 -4,0 z M 36,108 l 4,0 0,4 -4,0 z M 40,108 l 4,0 0,4 -4,0 z M 48,108 l 4,0 0,4 -4,0 z M 52,108 l 4,0 0,4 -4,0 z M 64,108 l 4,0 0,4 -4,0 z M 68,108 l 4,0 0,4 -4,0 z M 80,108 l 4,0 0,4 -4,0 z M 88,108 l 4,0 0,4 -4,0 z M 100,108 l 4,0 0,4 -4,0 z M 108,108 l 4,0 0,4 -4,0 z M 116,108 l 4,0 0,4 -4,0 z M 120,108 l 4,0 0,4 -4,0 z M 128,108 l 4,0 0,4 -4,0 z M 148,108 l 4,0 0,4 -4,0 z M 156,108 l 4,0 0,4 -4,0 z M 164,108 l 4,0 0,4 -4,0 z M 176,108 l 4,0 0,4 -4,0 z M 180,108 l 4,0 0,4 -4,0 z M 188,108 l 4,0 0,4 -4,0 z M 196,108 l 4,0 0,4 -4,0 z M 200,108 l 4,0 0,4 -4,0 z M 8,112 l 4,0 0,4 -4,0 z M 20,112 l 4,0 0,4 -4,0 z M 36,112 l 4,0 0,4 -4,0 z M 40,112 l 4,0 0,4 -4,0 z M 48,112 l 4,0 0,4 -4,0 z M 56,112 l 4,0 0,4 -4,0 z M 60,112 l 4,0 0,4 -4,0 z M 68,112 l 4,0 0,4 -4,0 z M 72,112 l 4,0 0,4 -4,0 z M 88,112 l 4,0 0,4 -4,0 z M 96,112 l 4,0 0,4 -4,0 z M 100,112 l 4,0 0,4 -4,0 z M 116,112 l 4,0 0,4 -4,0 z M 124,112 l 4,0 0,4 -4,0 z M 132,112 l 4,0 0,4 -4,0 z M 136,112 l 4,0 0,4 -4,0 z M 140,112 l 4,0 0,4 -4,0 z M 144,112 l 4,0 0,4 -4,0 z M 156,112 l 4,0 0,4 -4,0 z M 160,112 l 4,0 0,4 -4,0 z M 172,112 l 4,0 0,4 -4,0 z M 180,112 l 4,0 0,4 -4,0 z M 196,112 l 4,0 0,4 -4,0 z M 204,112 l 4,0 0,4 -4,0 z M 208,112 l 4,0 0,4 -4,0 z M 4,116 l 4,0 0,4 -4,0 z M 12,116 l 4,0 0,4 -4,0 z M 20,116 l 4,0 0,4 -4,0 z M 24,116 l 4,0 0,4 -4,0 z M 28,116 l 4,0 0,4 -4,0 z M 32,116 l 4,0 0,4 -4,0 z M 36,116 l 4,0 0,4 -4,0 z M 44,116 l 4,0 0,4 -4,0 z M 52,116 l 4,0 0,4 -4,0 z M 64,116 l 4,0 0,4 -4,0 z M 68,116 l 4,0 0,4 -4,0 z M 72,116 l 4,0 0,4 -4,0 z M 80,116 l 4,0 0,4 -4,0 z M 88,116 l 4,0 0,4 -4,0 z M 92,116 l 4,0 0,4 -4,0 z M 100,116 l 4,0 0,4 -4,0 z M 104,116 l 4,0 0,4 -4,0 z M 108,116 l 4,0 0,4 -4,0 z M 112,116 l 4,0 0,4 -4,0 z M 116,116 l 4,0 0,4 -4,0 z M 120,116 l 4,0 0,4 -4,0 z M 132,116 l 4,0 0,4 -4,0 z M 152,116 l 4,0 0,4 -4,0 z M 160,116 l 4,0 0,4 -4,0 z M 164,116 l 4,0 0,4 -4,0 z M 168,116 l 4,0 0,4 -4,0 z M 172,116 l 4,0 0,4 -4,0 z M 176,116 l 4,0 0,4 -4,0 z M 180,116 l 4,0 0,4 -4,0 z M 184,116 l 4,0 0,4 -4,0 z M 188,116 l 4,0 0,4 -4,0 z M 192,116 l 4,0 0,4 -4,0 z M 196,116 l 4,0 0,4 -4,0 z M 204,116 l 4,0 0,4 -4,0 z M 4,120 l 4,0 0,4 -4,0 z M 16,120 l 4,0 0,4 -4,0 z M 20,120 l 4,0 0,4 -4,0 z M 36,120 l 4,0 0,4 -4,0 z M 56,120 l 4,0 0,4 -4,0 z M 68,120 l 4,0 0,4 -4,0 z M 72,120 l 4,0 0,4 -4,0 z M 76,120 l 4,0 0,4 -4,0 z M 92,120 l 4,0 0,4 -4,0 z M 96,120 l 4,0 0,4 -4,0 z M 100,120 l 4,0 0,4 -4,0 z M 124,120 l 4,0 0,4 -4,0 z M 128,120 l 4,0 0,4 -4,0 z M 136,120 l 4,0 0,4 -4,0 z M 140,120 l 4,0 0,4 -4,0 z M 144,120 l 4,0 0,4 -4,0 z M 148,120 l 4,0 0,4 -4,0 z M 156,120 l 4,0 0,4 -4,0 z M 176,120 l 4,0 0,4 -4,0 z M 180,120 l 4,0 0,4 -4,0 z M 188,120 l 4,0 0,4 -4,0 z M 192,120 l 4,0 0,4 -4,0 z M 196,120 l 4,0 0,4 -4,0 z M 200,120 l 4,0 0,4 -4,0 z M 204,120 l 4,0 0,4 -4,0 z M 208,120 l 4,0 0,4 -4,0 z M 212,120 l 4,0 0,4 -4,0 z M 4,124 l 4,0 0,4 -4,0 z M 12,124 l 4,0 0,4 -4,0 z M 20,124 l 4,0 0,4 -4,0 z M 24,124 l 4,0 0,4 -4,0 z M 28,124 l 4,0 0,4 -4,0 z M 48,124 l 4,0 0,4 -4,0 z M 72,124 l 4,0 0,4 -4,0 z M 80,124 l 4,0 0,4 -4,0 z M 88,124 l 4,0 0,4 -4,0 z M 96,124 l 4,0 0,4 -4,0 z M 112,124 l 4,0 0,4 -4,0 z M 116,124 l 4,0 0,4 -4,0 z M 148,124 l 4,0 0,4 -4,0 z M 152,124 l 4,0 0,4 -4,0 z M 160,124 l 4,0 0,4 -4,0 z M 168,124 l 4,0 0,4 -4,0 z M 172,124 l 4,0 0,4 -4,0 z M 176,124 l 4,0 0,4 -4,0 z M 180,124 l 4,0 0,4 -4,0 z M 200,124 l 4,0 0,4 -4,0 z M 204,124 l 4,0 0,4 -4,0 z M 12,128 l 4,0 0,4 -4,0 z M 16,128 l 4,0 0,4 -4,0 z M 32,128 l 4,0 0,4 -4,0 z M 36,128 l 4,0 0,4 -4,0 z M 40,128 l 4,0 0,4 -4,0 z M 52,128 l 4,0 0,4 -4,0 z M 56,128 l 4,0 0,4 -4,0 z M 64,128 l 4,0 0,4 -4,0 z M 68,128 l 4,0 0,4 -4,0 z M 84,128 l 4,0 0,4 -4,0 z M 96,128 l 4,0 0,4 -4,0 z M 116,128 l 4,0 0,4 -4,0 z M 120,128 l 4,0 0,4 -4,0 z M 124,128 l 4,0 0,4 -4,0 z M 128,128 l 4,0 0,4 -4,0 z M 148,128 l 4,0 0,4 -4,0 z M 152,128 l 4,0 0,4 -4,0 z M 156,128 l 4,0 0,4 -4,0 z M 160,128 l 4,0 0,4 -4,0 z M 164,128 l 4,0 0,4 -4,0 z M 168,128 l 4,0 0,4 -4,0 z M 184,128 l 4,0 0,4 -4,0 z M 188,128 l 4,0 0,4 -4,0 z M 192,128 l 4,0 0,4 -4,0 z M 212,128 l 4,0 0,4 -4,0 z M 8,132 l 4,0 0,4 -4,0 z M 20,132 l 4,0 0,4 -4,0 z M 24,132 l 4,0 0,4 -4,0 z M 28,132 l 4,0 0,4 -4,0 z M 32,132 l 4,0 0,4 -4,0 z M 36,132 l 4,0 0,4 -4,0 z M 40,132 l 4,0 0,4 -4,0 z M 44,132 l 4,0 0,4 -4,0 z M 48,132 l 4,0 0,4 -4,0 z M 72,132 l 4,0 0,4 -4,0 z M 88,132 l 4,0 0,4 -4,0 z M 100,132 l 4,0 0,4 -4,0 z M 104,132 l 4,0 0,4 -4,0 z M 112,132 l 4,0 0,4 -4,0 z M 116,132 l 4,0 0,4 -4,0 z M 124,132 l 4,0 0,4 -4,0 z M 132,132 l 4,0 0,4 -4,0 z M 144,132 l 4,0 0,4 -4,0 z M 152,132 l 4,0 0,4 -4,0 z M 168,132 l 4,0 0,4 -4,0 z M 172,132 l 4,0 0,4 -4,0 z M 176,132 l 4,0 0,4 -4,0 z M 180,132 l 4,0 0,4 -4,0 z M 184,132 l 4,0 0,4 -4,0 z M 196,132 l 4,0 0,4 -4,0 z M 204,132 l 4,0 0,4 -4,0 z M 208,132 l 4,0 0,4 -4,0 z M 12,136 l 4,0 0,4 -4,0 z M 16,136 l 4,0 0,4 -4,0 z M 20,136 l 4,0 0,4 -4,0 z M 24,136 l 4,0 0,4 -4,0 z M 36,136 l 4,0 0,4 -4,0 z M 40,136 l 4,0 0,4 -4,0 z M 44,136 l 4,0 0,4 -4,0 z M 56,136 l 4,0 0,4 -4,0 z M 64,136 l 4,0 0,4 -4,0 z M 76,136 l 4,0 0,4 -4,0 z M 80,136 l 4,0 0,4 -4,0 z M 84,136 l 4,0 0,4 -4,0 z M 96,136 l 4,0 0,4 -4,0 z M 108,136 l 4,0 0,4 -4,0 z M 116,136 l 4,0 0,4 -4,0 z M 120,136 l 4,0 0,4 -4,0 z M 128,136 l 4,0 0,4 -4,0 z M 132,136 l 4,0 0,4 -4,0 z M 136,136 l 4,0 0,4 -4,0 z M 140,136 l 4,0 0,4 -4,0 z M 144,136 l 4,0 0,4 -4,0 z M 148,136 l 4,0 0,4 -4,0 z M 152,136 l 4,0 0,4 -4,0 z M 160,136 l 4,0 0,4 -4,0 z M 168,136 l 4,0 0,4 -4,0 z M 172,136 l 4,0 0,4 -4,0 z M 192,136 l 4,0 0,4 -4,0 z M 212,136 l 4,0 0,4 -4,0 z M 16,140 l 4,0 0,4 -4,0 z M 20,140 l 4,0 0,4 -4,0 z M 28,140 l 4,0 0,4 -4,0 z M 76,140 l 4,0 0,4 -4,0 z M 84,140 l 4,0 0,4 -4,0 z M 92,140 l 4,0 0,4 -4,0 z M 100,140 l 4,0 0,4 -4,0 z M 128,140 l 4,0 0,4 -4,0 z M 136,140 l 4,0 0,4 -4,0 z M 140,140 l 4,0 0,4 -4,0 z M 148,140 l 4,0 0,4 -4,0 z M 160,140 l 4,0 0,4 -4,0 z M 188,140 l 4,0 0,4 -4,0 z M 192,140 l 4,0 0,4 -4,0 z M 200,140 l 4,0 0,4 -4,0 z M 4,144 l 4,0 0,4 -4,0 z M 8,144 l 4,0 0,4 -4,0 z M 16,144 l 4,0 0,4 -4,0 z M 32,144 l 4,0 0,4 -4,0 z M 36,144 l 4,0 0,4 -4,0 z M 52,144 l 4,0 0,4 -4,0 z M 56,144 l 4,0 0,4 -4,0 z M 64,144 l 4,0 0,4 -4,0 z M 72,144 l 4,0 0,4 -4,0 z M 76,144 l 4,0 0,4 -4,0 z M 80,144 l 4,0 0,4 -4,0 z M 84,144 l 4,0 0,4 -4,0 z M 88,144 l 4,0 0,4 -4,0 z M 92,144 l 4,0 0,4 -4,0 z M 124,144 l 4,0 0,4 -4,0 z M 128,144 l 4,0 0,4 -4,0 z M 136,144 l 4,0 0,4 -4,0 z M 140,144 l 4,0 0,4 -4,0 z M 164,144 l 4,0 0,4 -4,0 z M 176,144 l 4,0 0,4 -4,0 z M 180,144 l 4,0 0,4 -4,0 z M 184,144 l 4,0 0,4 -4,0 z M 196,144 l 4,0 0,4 -4,0 z M 208,144 l 4,0 0,4 -4,0 z M 12,148 l 4,0 0,4 -4,0 z M 16,148 l 4,0 0,4 -4,0 z M 20,148 l 4,0 0,4 -4,0 z M 24,148 l 4,0 0,4 -4,0 z M 28,148 l 4,0 0,4 -4,0 z M 36,148 l 4,0 0,4 -4,0 z M 40,148 l 4,0 0,4 -4,0 z M 44,148 l 4,0 0,4 -4,0 z M 48,148 l 4,0 0,4 -4,0 z M 60,148 l 4,0 0,4 -4,0 z M 64,148 l 4,0 0,4 -4,0 z M 72,148 l 4,0 0,4 -4,0 z M 76,148 l 4,0 0,4 -4,0 z M 80,148 l 4,0 0,4 -4,0 z M 100,148 l 4,0 0,4 -4,0 z M 104,148 l 4,0 0,4 -4,0 z M 108,148 l 4,0 0,4 -4,0 z M 112,148 l 4,0 0,4 -4,0 z M 120,148 l 4,0 0,4 -4,0 z M 124,148 l 4,0 0,4 -4,0 z M 132,148 l 4,0 0,4 -4,0 z M 140,148 l 4,0 0,4 -4,0 z M 148,148 l 4,0 0,4 -4,0 z M 152,148 l 4,0 0,4 -4,0 z M 156,148 l 4,0 0,4 -4,0 z M 160,148 l 4,0 0,4 -4,0 z M 168,148 l 4,0 0,4 -4,0 z M 172,148 l 4,0 0,4 -4,0 z M 180,148 l 4,0 0,4 -4,0 z M 188,148 l 4,0 0,4 -4,0 z M 208,148 l 4,0 0,4 -4,0 z M 212,148 l 4,0 0,4 -4,0 z M 4,152 l 4,0 0,4 -4,0 z M 8,152 l 4,0 0,4 -4,0 z M 20,152 l 4,0 0,4 -4,0 z M 24,152 l 4,0 0,4 -4,0 z M 36,152 l 4,0 0,4 -4,0 z M 44,152 l 4,0 0,4 -4,0 z M 48,152 l 4,0 0,4 -4,0 z M 64,152 l 4,0 0,4 -4,0 z M 72,152 l 4,0 0,4 -4,0 z M 84,152 l 4,0 0,4 -4,0 z M 88,152 l 4,0 0,4 -4,0 z M 92,152 l 4,0 0,4 -4,0 z M 100,152 l 4,0 0,4 -4,0 z M 112,152 l 4,0 0,4 -4,0 z M 116,152 l 4,0 0,4 -4,0 z M 124,152 l 4,0 0,4 -4,0 z M 128,152 l 4,0 0,4 -4,0 z M 136,152 l 4,0 0,4 -4,0 z M 144,152 l 4,0 0,4 -4,0 z M 164,152 l 4,0 0,4 -4,0 z M 176,152 l 4,0 0,4 -4,0 z M 184,152 l 4,0 0,4 -4,0 z M 196,152 l 4,0 0,4 -4,0 z M 200,152 l 4,0 0,4 -4,0 z M 204,152 l 4,0 0,4 -4,0 z M 208,152 l 4,0 0,4 -4,0 z M 212,152 l 4,0 0,4 -4,0 z M 4,156 l 4,0 0,4 -4,0 z M 8,156 l 4,0 0,4 -4,0 z M 12,156 l 4,0 0,4 -4,0 z M 20,156 l 4,0 0,4 -4,0 z M 28,156 l 4,0 0,4 -4,0 z M 32,156 l 4,0 0,4 -4,0 z M 36,156 l 4,0 0,4 -4,0 z M 40,156 l 4,0 0,4 -4,0 z M 44,156 l 4,0 0,4 -4,0 z M 48,156 l 4,0 0,4 -4,0 z M 52,156 l 4,0 0,4 -4,0 z M 56,156 l 4,0 0,4 -4,0 z M 60,156 l 4,0 0,4 -4,0 z M 68,156 l 4,0 0,4 -4,0 z M 76,156 l 4,0 0,4 -4,0 z M 80,156 l 4,0 0,4 -4,0 z M 92,156 l 4,0 0,4 -4,0 z M 96,156 l 4,0 0,4 -4,0 z M 108,156 l 4,0 0,4 -4,0 z M 112,156 l 4,0 0,4 -4,0 z M 116,156 l 4,0 0,4 -4,0 z M 124,156 l 4,0 0,4 -4,0 z M 136,156 l 4,0 0,4 -4,0 z M 140,156 l 4,0 0,4 -4,0 z M 148,156 l 4,0 0,4 -4,0 z M 152,156 l 4,0 0,4 -4,0 z M 160,156 l 4,0 0,4 -4,0 z M 192,156 l 4,0 0,4 -4,0 z M 200,156 l 4,0 0,4 -4,0 z M 204,156 l 4,0 0,4 -4,0 z M 208,156 l 4,0 0,4 -4,0 z M 212,156 l 4,0 0,4 -4,0 z M 12,160 l 4,0 0,4 -4,0 z M 16,160 l 4,0 0,4 -4,0 z M 36,160 l 4,0 0,4 -4,0 z M 44,160 l 4,0 0,4 -4,0 z M 60,160 l 4,0 0,4 -4,0 z M 64,160 l 4,0 0,4 -4,0 z M 72,160 l 4,0 0,4 -4,0 z M 76,160 l 4,0 0,4 -4,0 z M 88,160 l 4,0 0,4 -4,0 z M 92,160 l 4,0 0,4 -4,0 z M 112,160 l 4,0 0,4 -4,0 z M 124,160 l 4,0 0,4 -4,0 z M 128,160 l 4,0 0,4 -4,0 z M 132,160 l 4,0 0,4 -4,0 z M 136,160 l 4,0 0,4 -4,0 z M 140,160 l 4,0 0,4 -4,0 z M 164,160 l 4,0 0,4 -4,0 z M 172,160 l 4,0 0,4 -4,0 z M 176,160 l 4,0 0,4 -4,0 z M 184,160 l 4,0 0,4 -4,0 z M 188,160 l 4,0 0,4 -4,0 z M 192,160 l 4,0 0,4 -4,0 z M 196,160 l 4,0 0,4 -4,0 z M 200,160 l 4,0 0,4 -4,0 z M 12,164 l 4,0 0,4 -4,0 z M 16,164 l 4,0 0,4 -4,0 z M 20,164 l 4,0 0,4 -4,0 z M 28,164 l 4,0 0,4 -4,0 z M 40,164 l 4,0 0,4 -4,0 z M 44,164 l 4,0 0,4 -4,0 z M 52,164 l 4,0 0,4 -4,0 z M 56,164 l 4,0 0,4 -4,0 z M 60,164 l 4,0 0,4 -4,0 z M 64,164 l 4,0 0,4 -4,0 z M 76,164 l 4,0 0,4 -4,0 z M 80,164 l 4,0 0,4 -4,0 z M 92,164 l 4,0 0,4 -4,0 z M 96,164 l 4,0 0,4 -4,0 z M 100,164 l 4,0 0,4 -4,0 z M 104,164 l 4,0 0,4 -4,0 z M 112,164 l 4,0 0,4 -4,0 z M 124,164 l 4,0 0,4 -4,0 z M 136,164 l 4,0 0,4 -4,0 z M 144,164 l 4,0 0,4 -4,0 z M 148,164 l 4,0 0,4 -4,0 z M 156,164 l 4,0 0,4 -4,0 z M 168,164 l 4,0 0,4 -4,0 z M 172,164 l 4,0 0,4 -4,0 z M 180,164 l 4,0 0,4 -4,0 z M 184,164 l 4,0 0,4 -4,0 z M 188,164 l 4,0 0,4 -4,0 z M 196,164 l 4,0 0,4 -4,0 z M 200,164 l 4,0 0,4 -4,0 z M 204,164 l 4,0 0,4 -4,0 z M 208,164 l 4,0 0,4 -4,0 z M 212,164 l 4,0 0,4 -4,0 z M 8,168 l 4,0 0,4 -4,0 z M 16,168 l 4,0 0,4 -4,0 z M 44,168 l 4,0 0,4 -4,0 z M 52,168 l 4,0 0,4 -4,0 z M 68,168 l 4,0 0,4 -4,0 z M 72,168 l 4,0 0,4 -4,0 z M 76,168 l 4,0 0,4 -4,0 z M 88,168 l 4,0 0,4 -4,0 z M 96,168 l 4,0 0,4 -4,0 z M 108,168 l 4,0 0,4 -4,0 z M 112,168 l 4,0 0,4 -4,0 z M 128,168 l 4,0 0,4 -4,0 z M 132,168 l 4,0 0,4 -4,0 z M 136,168 l 4,0 0,4 -4,0 z M 144,168 l 4,0 0,4 -4,0 z M 156,168 l 4,0 0,4 -4,0 z M 164,168 l 4,0 0,4 -4,0 z M 168,168 l 4,0 0,4 -4,0 z M 172,168 l 4,0 0,4 -4,0 z M 176,168 l 4,0 0,4 -4,0 z M 188,168 l 4,0 0,4 -4,0 z M 204,168 l 4,0 0,4 -4,0 z M 208,168 l 4,0 0,4 -4,0 z M 212,168 l 4,0 0,4 -4,0 z M 4,172 l 4,0 0,4 -4,0 z M 8,172 l 4,0 0,4 -4,0 z M 16,172 l 4,0 0,4 -4,0 z M 20,172 l 4,0 0,4 -4,0 z M 24,172 l 4,0 0,4 -4,0 z M 28,172 l 4,0 0,4 -4,0 z M 36,172 l 4,0 0,4 -4,0 z M 40,172 l 4,0 0,4 -4,0 z M 48,172 l 4,0 0,4 -4,0 z M 52,172 l 4,0 0,4 -4,0 z M 64,172 l 4,0 0,4 -4,0 z M 68,172 l 4,0 0,4 -4,0 z M 80,172 l 4,0 0,4 -4,0 z M 92,172 l 4,0 0,4 -4,0 z M 100,172 l 4,0 0,4 -4,0 z M 104,172 l 4,0 0,4 -4,0 z M 124,172 l 4,0 0,4 -4,0 z M 132,172 l 4,0 0,4 -4,0 z M 140,172 l 4,0 0,4 -4,0 z M 148,172 l 4,0 0,4 -4,0 z M 152,172 l 4,0 0,4 -4,0 z M 156,172 l 4,0 0,4 -4,0 z M 164,172 l 4,0 0,4 -4,0 z M 168,172 l 4,0 0,4 -4,0 z M 176,172 l 4,0 0,4 -4,0 z M 184,172 l 4,0 0,4 -4,0 z M 192,172 l 4,0 0,4 -4,0 z M 196,172 l 4,0 0,4 -4,0 z M 200,172 l 4,0 0,4 -4,0 z M 8,176 l 4,0 0,4 -4,0 z M 12,176 l 4,0 0,4 -4,0 z M 36,176 l 4,0 0,4 -4,0 z M 40,176 l 4,0 0,4 -4,0 z M 44,176 l 4,0 0,4 -4,0 z M 68,176 l 4,0 0,4 -4,0 z M 72,176 l 4,0 0,4 -4,0 z M 88,176 l 4,0 0,4 -4,0 z M 104,176 l 4,0 0,4 -4,0 z M 108,176 l 4,0 0,4 -4,0 z M 124,176 l 4,0 0,4 -4,0 z M 128,176 l 4,0 0,4 -4,0 z M 132,176 l 4,0 0,4 -4,0 z M 136,176 l 4,0 0,4 -4,0 z M 156,176 l 4,0 0,4 -4,0 z M 160,176 l 4,0 0,4 -4,0 z M 176,176 l 4,0 0,4 -4,0 z M 180,176 l 4,0 0,4 -4,0 z M 184,176 l 4,0 0,4 -4,0 z M 204,176 l 4,0 0,4 -4,0 z M 208,176 l 4,0 0,4 -4,0 z M 16,180 l 4,0 0,4 -4,0 z M 28,180 l 4,0 0,4 -4,0 z M 36,180 l 4,0 0,4 -4,0 z M 40,180 l 4,0 0,4 -4,0 z M 44,180 l 4,0 0,4 -4,0 z M 48,180 l 4,0 0,4 -4,0 z M 56,180 l 4,0 0,4 -4,0 z M 64,180 l 4,0 0,4 -4,0 z M 68,180 l 4,0 0,4 -4,0 z M 76,180 l 4,0 0,4 -4,0 z M 88,180 l 4,0 0,4 -4,0 z M 96,180 l 4,0 0,4 -4,0 z M 100,180 l 4,0 0,4 -4,0 z M 104,180 l 4,0 0,4 -4,0 z M 108,180 l 4,0 0,4 -4,0 z M 112,180 l 4,0 0,4 -4,0 z M 116,180 l 4,0 0,4 -4,0 z M 128,180 l 4,0 0,4 -4,0 z M 148,180 l 4,0 0,4 -4,0 z M 152,180 l 4,0 0,4 -4,0 z M 164,180 l 4,0 0,4 -4,0 z M 168,180 l 4,0 0,4 -4,0 z M 172,180 l 4,0 0,4 -4,0 z M 180,180 l 4,0 0,4 -4,0 z M 184,180 l 4,0 0,4 -4,0 z M 188,180 l 4,0 0,4 -4,0 z M 192,180 l 4,0 0,4 -4,0 z M 196,180 l 4,0 0,4 -4,0 z M 36,184 l 4,0 0,4 -4,0 z M 48,184 l 4,0 0,4 -4,0 z M 56,184 l 4,0 0,4 -4,0 z M 64,184 l 4,0 0,4 -4,0 z M 68,184 l 4,0 0,4 -4,0 z M 80,184 l 4,0 0,4 -4,0 z M 88,184 l 4,0 0,4 -4,0 z M 100,184 l 4,0 0,4 -4,0 z M 116,184 l 4,0 0,4 -4,0 z M 120,184 l 4,0 0,4 -4,0 z M 128,184 l 4,0 0,4 -4,0 z M 136,184 l 4,0 0,4 -4,0 z M 140,184 l 4,0 0,4 -4,0 z M 144,184 l 4,0 0,4 -4,0 z M 156,184 l 4,0 0,4 -4,0 z M 164,184 l 4,0 0,4 -4,0 z M 168,184 l 4,0 0,4 -4,0 z M 180,184 l 4,0 0,4 -4,0 z M 196,184 l 4,0 0,4 -4,0 z M 200,184 l 4,0 0,4 -4,0 z M 208,184 l 4,0 0,4 -4,0 z M 4,188 l 4,0 0,4 -4,0 z M 8,188 l 4,0 0,4 -4,0 z M 12,188 l 4,0 0,4 -4,0 z M 16,188 l 4,0 0,4 -4,0 z M 20,188 l 4,0 0,4 -4,0 z M 24,188 l 4,0 0,4 -4,0 z M 28,188 l 4,0 0,4 -4,0 z M 36,188 l 4,0 0,4 -4,0 z M 40,188 l 4,0 0,4 -4,0 z M 44,188 l 4,0 0,4 -4,0 z M 48,188 l 4,0 0,4 -4,0 z M 52,188 l 4,0 0,4 -4,0 z M 68,188 l 4,0 0,4 -4,0 z M 72,188 l 4,0 0,4 -4,0 z M 80,188 l 4,0 0,4 -4,0 z M 84,188 l 4,0 0,4 -4,0 z M 88,188 l 4,0 0,4 -4,0 z M 100,188 l 4,0 0,4 -4,0 z M 108,188 l 4,0 0,4 -4,0 z M 116,188 l 4,0 0,4 -4,0 z M 120,188 l 4,0 0,4 -4,0 z M 136,188 l 4,0 0,4 -4,0 z M 140,188 l 4,0 0,4 -4,0 z M 148,188 l 4,0 0,4 -4,0 z M 160,188 l 4,0 0,4 -4,0 z M 168,188 l 4,0 0,4 -4,0 z M 172,188 l 4,0 0,4 -4,0 z M 176,188 l 4,0 0,4 -4,0 z M 180,188 l 4,0 0,4 -4,0 z M 188,188 l 4,0 0,4 -4,0 z M 196,188 l 4,0 0,4 -4,0 z M 200,188 l 4,0 0,4 -4,0 z M 204,188 l 4,0 0,4 -4,0 z M 208,188 l 4,0 0,4 -4,0 z M 4,192 l 4,0 0,4 -4,0 z M 28,192 l 4,0 0,4 -4,0 z M 44,192 l 4,0 0,4 -4,0 z M 48,192 l 4,0 0,4 -4,0 z M 52,192 l 4,0 0,4 -4,0 z M 56,192 l 4,0 0,4 -4,0 z M 60,192 l 4,0 0,4 -4,0 z M 64,192 l 4,0 0,4 -4,0 z M 68,192 l 4,0 0,4 -4,0 z M 84,192 l 4,0 0,4 -4,0 z M 100,192 l 4,0 0,4 -4,0 z M 116,192 l 4,0 0,4 -4,0 z M 128,192 l 4,0 0,4 -4,0 z M 132,192 l 4,0 0,4 -4,0 z M 136,192 l 4,0 0,4 -4,0 z M 140,192 l 4,0 0,4 -4,0 z M 148,192 l 4,0 0,4 -4,0 z M 152,192 l 4,0 0,4 -4,0 z M 156,192 l 4,0 0,4 -4,0 z M 160,192 l 4,0 0,4 -4,0 z M 164,192 l 4,0 0,4 -4,0 z M 172,192 l 4,0 0,4 -4,0 z M 176,192 l 4,0 0,4 -4,0 z M 180,192 l 4,0 0,4 -4,0 z M 196,192 l 4,0 0,4 -4,0 z M 200,192 l 4,0 0,4 -4,0 z M 4,196 l 4,0 0,4 -4,0 z M 12,196 l 4,0 0,4 -4,0 z M 16,196 l 4,0 0,4 -4,0 z M 20,196 l 4,0 0,4 -4,0 z M 28,196 l 4,0 0,4 -4,0 z M 36,196 l 4,0 0,4 -4,0 z M 44,196 l 4,0 0,4 -4,0 z M 48,196 l 4,0 0,4 -4,0 z M 56,196 l 4,0 0,4 -4,0 z M 60,196 l 4,0 0,4 -4,0 z M 72,196 l 4,0 0,4 -4,0 z M 88,196 l 4,0 0,4 -4,0 z M 100,196 l 4,0 0,4 -4,0 z M 104,196 l 4,0 0,4 -4,0 z M 108,196 l 4,0 0,4 -4,0 z M 112,196 l 4,0 0,4 -4,0 z M 116,196 l 4,0 0,4 -4,0 z M 124,196 l 4,0 0,4 -4,0 z M 132,196 l 4,0 0,4 -4,0 z M 156,196 l 4,0 0,4 -4,0 z M 160,196 l 4,0 0,4 -4,0 z M 172,196 l 4,0 0,4 -4,0 z M 176,196 l 4,0 0,4 -4,0 z M 180,196 l 4,0 0,4 -4,0 z M 184,196 l 4,0 0,4 -4,0 z M 188,196 l 4,0 0,4 -4,0 z M 192,196 l 4,0 0,4 -4,0 z M 196,196 l 4,0 0,4 -4,0 z M 200,196 l 4,0 0,4 -4,0 z M 204,196 l 4,0 0,4 -4,0 z M 208,196 l 4,0 0,4 -4,0 z M 212,196 l 4,0 0,4 -4,0 z M 4,200 l 4,0 0,4 -4,0 z M 12,200 l 4,0 0,4 -4,0 z M 16,200 l 4,0 0,4 -4,0 z M 20,200 l 4,0 0,4 -4,0 z M 28,200 l 4,0 0,4 -4,0 z M 36,200 l 4,0 0,4 -4,0 z M 40,200 l 4,0 0,4 -4,0 z M 44,200 l 4,0 0,4 -4,0 z M 48,200 l 4,0 0,4 -4,0 z M 64,200 l 4,0 0,4 -4,0 z M 76,200 l 4,0 0,4 -4,0 z M 80,200 l 4,0 0,4 -4,0 z M 84,200 l 4,0 0,4 -4,0 z M 96,200 l 4,0 0,4 -4,0 z M 100,200 l 4,0 0,4 -4,0 z M 104,200 l 4,0 0,4 -4,0 z M 108,200 l 4,0 0,4 -4,0 z M 112,200 l 4,0 0,4 -4,0 z M 116,200 l 4,0 0,4 -4,0 z M 124,200 l 4,0 0,4 -4,0 z M 128,200 l 4,0 0,4 -4,0 z M 132,200 l 4,0 0,4 -4,0 z M 136,200 l 4,0 0,4 -4,0 z M 144,200 l 4,0 0,4 -4,0 z M 148,200 l 4,0 0,4 -4,0 z M 164,200 l 4,0 0,4 -4,0 z M 168,200 l 4,0 0,4 -4,0 z M 172,200 l 4,0 0,4 -4,0 z M 180,200 l 4,0 0,4 -4,0 z M 192,200 l 4,0 0,4 -4,0 z M 204,200 l 4,0 0,4 -4,0 z M 208,200 l 4,0 0,4 -4,0 z M 212,200 l 4,0 0,4 -4,0 z M 4,204 l 4,0 0,4 -4,0 z M 12,204 l 4,0 0,4 -4,0 z M 16,204 l 4,0 0,4 -4,0 z M 20,204 l 4,0 0,4 -4,0 z M 28,204 l 4,0 0,4 -4,0 z M 36,204 l 4,0 0,4 -4,0 z M 48,204 l 4,0 0,4 -4,0 z M 56,204 l 4,0 0,4 -4,0 z M 76,204 l 4,0 0,4 -4,0 z M 84,204 l 4,0 0,4 -4,0 z M 88,204 l 4,0 0,4 -4,0 z M 92,204 l 4,0 0,4 -4,0 z M 96,204 l 4,0 0,4 -4,0 z M 108,204 l 4,0 0,4 -4,0 z M 112,204 l 4,0 0,4 -4,0 z M 128,204 l 4,0 0,4 -4,0 z M 140,204 l 4,0 0,4 -4,0 z M 152,204 l 4,0 0,4 -4,0 z M 160,204 l 4,0 0,4 -4,0 z M 168,204 l 4,0 0,4 -4,0 z M 180,204 l 4,0 0,4 -4,0 z M 192,204 l 4,0 0,4 -4,0 z M 196,204 l 4,0 0,4 -4,0 z M 200,204 l 4,0 0,4 -4,0 z M 204,204 l 4,0 0,4 -4,0 z M 208,204 l 4,0 0,4 -4,0 z M 4,208 l 4,0 0,4 -4,0 z M 28,208 l 4,0 0,4 -4,0 z M 36,208 l 4,0 0,4 -4,0 z M 40,208 l 4,0 0,4 -4,0 z M 48,208 l 4,0 0,4 -4,0 z M 56,208 l 4,0 0,4 -4,0 z M 60,208 l 4,0 0,4 -4,0 z M 64,208 l 4,0 0,4 -4,0 z M 72,208 l 4,0 0,4 -4,0 z M 80,208 l 4,0 0,4 -4,0 z M 84,208 l 4,0 0,4 -4,0 z M 92,208 l 4,0 0,4 -4,0 z M 96,208 l 4,0 0,4 -4,0 z M 100,208 l 4,0 0,4 -4,0 z M 116,208 l 4,0 0,4 -4,0 z M 136,208 l 4,0 0,4 -4,0 z M 144,208 l 4,0 0,4 -4,0 z M 156,208 l 4,0 0,4 -4,0 z M 160,208 l 4,0 0,4 -4,0 z M 172,208 l 4,0 0,4 -4,0 z M 176,208 l 4,0 0,4 -4,0 z M 184,208 l 4,0 0,4 -4,0 z M 192,208 l 4,0 0,4 -4,0 z M 204,208 l 4,0 0,4 -4,0 z M 208,208 l 4,0 0,4 -4,0 z M 4,212 l 4,0 0,4 -4,0 z M 8,212 l 4,0 0,4 -4,0 z M 12,212 l 4,0 0,4 -4,0 z M 16,212 l 4,0 0,4 -4,0 z M 20,212 l 4,0 0,4 -4,0 z M 24,212 l 4,0 0,4 -4,0 z M 28,212 l 4,0 0,4 -4,0 z M 36,212 l 4,0 0,4 -4,0 z M 44,212 l 4,0 0,4 -4,0 z M 52,212 l 4,0 0,4 -4,0 z M 56,212 l 4,0 0,4 -4,0 z M 64,212 l 4,0 0,4 -4,0 z M 76,212 l 4,0 0,4 -4,0 z M 80,212 l 4,0 0,4 -4,0 z M 84,212 l 4,0 0,4 -4,0 z M 88,212 l 4,0 0,4 -4,0 z M 92,212 l 4,0 0,4 -4,0 z M 96,212 l 4,0 0,4 -4,0 z M 100,212 l 4,0 0,4 -4,0 z M 112,212 l 4,0 0,4 -4,0 z M 116,212 l 4,0 0,4 -4,0 z M 120,212 l 4,0 0,4 -4,0 z M 124,212 l 4,0 0,4 -4,0 z M 132,212 l 4,0 0,4 -4,0 z M 152,212 l 4,0 0,4 -4,0 z M 160,212 l 4,0 0,4 -4,0 z M 164,212 l 4,0 0,4 -4,0 z M 168,212 l 4,0 0,4 -4,0 z M 172,212 l 4,0 0,4 -4,0 z M 180,212 l 4,0 0,4 -4,0 z M 184,212 l 4,0 0,4 -4,0 z M 188,212 l 4,0 0,4 -4,0 z M 192,212 l 4,0 0,4 -4,0 z M 196,212 l 4,0 0,4 -4,0 z M 200,212 l 4,0 0,4 -4,0 z " />
	</g>
</svg>
